<?xml version="1.0" encoding="UTF-8"?>
<svg xmlns="http://www.w3.org/2000/svg" xmlns:xlink="http://www.w3.org/1999/xlink" width="277pt" height="275pt" viewBox="0 0 277 275" version="1.1">
<g id="surface1">
<path style="fill:none;stroke-width:5;stroke-linecap:round;stroke-linejoin:round;stroke:rgb(0%,0%,0%);stroke-opacity:1;stroke-miterlimit:10;" d="M 164.101562 163.59375 L 950.507812 950.039062 " transform="matrix(0.1,0,0,-0.1,0,275)"/>
<path style=" stroke:none;fill-rule:nonzero;fill:rgb(0%,0%,0%);fill-opacity:1;" d="M 11.105469 263.941406 L 17.832031 260.058594 L 14.988281 257.21875 L 11.105469 263.941406 "/>
<path style="fill:none;stroke-width:5;stroke-linecap:round;stroke-linejoin:round;stroke:rgb(0%,0%,0%);stroke-opacity:1;stroke-miterlimit:10;" d="M 111.054688 110.585938 L 178.320312 149.414062 L 149.882812 177.8125 Z M 111.054688 110.585938 " transform="matrix(0.1,0,0,-0.1,0,275)"/>
<path style=" stroke:none;fill-rule:nonzero;fill:rgb(0%,0%,0%);fill-opacity:1;" d="M 8.441406 266.847656 C 8.511719 266.765625 8.570312 266.695312 8.570312 266.574219 C 8.570312 266.488281 8.558594 266.476562 8.285156 266.476562 L 3.347656 266.476562 C 3.074219 266.476562 3.058594 266.488281 2.988281 266.707031 L 2.332031 268.855469 C 2.296875 268.976562 2.296875 269 2.296875 269.023438 C 2.296875 269.074219 2.332031 269.144531 2.414062 269.144531 C 2.511719 269.144531 2.535156 269.097656 2.582031 268.941406 C 3.023438 267.648438 3.609375 266.824219 5.5 266.824219 L 7.460938 266.824219 L 0.90625 274.238281 C 0.800781 274.367188 0.753906 274.417969 0.753906 274.546875 C 0.753906 274.644531 0.8125 274.644531 1.039062 274.644531 L 6.144531 274.644531 C 6.417969 274.644531 6.429688 274.632812 6.503906 274.417969 L 7.339844 271.773438 C 7.351562 271.738281 7.375 271.65625 7.375 271.605469 C 7.375 271.546875 7.328125 271.488281 7.257812 271.488281 C 7.160156 271.488281 7.148438 271.5 7.054688 271.796875 C 6.550781 273.339844 6.023438 274.273438 3.945312 274.273438 L 1.875 274.273438 L 8.441406 266.847656 "/>
<path style="fill:none;stroke-width:5;stroke-linecap:round;stroke-linejoin:round;stroke:rgb(0%,0%,0%);stroke-opacity:1;stroke-miterlimit:10;" d="M 950.507812 2553.90625 L 950.507812 950.039062 " transform="matrix(0.1,0,0,-0.1,0,275)"/>
<path style=" stroke:none;fill-rule:nonzero;fill:rgb(0%,0%,0%);fill-opacity:1;" d="M 95.050781 12.109375 L 93.042969 19.609375 L 97.0625 19.609375 L 95.050781 12.109375 "/>
<path style="fill:none;stroke-width:5;stroke-linecap:round;stroke-linejoin:round;stroke:rgb(0%,0%,0%);stroke-opacity:1;stroke-miterlimit:10;" d="M 950.507812 2628.90625 L 930.429688 2553.90625 L 970.625 2553.90625 Z M 950.507812 2628.90625 " transform="matrix(0.1,0,0,-0.1,0,275)"/>
<path style=" stroke:none;fill-rule:nonzero;fill:rgb(0%,0%,0%);fill-opacity:1;" d="M 97.417969 1.683594 L 97.695312 1.410156 C 98.21875 0.871094 98.664062 0.738281 99.082031 0.703125 C 99.210938 0.691406 99.320312 0.679688 99.320312 0.476562 C 99.320312 0.355469 99.199219 0.355469 99.175781 0.355469 L 97.191406 0.355469 C 97.109375 0.355469 96.976562 0.355469 96.976562 0.585938 C 96.976562 0.691406 97.097656 0.703125 97.132812 0.703125 C 97.492188 0.726562 97.492188 0.90625 97.492188 0.976562 C 97.492188 1.109375 97.394531 1.289062 97.15625 1.5625 L 94.3125 4.828125 L 92.960938 1.191406 C 92.886719 1.027344 92.886719 1.003906 92.886719 0.976562 C 92.886719 0.726562 93.378906 0.703125 93.523438 0.703125 C 93.664062 0.703125 93.796875 0.703125 93.796875 0.488281 C 93.796875 0.355469 93.6875 0.355469 93.617188 0.355469 C 93.414062 0.355469 93.175781 0.378906 92.972656 0.378906 L 91.644531 0.378906 C 91.429688 0.378906 91.203125 0.355469 91 0.355469 C 90.914062 0.355469 90.785156 0.355469 90.785156 0.585938 C 90.785156 0.703125 90.890625 0.703125 91.070312 0.703125 C 91.65625 0.703125 91.765625 0.8125 91.871094 1.085938 L 93.355469 5.066406 C 93.367188 5.101562 93.402344 5.234375 93.402344 5.269531 C 93.402344 5.304688 92.816406 7.660156 92.78125 7.78125 C 92.683594 8.101562 92.566406 8.164062 91.800781 8.175781 C 91.597656 8.175781 91.5 8.175781 91.5 8.402344 C 91.5 8.523438 91.632812 8.523438 91.667969 8.523438 C 91.882812 8.523438 92.136719 8.496094 92.363281 8.496094 L 93.773438 8.496094 C 93.988281 8.496094 94.238281 8.523438 94.453125 8.523438 C 94.539062 8.523438 94.679688 8.523438 94.679688 8.304688 C 94.679688 8.175781 94.597656 8.175781 94.394531 8.175781 C 93.652344 8.175781 93.652344 8.089844 93.652344 7.960938 C 93.652344 7.875 93.75 7.492188 93.808594 7.253906 L 94.238281 5.53125 C 94.3125 5.28125 94.3125 5.257812 94.417969 5.136719 L 97.417969 1.683594 "/>
<path style="fill:none;stroke-width:5;stroke-linecap:round;stroke-linejoin:round;stroke:rgb(0%,0%,0%);stroke-opacity:1;stroke-miterlimit:10;" d="M 2554.414062 950.039062 L 950.507812 950.039062 " transform="matrix(0.1,0,0,-0.1,0,275)"/>
<path style=" stroke:none;fill-rule:nonzero;fill:rgb(0%,0%,0%);fill-opacity:1;" d="M 262.941406 179.996094 L 255.441406 177.988281 L 255.441406 182.007812 L 262.941406 179.996094 "/>
<path style="fill:none;stroke-width:5;stroke-linecap:round;stroke-linejoin:round;stroke:rgb(0%,0%,0%);stroke-opacity:1;stroke-miterlimit:10;" d="M 2629.414062 950.039062 L 2554.414062 970.117188 L 2554.414062 929.921875 Z M 2629.414062 950.039062 " transform="matrix(0.1,0,0,-0.1,0,275)"/>
<path style=" stroke:none;fill-rule:nonzero;fill:rgb(0%,0%,0%);fill-opacity:1;" d="M 271.90625 179.226562 L 270.785156 176.609375 C 270.9375 176.320312 271.296875 176.273438 271.441406 176.261719 C 271.511719 176.261719 271.644531 176.25 271.644531 176.046875 C 271.644531 175.914062 271.535156 175.914062 271.464844 175.914062 C 271.261719 175.914062 271.023438 175.9375 270.820312 175.9375 L 270.125 175.9375 C 269.398438 175.9375 268.871094 175.914062 268.859375 175.914062 C 268.761719 175.914062 268.644531 175.914062 268.644531 176.140625 C 268.644531 176.261719 268.753906 176.261719 268.90625 176.261719 C 269.601562 176.261719 269.648438 176.382812 269.769531 176.667969 L 271.191406 179.992188 L 268.597656 182.765625 C 268.164062 183.230469 267.652344 183.683594 266.765625 183.734375 C 266.621094 183.746094 266.527344 183.746094 266.527344 183.960938 C 266.527344 183.996094 266.539062 184.082031 266.671875 184.082031 L 268.917969 184.082031 C 269.003906 184.082031 269.144531 184.082031 269.144531 183.863281 C 269.144531 183.746094 269.0625 183.734375 268.992188 183.734375 C 268.753906 183.710938 268.597656 183.578125 268.597656 183.386719 C 268.597656 183.183594 268.738281 183.039062 269.085938 182.679688 L 270.148438 181.523438 C 270.414062 181.246094 271.046875 180.554688 271.308594 180.289062 L 272.566406 183.230469 C 272.578125 183.253906 272.625 183.375 272.625 183.386719 C 272.625 183.492188 272.363281 183.710938 271.980469 183.734375 C 271.90625 183.734375 271.777344 183.746094 271.777344 183.960938 C 271.777344 184.082031 271.894531 184.082031 271.953125 184.082031 C 272.160156 184.082031 272.398438 184.054688 272.601562 184.054688 L 273.914062 184.054688 C 274.132812 184.054688 274.359375 184.082031 274.5625 184.082031 C 274.644531 184.082031 274.777344 184.082031 274.777344 183.851562 C 274.777344 183.734375 274.65625 183.734375 274.550781 183.734375 C 273.832031 183.722656 273.808594 183.660156 273.605469 183.21875 L 272.027344 179.511719 L 273.546875 177.886719 C 273.664062 177.769531 273.941406 177.46875 274.046875 177.347656 C 274.5625 176.8125 275.039062 176.320312 276.007812 176.261719 C 276.128906 176.25 276.246094 176.25 276.246094 176.046875 C 276.246094 175.914062 276.140625 175.914062 276.09375 175.914062 L 273.855469 175.914062 C 273.773438 175.914062 273.628906 175.914062 273.628906 176.128906 C 273.628906 176.25 273.714844 176.261719 273.785156 176.261719 C 273.976562 176.285156 274.179688 176.382812 274.179688 176.609375 L 274.167969 176.632812 C 274.15625 176.714844 274.132812 176.835938 274 176.976562 L 271.90625 179.226562 "/>
<path style="fill:none;stroke-width:30;stroke-linecap:round;stroke-linejoin:round;stroke:rgb(0%,0%,0%);stroke-opacity:1;stroke-miterlimit:10;" d="M 1662.8125 1916.640625 L 1662.8125 1916.640625 " transform="matrix(0.1,0,0,-0.1,0,275)"/>
<path style=" stroke:none;fill-rule:nonzero;fill:rgb(0%,0%,0%);fill-opacity:1;" d="M 175.648438 82.15625 L 178.539062 82.15625 C 180.917969 82.15625 183.292969 80.402344 183.292969 78.441406 C 183.292969 77.097656 182.15625 75.875 179.988281 75.875 L 174.667969 75.875 C 174.339844 75.875 174.1875 75.875 174.1875 76.203125 C 174.1875 76.375 174.339844 76.375 174.597656 76.375 C 175.648438 76.375 175.648438 76.511719 175.648438 76.699219 C 175.648438 76.734375 175.648438 76.839844 175.578125 77.097656 L 173.257812 86.359375 C 173.101562 86.960938 173.066406 87.132812 171.863281 87.132812 C 171.535156 87.132812 171.363281 87.132812 171.363281 87.441406 C 171.363281 87.632812 171.519531 87.632812 171.621094 87.632812 L 175.648438 87.632812 C 175.785156 87.632812 175.976562 87.632812 175.976562 87.304688 C 175.976562 87.132812 175.820312 87.132812 175.5625 87.132812 C 174.53125 87.132812 174.511719 87.011719 174.511719 86.839844 C 174.511719 86.753906 174.53125 86.632812 174.546875 86.546875 Z M 176.890625 77.046875 C 177.042969 76.40625 177.113281 76.375 177.785156 76.375 L 179.488281 76.375 C 180.777344 76.375 181.847656 76.785156 181.847656 78.078125 C 181.847656 78.527344 181.621094 79.988281 180.832031 80.78125 C 180.539062 81.089844 179.710938 81.746094 178.144531 81.746094 L 175.71875 81.746094 Z M 189.121094 91.832031 C 189.121094 91.816406 189.121094 91.78125 189.070312 91.730469 C 188.277344 90.921875 186.160156 88.71875 186.160156 83.347656 C 186.160156 77.976562 188.242188 75.789062 189.085938 74.929688 C 189.085938 74.910156 189.121094 74.875 189.121094 74.824219 C 189.121094 74.773438 189.070312 74.738281 189 74.738281 C 188.8125 74.738281 187.347656 76.011719 186.503906 77.90625 C 185.644531 79.816406 185.402344 81.675781 185.402344 83.328125 C 185.402344 84.566406 185.523438 86.667969 186.554688 88.890625 C 187.382812 90.679688 188.796875 91.9375 189 91.9375 C 189.085938 91.9375 189.121094 91.902344 189.121094 91.832031 Z M 196.648438 80.59375 C 196.117188 80.695312 195.839844 81.074219 195.839844 81.453125 C 195.839844 81.867188 196.167969 82.003906 196.410156 82.003906 C 196.890625 82.003906 197.285156 81.589844 197.285156 81.074219 C 197.285156 80.523438 196.753906 80.039062 195.894531 80.039062 C 195.203125 80.039062 194.414062 80.351562 193.6875 81.402344 C 193.570312 80.488281 192.878906 80.039062 192.191406 80.039062 C 191.519531 80.039062 191.175781 80.558594 190.96875 80.9375 C 190.675781 81.554688 190.417969 82.589844 190.417969 82.675781 C 190.417969 82.742188 190.488281 82.828125 190.609375 82.828125 C 190.746094 82.828125 190.761719 82.8125 190.867188 82.414062 C 191.125 81.382812 191.449219 80.386719 192.140625 80.386719 C 192.554688 80.386719 192.671875 80.679688 192.671875 81.175781 C 192.671875 81.554688 192.503906 82.226562 192.382812 82.761719 L 191.898438 84.621094 C 191.828125 84.945312 191.640625 85.722656 191.554688 86.03125 C 191.433594 86.480469 191.246094 87.289062 191.246094 87.375 C 191.246094 87.617188 191.433594 87.804688 191.691406 87.804688 C 191.882812 87.804688 192.210938 87.683594 192.3125 87.339844 C 192.363281 87.203125 193 84.601562 193.105469 84.207031 C 193.191406 83.828125 193.292969 83.46875 193.378906 83.089844 C 193.449219 82.847656 193.515625 82.570312 193.570312 82.347656 C 193.621094 82.191406 194.085938 81.347656 194.515625 80.96875 C 194.722656 80.78125 195.171875 80.386719 195.875 80.386719 C 196.152344 80.386719 196.425781 80.4375 196.648438 80.59375 Z M 200.410156 87.703125 C 200.410156 86.703125 200.085938 85.964844 199.378906 85.964844 C 198.828125 85.964844 198.550781 86.410156 198.550781 86.789062 C 198.550781 87.167969 198.808594 87.632812 199.394531 87.632812 C 199.617188 87.632812 199.808594 87.5625 199.964844 87.410156 C 199.996094 87.375 200.015625 87.375 200.03125 87.375 C 200.066406 87.375 200.066406 87.617188 200.066406 87.703125 C 200.066406 88.269531 199.964844 89.390625 198.964844 90.507812 C 198.773438 90.714844 198.773438 90.75 198.773438 90.78125 C 198.773438 90.867188 198.859375 90.953125 198.945312 90.953125 C 199.085938 90.953125 200.410156 89.683594 200.410156 87.703125 Z M 212.054688 75.839844 C 212.054688 75.683594 211.9375 75.683594 211.882812 75.683594 C 211.730469 75.683594 211.710938 75.71875 211.644531 76.011719 L 210.714844 79.714844 C 210.660156 79.9375 210.644531 79.953125 210.628906 79.972656 C 210.609375 80.007812 210.488281 80.023438 210.453125 80.023438 C 207.632812 80.265625 205.464844 82.589844 205.464844 84.742188 C 205.464844 86.601562 206.890625 87.734375 208.683594 87.839844 C 208.542969 88.371094 208.425781 88.925781 208.285156 89.457031 C 208.046875 90.371094 207.90625 90.9375 207.90625 91.007812 C 207.90625 91.039062 207.90625 91.144531 208.078125 91.144531 C 208.132812 91.144531 208.199219 91.144531 208.234375 91.074219 C 208.269531 91.039062 208.371094 90.628906 208.441406 90.40625 L 209.078125 87.839844 C 212.023438 87.683594 214.261719 85.273438 214.261719 83.105469 C 214.261719 81.367188 212.949219 80.128906 211.039062 80.007812 Z M 210.9375 80.351562 C 212.074219 80.421875 213.210938 81.058594 213.210938 82.742188 C 213.210938 84.6875 211.851562 87.269531 209.164062 87.476562 Z M 208.769531 87.496094 C 207.925781 87.441406 206.511719 86.996094 206.511719 85.101562 C 206.511719 82.933594 208.078125 80.523438 210.558594 80.367188 Z M 217.910156 87.703125 C 217.910156 86.703125 217.585938 85.964844 216.878906 85.964844 C 216.328125 85.964844 216.050781 86.410156 216.050781 86.789062 C 216.050781 87.167969 216.308594 87.632812 216.894531 87.632812 C 217.117188 87.632812 217.308594 87.5625 217.464844 87.410156 C 217.496094 87.375 217.515625 87.375 217.53125 87.375 C 217.566406 87.375 217.566406 87.617188 217.566406 87.703125 C 217.566406 88.269531 217.464844 89.390625 216.464844 90.507812 C 216.273438 90.714844 216.273438 90.75 216.273438 90.78125 C 216.273438 90.867188 216.359375 90.953125 216.445312 90.953125 C 216.585938 90.953125 217.910156 89.683594 217.910156 87.703125 Z M 226.679688 89.5625 C 226.214844 90.214844 225.546875 90.800781 224.703125 90.800781 C 224.496094 90.800781 223.667969 90.765625 223.410156 89.972656 C 223.460938 89.992188 223.546875 89.992188 223.582031 89.992188 C 224.097656 89.992188 224.441406 89.542969 224.441406 89.148438 C 224.441406 88.753906 224.117188 88.613281 223.859375 88.613281 C 223.582031 88.613281 222.980469 88.820312 222.980469 89.664062 C 222.980469 90.542969 223.71875 91.144531 224.703125 91.144531 C 226.421875 91.144531 228.160156 89.5625 228.644531 87.648438 L 230.332031 80.9375 C 230.347656 80.851562 230.382812 80.746094 230.382812 80.644531 C 230.382812 80.386719 230.175781 80.214844 229.917969 80.214844 C 229.761719 80.214844 229.402344 80.28125 229.265625 80.796875 L 227.988281 85.859375 C 227.902344 86.171875 227.902344 86.203125 227.765625 86.394531 C 227.421875 86.875 226.855469 87.460938 226.027344 87.460938 C 225.0625 87.460938 224.976562 86.515625 224.976562 86.050781 C 224.976562 85.066406 225.441406 83.742188 225.90625 82.503906 C 226.097656 82.003906 226.199219 81.761719 226.199219 81.417969 C 226.199219 80.695312 225.683594 80.039062 224.839844 80.039062 C 223.253906 80.039062 222.617188 82.535156 222.617188 82.675781 C 222.617188 82.742188 222.6875 82.828125 222.808594 82.828125 C 222.964844 82.828125 222.980469 82.761719 223.050781 82.519531 C 223.460938 81.074219 224.117188 80.386719 224.789062 80.386719 C 224.941406 80.386719 225.234375 80.386719 225.234375 80.953125 C 225.234375 81.402344 225.046875 81.898438 224.789062 82.554688 C 223.945312 84.808594 223.945312 85.378906 223.945312 85.789062 C 223.945312 87.425781 225.113281 87.804688 225.976562 87.804688 C 226.476562 87.804688 227.09375 87.648438 227.695312 87.011719 L 227.714844 87.03125 C 227.457031 88.046875 227.285156 88.71875 226.679688 89.5625 Z M 235.480469 83.347656 C 235.480469 82.105469 235.359375 80.007812 234.328125 77.785156 C 233.503906 75.996094 232.089844 74.738281 231.882812 74.738281 C 231.832031 74.738281 231.761719 74.753906 231.761719 74.84375 C 231.761719 74.875 231.78125 74.894531 231.796875 74.929688 C 232.621094 75.789062 234.722656 77.976562 234.722656 83.328125 C 234.722656 88.699219 232.640625 90.886719 231.796875 91.746094 C 231.78125 91.78125 231.761719 91.800781 231.761719 91.832031 C 231.761719 91.921875 231.832031 91.9375 231.882812 91.9375 C 232.074219 91.9375 233.535156 90.664062 234.378906 88.769531 C 235.238281 86.859375 235.480469 85 235.480469 83.347656 "/>
<path style="fill:none;stroke-width:5;stroke-linecap:round;stroke-linejoin:round;stroke:rgb(100%,0%,0%);stroke-opacity:1;stroke-dasharray:40.2934,40.2934;stroke-miterlimit:10;" d="M 950.507812 950.039062 L 1662.8125 237.734375 " transform="matrix(0.1,0,0,-0.1,0,275)"/>
<path style=" stroke:none;fill-rule:nonzero;fill:rgb(100%,0%,0%);fill-opacity:1;" d="M 126.4375 219.757812 C 125.902344 219.859375 125.628906 220.238281 125.628906 220.617188 C 125.628906 221.03125 125.953125 221.167969 126.195312 221.167969 C 126.679688 221.167969 127.074219 220.753906 127.074219 220.238281 C 127.074219 219.6875 126.539062 219.207031 125.679688 219.207031 C 124.992188 219.207031 124.199219 219.515625 123.476562 220.566406 C 123.355469 219.652344 122.667969 219.207031 121.976562 219.207031 C 121.308594 219.207031 120.964844 219.722656 120.757812 220.101562 C 120.464844 220.71875 120.203125 221.753906 120.203125 221.839844 C 120.203125 221.90625 120.273438 221.992188 120.394531 221.992188 C 120.53125 221.992188 120.550781 221.976562 120.652344 221.582031 C 120.910156 220.546875 121.238281 219.550781 121.925781 219.550781 C 122.339844 219.550781 122.460938 219.84375 122.460938 220.339844 C 122.460938 220.71875 122.289062 221.390625 122.167969 221.925781 L 121.6875 223.785156 C 121.617188 224.113281 121.425781 224.886719 121.339844 225.195312 C 121.222656 225.644531 121.03125 226.453125 121.03125 226.539062 C 121.03125 226.78125 121.222656 226.96875 121.480469 226.96875 C 121.667969 226.96875 121.996094 226.847656 122.097656 226.503906 C 122.148438 226.367188 122.789062 223.765625 122.890625 223.371094 C 122.976562 222.992188 123.078125 222.632812 123.164062 222.253906 C 123.234375 222.011719 123.304688 221.734375 123.355469 221.511719 C 123.40625 221.355469 123.871094 220.515625 124.300781 220.136719 C 124.507812 219.945312 124.957031 219.550781 125.664062 219.550781 C 125.9375 219.550781 126.214844 219.601562 126.4375 219.757812 "/>
<path style="fill:none;stroke-width:5;stroke-linecap:round;stroke-linejoin:round;stroke:rgb(100%,0%,0%);stroke-opacity:1;stroke-miterlimit:10;" d="M 1595.507812 305.039062 L 1595.507812 495.390625 L 1662.8125 428.085938 " transform="matrix(0.1,0,0,-0.1,0,275)"/>
<path style="fill:none;stroke-width:5;stroke-linecap:round;stroke-linejoin:round;stroke:rgb(100%,0%,0%);stroke-opacity:1;stroke-dasharray:40.9486,40.9486;stroke-miterlimit:10;" d="M 1662.8125 237.734375 L 1662.8125 1916.640625 " transform="matrix(0.1,0,0,-0.1,0,275)"/>
<path style=" stroke:none;fill-rule:nonzero;fill:rgb(100%,0%,0%);fill-opacity:1;" d="M 175.425781 171.25 C 174.960938 171.90625 174.289062 172.488281 173.445312 172.488281 C 173.238281 172.488281 172.414062 172.453125 172.152344 171.664062 C 172.207031 171.679688 172.292969 171.679688 172.328125 171.679688 C 172.84375 171.679688 173.1875 171.234375 173.1875 170.835938 C 173.1875 170.441406 172.859375 170.304688 172.601562 170.304688 C 172.328125 170.304688 171.722656 170.511719 171.722656 171.355469 C 171.722656 172.230469 172.464844 172.835938 173.445312 172.835938 C 175.167969 172.835938 176.90625 171.25 177.386719 169.339844 L 179.074219 162.625 C 179.09375 162.539062 179.128906 162.4375 179.128906 162.332031 C 179.128906 162.074219 178.921875 161.902344 178.660156 161.902344 C 178.507812 161.902344 178.144531 161.972656 178.007812 162.488281 L 176.734375 167.550781 C 176.648438 167.859375 176.648438 167.894531 176.511719 168.082031 C 176.164062 168.566406 175.597656 169.148438 174.769531 169.148438 C 173.808594 169.148438 173.722656 168.203125 173.722656 167.738281 C 173.722656 166.757812 174.1875 165.433594 174.652344 164.191406 C 174.839844 163.691406 174.941406 163.453125 174.941406 163.105469 C 174.941406 162.382812 174.425781 161.730469 173.582031 161.730469 C 172 161.730469 171.363281 164.226562 171.363281 164.363281 C 171.363281 164.433594 171.429688 164.519531 171.550781 164.519531 C 171.707031 164.519531 171.722656 164.449219 171.792969 164.210938 C 172.207031 162.761719 172.859375 162.074219 173.53125 162.074219 C 173.6875 162.074219 173.980469 162.074219 173.980469 162.644531 C 173.980469 163.089844 173.789062 163.589844 173.53125 164.242188 C 172.6875 166.5 172.6875 167.066406 172.6875 167.480469 C 172.6875 169.117188 173.859375 169.496094 174.71875 169.496094 C 175.21875 169.496094 175.839844 169.339844 176.441406 168.703125 L 176.457031 168.71875 C 176.199219 169.734375 176.027344 170.40625 175.425781 171.25 "/>
<path style="fill:none;stroke-width:5;stroke-linecap:round;stroke-linejoin:round;stroke:rgb(100%,0%,0%);stroke-opacity:1;stroke-dasharray:40.2934,40.2934;stroke-miterlimit:10;" d="M 1662.8125 237.734375 L 2375.117188 950.039062 " transform="matrix(0.1,0,0,-0.1,0,275)"/>
<path style="fill:none;stroke-width:5;stroke-linecap:round;stroke-linejoin:round;stroke:rgb(100%,0%,0%);stroke-opacity:1;stroke-miterlimit:10;" d="M 2279.921875 854.84375 L 2089.570312 854.84375 L 2184.765625 950.039062 " transform="matrix(0.1,0,0,-0.1,0,275)"/>
<path style="fill:none;stroke-width:5;stroke-linecap:round;stroke-linejoin:round;stroke:rgb(0%,0%,100%);stroke-opacity:1;stroke-miterlimit:10;" d="M 1139.296875 857.96875 C 1200.46875 884.414062 1252.304688 916.015625 1286.289062 950.039062 " transform="matrix(0.1,0,0,-0.1,0,275)"/>
<path style=" stroke:none;fill-rule:nonzero;fill:rgb(0%,0%,100%);fill-opacity:1;" d="M 106.921875 191.867188 C 109.609375 191.714844 112.234375 191.449219 114.742188 191.078125 L 113.128906 187.351562 C 111.195312 188.898438 109.113281 190.414062 106.921875 191.867188 "/>
<path style="fill:none;stroke-width:5;stroke-linecap:round;stroke-linejoin:round;stroke:rgb(0%,0%,100%);stroke-opacity:1;stroke-miterlimit:10;" d="M 1069.21875 831.328125 C 1096.09375 832.851562 1122.34375 835.507812 1147.421875 839.21875 L 1131.289062 876.484375 C 1111.953125 861.015625 1091.132812 845.859375 1069.21875 831.328125 Z M 1069.21875 831.328125 " transform="matrix(0.1,0,0,-0.1,0,275)"/>
<path style=" stroke:none;fill-rule:nonzero;fill:rgb(0%,0%,100%);fill-opacity:1;" d="M 127.148438 187.476562 C 127.148438 187.324219 127.027344 187.324219 126.976562 187.324219 C 126.820312 187.324219 126.804688 187.355469 126.734375 187.648438 L 125.804688 191.351562 C 125.753906 191.574219 125.734375 191.59375 125.71875 191.609375 C 125.703125 191.644531 125.582031 191.660156 125.546875 191.660156 C 122.722656 191.902344 120.554688 194.226562 120.554688 196.378906 C 120.554688 198.238281 121.984375 199.371094 123.773438 199.476562 C 123.636719 200.011719 123.515625 200.5625 123.378906 201.09375 C 123.136719 202.007812 123 202.574219 123 202.644531 C 123 202.679688 123 202.78125 123.171875 202.78125 C 123.222656 202.78125 123.289062 202.78125 123.324219 202.714844 C 123.359375 202.679688 123.464844 202.265625 123.53125 202.042969 L 124.167969 199.476562 C 127.113281 199.320312 129.351562 196.910156 129.351562 194.742188 C 129.351562 193.003906 128.042969 191.765625 126.132812 191.644531 Z M 126.027344 191.988281 C 127.164062 192.054688 128.300781 192.695312 128.300781 194.382812 C 128.300781 196.328125 126.941406 198.90625 124.253906 199.113281 Z M 123.859375 199.132812 C 123.015625 199.082031 121.605469 198.632812 121.605469 196.738281 C 121.605469 194.570312 123.171875 192.160156 125.648438 192.003906 L 123.859375 199.132812 "/>
</g>
</svg>
