<?xml version="1.0" encoding="UTF-8"?>
<svg xmlns="http://www.w3.org/2000/svg" xmlns:xlink="http://www.w3.org/1999/xlink" width="277pt" height="275pt" viewBox="0 0 277 275" version="1.1">
<g id="surface1">
<path style="fill:none;stroke-width:5;stroke-linecap:round;stroke-linejoin:round;stroke:rgb(50%,50%,50%);stroke-opacity:1;stroke-miterlimit:10;" d="M 950.507812 950.039062 L 111.054688 110.585938 " transform="matrix(0.1,0,0,-0.1,0,275)"/>
<path style="fill:none;stroke-width:5;stroke-linecap:round;stroke-linejoin:round;stroke:rgb(50%,50%,50%);stroke-opacity:1;stroke-miterlimit:10;" d="M 1286.289062 950.039062 L 446.835938 110.585938 " transform="matrix(0.1,0,0,-0.1,0,275)"/>
<path style="fill:none;stroke-width:5;stroke-linecap:round;stroke-linejoin:round;stroke:rgb(50%,50%,50%);stroke-opacity:1;stroke-miterlimit:10;" d="M 1622.070312 950.039062 L 782.617188 110.585938 " transform="matrix(0.1,0,0,-0.1,0,275)"/>
<path style="fill:none;stroke-width:5;stroke-linecap:round;stroke-linejoin:round;stroke:rgb(50%,50%,50%);stroke-opacity:1;stroke-miterlimit:10;" d="M 1957.851562 950.039062 L 1118.398438 110.585938 " transform="matrix(0.1,0,0,-0.1,0,275)"/>
<path style="fill:none;stroke-width:5;stroke-linecap:round;stroke-linejoin:round;stroke:rgb(50%,50%,50%);stroke-opacity:1;stroke-miterlimit:10;" d="M 2293.632812 950.039062 L 1454.179688 110.585938 " transform="matrix(0.1,0,0,-0.1,0,275)"/>
<path style="fill:none;stroke-width:5;stroke-linecap:round;stroke-linejoin:round;stroke:rgb(50%,50%,50%);stroke-opacity:1;stroke-miterlimit:10;" d="M 950.507812 950.039062 L 2629.414062 950.039062 " transform="matrix(0.1,0,0,-0.1,0,275)"/>
<path style="fill:none;stroke-width:5;stroke-linecap:round;stroke-linejoin:round;stroke:rgb(50%,50%,50%);stroke-opacity:1;stroke-miterlimit:10;" d="M 782.617188 782.148438 L 2461.523438 782.148438 " transform="matrix(0.1,0,0,-0.1,0,275)"/>
<path style="fill:none;stroke-width:5;stroke-linecap:round;stroke-linejoin:round;stroke:rgb(50%,50%,50%);stroke-opacity:1;stroke-miterlimit:10;" d="M 614.726562 614.257812 L 2293.632812 614.257812 " transform="matrix(0.1,0,0,-0.1,0,275)"/>
<path style="fill:none;stroke-width:5;stroke-linecap:round;stroke-linejoin:round;stroke:rgb(50%,50%,50%);stroke-opacity:1;stroke-miterlimit:10;" d="M 446.835938 446.367188 L 2125.742188 446.367188 " transform="matrix(0.1,0,0,-0.1,0,275)"/>
<path style="fill:none;stroke-width:5;stroke-linecap:round;stroke-linejoin:round;stroke:rgb(50%,50%,50%);stroke-opacity:1;stroke-miterlimit:10;" d="M 278.984375 278.476562 L 1957.851562 278.476562 " transform="matrix(0.1,0,0,-0.1,0,275)"/>
<path style="fill:none;stroke-width:5;stroke-linecap:round;stroke-linejoin:round;stroke:rgb(50%,50%,50%);stroke-opacity:1;stroke-miterlimit:10;" d="M 950.507812 950.039062 L 2629.414062 950.039062 " transform="matrix(0.1,0,0,-0.1,0,275)"/>
<path style="fill:none;stroke-width:5;stroke-linecap:round;stroke-linejoin:round;stroke:rgb(50%,50%,50%);stroke-opacity:1;stroke-miterlimit:10;" d="M 950.507812 1285.78125 L 2629.414062 1285.78125 " transform="matrix(0.1,0,0,-0.1,0,275)"/>
<path style="fill:none;stroke-width:5;stroke-linecap:round;stroke-linejoin:round;stroke:rgb(50%,50%,50%);stroke-opacity:1;stroke-miterlimit:10;" d="M 950.507812 1621.5625 L 2629.414062 1621.5625 " transform="matrix(0.1,0,0,-0.1,0,275)"/>
<path style="fill:none;stroke-width:5;stroke-linecap:round;stroke-linejoin:round;stroke:rgb(50%,50%,50%);stroke-opacity:1;stroke-miterlimit:10;" d="M 950.507812 1957.34375 L 2629.414062 1957.34375 " transform="matrix(0.1,0,0,-0.1,0,275)"/>
<path style="fill:none;stroke-width:5;stroke-linecap:round;stroke-linejoin:round;stroke:rgb(50%,50%,50%);stroke-opacity:1;stroke-miterlimit:10;" d="M 950.507812 2293.125 L 2629.414062 2293.125 " transform="matrix(0.1,0,0,-0.1,0,275)"/>
<path style="fill:none;stroke-width:5;stroke-linecap:round;stroke-linejoin:round;stroke:rgb(50%,50%,50%);stroke-opacity:1;stroke-miterlimit:10;" d="M 950.507812 950.039062 L 950.507812 2628.90625 " transform="matrix(0.1,0,0,-0.1,0,275)"/>
<path style="fill:none;stroke-width:5;stroke-linecap:round;stroke-linejoin:round;stroke:rgb(50%,50%,50%);stroke-opacity:1;stroke-miterlimit:10;" d="M 1286.289062 950.039062 L 1286.289062 2628.90625 " transform="matrix(0.1,0,0,-0.1,0,275)"/>
<path style="fill:none;stroke-width:5;stroke-linecap:round;stroke-linejoin:round;stroke:rgb(50%,50%,50%);stroke-opacity:1;stroke-miterlimit:10;" d="M 1622.070312 950.039062 L 1622.070312 2628.90625 " transform="matrix(0.1,0,0,-0.1,0,275)"/>
<path style="fill:none;stroke-width:5;stroke-linecap:round;stroke-linejoin:round;stroke:rgb(50%,50%,50%);stroke-opacity:1;stroke-miterlimit:10;" d="M 1957.851562 950.039062 L 1957.851562 2628.90625 " transform="matrix(0.1,0,0,-0.1,0,275)"/>
<path style="fill:none;stroke-width:5;stroke-linecap:round;stroke-linejoin:round;stroke:rgb(50%,50%,50%);stroke-opacity:1;stroke-miterlimit:10;" d="M 2293.632812 950.039062 L 2293.632812 2628.90625 " transform="matrix(0.1,0,0,-0.1,0,275)"/>
<path style="fill:none;stroke-width:5;stroke-linecap:round;stroke-linejoin:round;stroke:rgb(50%,50%,50%);stroke-opacity:1;stroke-miterlimit:10;" d="M 950.507812 950.039062 L 111.054688 110.585938 " transform="matrix(0.1,0,0,-0.1,0,275)"/>
<path style="fill:none;stroke-width:5;stroke-linecap:round;stroke-linejoin:round;stroke:rgb(50%,50%,50%);stroke-opacity:1;stroke-miterlimit:10;" d="M 950.507812 1285.78125 L 111.054688 446.367188 " transform="matrix(0.1,0,0,-0.1,0,275)"/>
<path style="fill:none;stroke-width:5;stroke-linecap:round;stroke-linejoin:round;stroke:rgb(50%,50%,50%);stroke-opacity:1;stroke-miterlimit:10;" d="M 950.507812 1621.5625 L 111.054688 782.148438 " transform="matrix(0.1,0,0,-0.1,0,275)"/>
<path style="fill:none;stroke-width:5;stroke-linecap:round;stroke-linejoin:round;stroke:rgb(50%,50%,50%);stroke-opacity:1;stroke-miterlimit:10;" d="M 950.507812 1957.34375 L 111.054688 1117.890625 " transform="matrix(0.1,0,0,-0.1,0,275)"/>
<path style="fill:none;stroke-width:5;stroke-linecap:round;stroke-linejoin:round;stroke:rgb(50%,50%,50%);stroke-opacity:1;stroke-miterlimit:10;" d="M 950.507812 2293.125 L 111.054688 1453.671875 " transform="matrix(0.1,0,0,-0.1,0,275)"/>
<path style="fill:none;stroke-width:5;stroke-linecap:round;stroke-linejoin:round;stroke:rgb(50%,50%,50%);stroke-opacity:1;stroke-miterlimit:10;" d="M 950.507812 950.039062 L 950.507812 2628.90625 " transform="matrix(0.1,0,0,-0.1,0,275)"/>
<path style="fill:none;stroke-width:5;stroke-linecap:round;stroke-linejoin:round;stroke:rgb(50%,50%,50%);stroke-opacity:1;stroke-miterlimit:10;" d="M 782.617188 782.148438 L 782.617188 2461.015625 " transform="matrix(0.1,0,0,-0.1,0,275)"/>
<path style="fill:none;stroke-width:5;stroke-linecap:round;stroke-linejoin:round;stroke:rgb(50%,50%,50%);stroke-opacity:1;stroke-miterlimit:10;" d="M 614.726562 614.257812 L 614.726562 2293.125 " transform="matrix(0.1,0,0,-0.1,0,275)"/>
<path style="fill:none;stroke-width:5;stroke-linecap:round;stroke-linejoin:round;stroke:rgb(50%,50%,50%);stroke-opacity:1;stroke-miterlimit:10;" d="M 446.835938 446.367188 L 446.835938 2125.234375 " transform="matrix(0.1,0,0,-0.1,0,275)"/>
<path style="fill:none;stroke-width:5;stroke-linecap:round;stroke-linejoin:round;stroke:rgb(50%,50%,50%);stroke-opacity:1;stroke-miterlimit:10;" d="M 278.984375 278.476562 L 278.984375 1957.34375 " transform="matrix(0.1,0,0,-0.1,0,275)"/>
<path style="fill:none;stroke-width:5;stroke-linecap:round;stroke-linejoin:round;stroke:rgb(0%,0%,0%);stroke-opacity:1;stroke-miterlimit:10;" d="M 164.101562 163.59375 L 950.507812 950.039062 " transform="matrix(0.1,0,0,-0.1,0,275)"/>
<path style=" stroke:none;fill-rule:nonzero;fill:rgb(0%,0%,0%);fill-opacity:1;" d="M 11.105469 263.941406 L 17.832031 260.058594 L 14.988281 257.21875 L 11.105469 263.941406 "/>
<path style="fill:none;stroke-width:5;stroke-linecap:round;stroke-linejoin:round;stroke:rgb(0%,0%,0%);stroke-opacity:1;stroke-miterlimit:10;" d="M 111.054688 110.585938 L 178.320312 149.414062 L 149.882812 177.8125 Z M 111.054688 110.585938 " transform="matrix(0.1,0,0,-0.1,0,275)"/>
<path style=" stroke:none;fill-rule:nonzero;fill:rgb(0%,0%,0%);fill-opacity:1;" d="M 8.441406 266.847656 C 8.511719 266.765625 8.570312 266.695312 8.570312 266.574219 C 8.570312 266.488281 8.558594 266.476562 8.285156 266.476562 L 3.347656 266.476562 C 3.074219 266.476562 3.058594 266.488281 2.988281 266.707031 L 2.332031 268.855469 C 2.296875 268.976562 2.296875 269 2.296875 269.023438 C 2.296875 269.074219 2.332031 269.144531 2.414062 269.144531 C 2.511719 269.144531 2.535156 269.097656 2.582031 268.941406 C 3.023438 267.648438 3.609375 266.824219 5.5 266.824219 L 7.460938 266.824219 L 0.90625 274.238281 C 0.800781 274.367188 0.753906 274.417969 0.753906 274.546875 C 0.753906 274.644531 0.8125 274.644531 1.039062 274.644531 L 6.144531 274.644531 C 6.417969 274.644531 6.429688 274.632812 6.503906 274.417969 L 7.339844 271.773438 C 7.351562 271.738281 7.375 271.65625 7.375 271.605469 C 7.375 271.546875 7.328125 271.488281 7.257812 271.488281 C 7.160156 271.488281 7.148438 271.5 7.054688 271.796875 C 6.550781 273.339844 6.023438 274.273438 3.945312 274.273438 L 1.875 274.273438 L 8.441406 266.847656 "/>
<path style="fill:none;stroke-width:5;stroke-linecap:round;stroke-linejoin:round;stroke:rgb(0%,0%,0%);stroke-opacity:1;stroke-miterlimit:10;" d="M 950.507812 2553.90625 L 950.507812 950.039062 " transform="matrix(0.1,0,0,-0.1,0,275)"/>
<path style=" stroke:none;fill-rule:nonzero;fill:rgb(0%,0%,0%);fill-opacity:1;" d="M 95.050781 12.109375 L 93.042969 19.609375 L 97.0625 19.609375 L 95.050781 12.109375 "/>
<path style="fill:none;stroke-width:5;stroke-linecap:round;stroke-linejoin:round;stroke:rgb(0%,0%,0%);stroke-opacity:1;stroke-miterlimit:10;" d="M 950.507812 2628.90625 L 930.429688 2553.90625 L 970.625 2553.90625 Z M 950.507812 2628.90625 " transform="matrix(0.1,0,0,-0.1,0,275)"/>
<path style=" stroke:none;fill-rule:nonzero;fill:rgb(0%,0%,0%);fill-opacity:1;" d="M 97.417969 1.683594 L 97.695312 1.410156 C 98.21875 0.871094 98.664062 0.738281 99.082031 0.703125 C 99.210938 0.691406 99.320312 0.679688 99.320312 0.476562 C 99.320312 0.355469 99.199219 0.355469 99.175781 0.355469 L 97.191406 0.355469 C 97.109375 0.355469 96.976562 0.355469 96.976562 0.585938 C 96.976562 0.691406 97.097656 0.703125 97.132812 0.703125 C 97.492188 0.726562 97.492188 0.90625 97.492188 0.976562 C 97.492188 1.109375 97.394531 1.289062 97.15625 1.5625 L 94.3125 4.828125 L 92.960938 1.191406 C 92.886719 1.027344 92.886719 1.003906 92.886719 0.976562 C 92.886719 0.726562 93.378906 0.703125 93.523438 0.703125 C 93.664062 0.703125 93.796875 0.703125 93.796875 0.488281 C 93.796875 0.355469 93.6875 0.355469 93.617188 0.355469 C 93.414062 0.355469 93.175781 0.378906 92.972656 0.378906 L 91.644531 0.378906 C 91.429688 0.378906 91.203125 0.355469 91 0.355469 C 90.914062 0.355469 90.785156 0.355469 90.785156 0.585938 C 90.785156 0.703125 90.890625 0.703125 91.070312 0.703125 C 91.65625 0.703125 91.765625 0.8125 91.871094 1.085938 L 93.355469 5.066406 C 93.367188 5.101562 93.402344 5.234375 93.402344 5.269531 C 93.402344 5.304688 92.816406 7.660156 92.78125 7.78125 C 92.683594 8.101562 92.566406 8.164062 91.800781 8.175781 C 91.597656 8.175781 91.5 8.175781 91.5 8.402344 C 91.5 8.523438 91.632812 8.523438 91.667969 8.523438 C 91.882812 8.523438 92.136719 8.496094 92.363281 8.496094 L 93.773438 8.496094 C 93.988281 8.496094 94.238281 8.523438 94.453125 8.523438 C 94.539062 8.523438 94.679688 8.523438 94.679688 8.304688 C 94.679688 8.175781 94.597656 8.175781 94.394531 8.175781 C 93.652344 8.175781 93.652344 8.089844 93.652344 7.960938 C 93.652344 7.875 93.75 7.492188 93.808594 7.253906 L 94.238281 5.53125 C 94.3125 5.28125 94.3125 5.257812 94.417969 5.136719 L 97.417969 1.683594 "/>
<path style="fill:none;stroke-width:5;stroke-linecap:round;stroke-linejoin:round;stroke:rgb(0%,0%,0%);stroke-opacity:1;stroke-miterlimit:10;" d="M 2554.414062 950.039062 L 950.507812 950.039062 " transform="matrix(0.1,0,0,-0.1,0,275)"/>
<path style=" stroke:none;fill-rule:nonzero;fill:rgb(0%,0%,0%);fill-opacity:1;" d="M 262.941406 179.996094 L 255.441406 177.988281 L 255.441406 182.007812 L 262.941406 179.996094 "/>
<path style="fill:none;stroke-width:5;stroke-linecap:round;stroke-linejoin:round;stroke:rgb(0%,0%,0%);stroke-opacity:1;stroke-miterlimit:10;" d="M 2629.414062 950.039062 L 2554.414062 970.117188 L 2554.414062 929.921875 Z M 2629.414062 950.039062 " transform="matrix(0.1,0,0,-0.1,0,275)"/>
<path style=" stroke:none;fill-rule:nonzero;fill:rgb(0%,0%,0%);fill-opacity:1;" d="M 271.90625 179.226562 L 270.785156 176.609375 C 270.9375 176.320312 271.296875 176.273438 271.441406 176.261719 C 271.511719 176.261719 271.644531 176.25 271.644531 176.046875 C 271.644531 175.914062 271.535156 175.914062 271.464844 175.914062 C 271.261719 175.914062 271.023438 175.9375 270.820312 175.9375 L 270.125 175.9375 C 269.398438 175.9375 268.871094 175.914062 268.859375 175.914062 C 268.761719 175.914062 268.644531 175.914062 268.644531 176.140625 C 268.644531 176.261719 268.753906 176.261719 268.90625 176.261719 C 269.601562 176.261719 269.648438 176.382812 269.769531 176.667969 L 271.191406 179.992188 L 268.597656 182.765625 C 268.164062 183.230469 267.652344 183.683594 266.765625 183.734375 C 266.621094 183.746094 266.527344 183.746094 266.527344 183.960938 C 266.527344 183.996094 266.539062 184.082031 266.671875 184.082031 L 268.917969 184.082031 C 269.003906 184.082031 269.144531 184.082031 269.144531 183.863281 C 269.144531 183.746094 269.0625 183.734375 268.992188 183.734375 C 268.753906 183.710938 268.597656 183.578125 268.597656 183.386719 C 268.597656 183.183594 268.738281 183.039062 269.085938 182.679688 L 270.148438 181.523438 C 270.414062 181.246094 271.046875 180.554688 271.308594 180.289062 L 272.566406 183.230469 C 272.578125 183.253906 272.625 183.375 272.625 183.386719 C 272.625 183.492188 272.363281 183.710938 271.980469 183.734375 C 271.90625 183.734375 271.777344 183.746094 271.777344 183.960938 C 271.777344 184.082031 271.894531 184.082031 271.953125 184.082031 C 272.160156 184.082031 272.398438 184.054688 272.601562 184.054688 L 273.914062 184.054688 C 274.132812 184.054688 274.359375 184.082031 274.5625 184.082031 C 274.644531 184.082031 274.777344 184.082031 274.777344 183.851562 C 274.777344 183.734375 274.65625 183.734375 274.550781 183.734375 C 273.832031 183.722656 273.808594 183.660156 273.605469 183.21875 L 272.027344 179.511719 L 273.546875 177.886719 C 273.664062 177.769531 273.941406 177.46875 274.046875 177.347656 C 274.5625 176.8125 275.039062 176.320312 276.007812 176.261719 C 276.128906 176.25 276.246094 176.25 276.246094 176.046875 C 276.246094 175.914062 276.140625 175.914062 276.09375 175.914062 L 273.855469 175.914062 C 273.773438 175.914062 273.628906 175.914062 273.628906 176.128906 C 273.628906 176.25 273.714844 176.261719 273.785156 176.261719 C 273.976562 176.285156 274.179688 176.382812 274.179688 176.609375 L 274.167969 176.632812 C 274.15625 176.714844 274.132812 176.835938 274 176.976562 L 271.90625 179.226562 "/>
</g>
</svg>
