<?xml version="1.0" encoding="UTF-8"?>
<svg xmlns="http://www.w3.org/2000/svg" xmlns:xlink="http://www.w3.org/1999/xlink" width="281pt" height="225pt" viewBox="0 0 281 225" version="1.1">
<g id="surface1">
<path style="fill:none;stroke-width:5;stroke-linecap:round;stroke-linejoin:round;stroke:rgb(0%,0%,0%);stroke-opacity:1;stroke-miterlimit:10;" d="M 683.554688 158.632812 L 1149.570312 587.617188 " transform="matrix(0.1,0,0,-0.1,0,225)"/>
<path style=" stroke:none;fill-rule:nonzero;fill:rgb(0%,0%,0%);fill-opacity:1;" d="M 62.839844 214.21875 L 69.71875 210.617188 L 66.996094 207.660156 L 62.839844 214.21875 "/>
<path style="fill:none;stroke-width:5;stroke-linecap:round;stroke-linejoin:round;stroke:rgb(0%,0%,0%);stroke-opacity:1;stroke-miterlimit:10;" d="M 628.398438 107.8125 L 697.1875 143.828125 L 669.960938 173.398438 Z M 628.398438 107.8125 " transform="matrix(0.1,0,0,-0.1,0,225)"/>
<path style=" stroke:none;fill-rule:nonzero;fill:rgb(0%,0%,0%);fill-opacity:1;" d="M 60.171875 217.125 C 60.242188 217.039062 60.304688 216.96875 60.304688 216.847656 C 60.304688 216.765625 60.292969 216.753906 60.015625 216.753906 L 55.078125 216.753906 C 54.804688 216.753906 54.792969 216.765625 54.71875 216.980469 L 54.0625 219.132812 C 54.027344 219.25 54.027344 219.277344 54.027344 219.300781 C 54.027344 219.347656 54.0625 219.417969 54.148438 219.417969 C 54.242188 219.417969 54.265625 219.371094 54.3125 219.214844 C 54.757812 217.925781 55.34375 217.101562 57.230469 217.101562 L 59.191406 217.101562 L 52.640625 224.511719 C 52.53125 224.644531 52.484375 224.691406 52.484375 224.824219 C 52.484375 224.917969 52.542969 224.917969 52.773438 224.917969 L 57.875 224.917969 C 58.152344 224.917969 58.164062 224.90625 58.234375 224.691406 L 59.074219 222.050781 C 59.085938 222.011719 59.109375 221.929688 59.109375 221.882812 C 59.109375 221.824219 59.058594 221.761719 58.988281 221.761719 C 58.894531 221.761719 58.882812 221.773438 58.785156 222.074219 C 58.28125 223.617188 57.757812 224.546875 55.675781 224.546875 L 53.609375 224.546875 L 60.171875 217.125 "/>
<path style="fill:none;stroke-width:5;stroke-linecap:round;stroke-linejoin:round;stroke:rgb(0%,0%,0%);stroke-opacity:1;stroke-miterlimit:10;" d="M 1149.570312 2037.851562 L 1149.570312 587.617188 " transform="matrix(0.1,0,0,-0.1,0,225)"/>
<path style=" stroke:none;fill-rule:nonzero;fill:rgb(0%,0%,0%);fill-opacity:1;" d="M 114.957031 13.714844 L 112.945312 21.214844 L 116.964844 21.214844 L 114.957031 13.714844 "/>
<path style="fill:none;stroke-width:5;stroke-linecap:round;stroke-linejoin:round;stroke:rgb(0%,0%,0%);stroke-opacity:1;stroke-miterlimit:10;" d="M 1149.570312 2112.851562 L 1129.453125 2037.851562 L 1169.648438 2037.851562 Z M 1149.570312 2112.851562 " transform="matrix(0.1,0,0,-0.1,0,225)"/>
<path style=" stroke:none;fill-rule:nonzero;fill:rgb(0%,0%,0%);fill-opacity:1;" d="M 102.296875 1.40625 L 102.570312 1.132812 C 103.097656 0.59375 103.539062 0.464844 103.960938 0.429688 C 104.089844 0.414062 104.199219 0.402344 104.199219 0.199219 C 104.199219 0.0820312 104.078125 0.0820312 104.054688 0.0820312 L 102.070312 0.0820312 C 101.984375 0.0820312 101.855469 0.0820312 101.855469 0.308594 C 101.855469 0.414062 101.972656 0.429688 102.011719 0.429688 C 102.367188 0.453125 102.367188 0.632812 102.367188 0.703125 C 102.367188 0.835938 102.273438 1.015625 102.035156 1.289062 L 99.1875 4.550781 L 97.835938 0.917969 C 97.765625 0.75 97.765625 0.726562 97.765625 0.703125 C 97.765625 0.453125 98.257812 0.429688 98.398438 0.429688 C 98.542969 0.429688 98.675781 0.429688 98.675781 0.210938 C 98.675781 0.0820312 98.566406 0.0820312 98.496094 0.0820312 C 98.292969 0.0820312 98.050781 0.105469 97.847656 0.105469 L 96.523438 0.105469 C 96.308594 0.105469 96.082031 0.0820312 95.878906 0.0820312 C 95.792969 0.0820312 95.660156 0.0820312 95.660156 0.308594 C 95.660156 0.429688 95.769531 0.429688 95.949219 0.429688 C 96.535156 0.429688 96.640625 0.535156 96.75 0.8125 L 98.230469 4.789062 C 98.242188 4.828125 98.28125 4.960938 98.28125 4.996094 C 98.28125 5.03125 97.695312 7.386719 97.65625 7.503906 C 97.5625 7.828125 97.441406 7.886719 96.675781 7.898438 C 96.472656 7.898438 96.378906 7.898438 96.378906 8.128906 C 96.378906 8.246094 96.511719 8.246094 96.546875 8.246094 C 96.761719 8.246094 97.011719 8.222656 97.238281 8.222656 L 98.652344 8.222656 C 98.867188 8.222656 99.117188 8.246094 99.332031 8.246094 C 99.414062 8.246094 99.558594 8.246094 99.558594 8.03125 C 99.558594 7.898438 99.476562 7.898438 99.273438 7.898438 C 98.53125 7.898438 98.53125 7.816406 98.53125 7.683594 C 98.53125 7.601562 98.625 7.21875 98.6875 6.980469 L 99.117188 5.257812 C 99.1875 5.007812 99.1875 4.984375 99.296875 4.863281 Z M 116.035156 4.371094 C 116.203125 4.371094 116.421875 4.371094 116.421875 4.15625 C 116.421875 3.929688 116.214844 3.929688 116.035156 3.929688 L 108.996094 3.929688 C 108.828125 3.929688 108.613281 3.929688 108.613281 4.144531 C 108.613281 4.371094 108.816406 4.371094 108.996094 4.371094 Z M 116.035156 6.597656 C 116.203125 6.597656 116.421875 6.597656 116.421875 6.382812 C 116.421875 6.152344 116.214844 6.152344 116.035156 6.152344 L 108.996094 6.152344 C 108.828125 6.152344 108.613281 6.152344 108.613281 6.371094 C 108.613281 6.597656 108.816406 6.597656 108.996094 6.597656 Z M 129.3125 1.335938 C 129.445312 0.820312 129.636719 0.464844 130.546875 0.429688 C 130.582031 0.429688 130.726562 0.414062 130.726562 0.210938 C 130.726562 0.0820312 130.617188 0.0820312 130.570312 0.0820312 L 128.355469 0.0820312 C 128.285156 0.0820312 128.144531 0.0820312 128.144531 0.308594 C 128.144531 0.429688 128.238281 0.429688 128.320312 0.429688 C 129.039062 0.453125 129.085938 0.726562 129.085938 0.941406 C 129.085938 1.050781 129.074219 1.085938 129.039062 1.253906 L 127.6875 6.644531 L 125.128906 0.285156 C 125.046875 0.09375 125.035156 0.0820312 124.769531 0.0820312 L 123.3125 0.0820312 C 123.074219 0.0820312 122.964844 0.0820312 122.964844 0.308594 C 122.964844 0.429688 123.050781 0.429688 123.277344 0.429688 C 123.335938 0.429688 124.042969 0.429688 124.042969 0.535156 C 124.042969 0.558594 124.019531 0.65625 124.007812 0.691406 L 122.414062 7.027344 C 122.273438 7.613281 121.984375 7.863281 121.195312 7.898438 C 121.136719 7.898438 121.015625 7.910156 121.015625 8.128906 C 121.015625 8.246094 121.136719 8.246094 121.171875 8.246094 L 123.371094 8.246094 C 123.457031 8.246094 123.589844 8.246094 123.589844 8.019531 C 123.589844 7.910156 123.46875 7.898438 123.421875 7.898438 C 123.027344 7.886719 122.644531 7.816406 122.644531 7.386719 C 122.644531 7.289062 122.667969 7.183594 122.691406 7.085938 L 124.304688 0.691406 C 124.378906 0.8125 124.378906 0.835938 124.425781 0.941406 L 127.269531 8.03125 C 127.328125 8.175781 127.355469 8.246094 127.460938 8.246094 C 127.578125 8.246094 127.59375 8.210938 127.640625 8.007812 Z M 133.859375 6.867188 C 133.507812 6.953125 133.492188 7.265625 133.492188 7.296875 C 133.492188 7.472656 133.628906 7.59375 133.804688 7.59375 C 133.980469 7.59375 134.25 7.457031 134.25 7.113281 C 134.25 6.660156 133.75 6.53125 133.453125 6.53125 C 133.078125 6.53125 132.777344 6.796875 132.59375 7.105469 C 132.417969 6.683594 132.003906 6.53125 131.675781 6.53125 C 130.808594 6.53125 130.320312 7.527344 130.320312 7.75 C 130.320312 7.824219 130.378906 7.855469 130.441406 7.855469 C 130.535156 7.855469 130.554688 7.816406 130.578125 7.71875 C 130.761719 7.136719 131.238281 6.753906 131.652344 6.753906 C 131.964844 6.753906 132.113281 6.976562 132.113281 7.265625 C 132.113281 7.425781 132.019531 7.789062 131.953125 8.046875 C 131.898438 8.277344 131.722656 8.984375 131.683594 9.136719 C 131.574219 9.566406 131.285156 9.902344 130.925781 9.902344 C 130.894531 9.902344 130.6875 9.902344 130.519531 9.789062 C 130.886719 9.703125 130.886719 9.367188 130.886719 9.359375 C 130.886719 9.179688 130.742188 9.066406 130.570312 9.066406 C 130.355469 9.066406 130.121094 9.25 130.121094 9.550781 C 130.121094 9.917969 130.511719 10.125 130.917969 10.125 C 131.34375 10.125 131.636719 9.808594 131.78125 9.550781 C 131.953125 9.941406 132.320312 10.125 132.703125 10.125 C 133.574219 10.125 134.050781 9.128906 134.050781 8.90625 C 134.050781 8.828125 133.988281 8.804688 133.933594 8.804688 C 133.835938 8.804688 133.820312 8.859375 133.796875 8.9375 C 133.636719 9.472656 133.183594 9.902344 132.71875 9.902344 C 132.457031 9.902344 132.265625 9.726562 132.265625 9.394531 C 132.265625 9.234375 132.3125 9.050781 132.425781 8.605469 C 132.480469 8.363281 132.65625 7.664062 132.695312 7.511719 C 132.808594 7.097656 133.085938 6.753906 133.445312 6.753906 C 133.484375 6.753906 133.691406 6.753906 133.859375 6.867188 "/>
<path style="fill:none;stroke-width:5;stroke-linecap:round;stroke-linejoin:round;stroke:rgb(0%,0%,0%);stroke-opacity:1;stroke-miterlimit:10;" d="M 2594.882812 467.851562 L 1149.570312 587.617188 " transform="matrix(0.1,0,0,-0.1,0,225)"/>
<path style=" stroke:none;fill-rule:nonzero;fill:rgb(0%,0%,0%);fill-opacity:1;" d="M 266.964844 178.835938 L 259.652344 176.210938 L 259.324219 180.21875 L 266.964844 178.835938 "/>
<path style="fill:none;stroke-width:5;stroke-linecap:round;stroke-linejoin:round;stroke:rgb(0%,0%,0%);stroke-opacity:1;stroke-miterlimit:10;" d="M 2669.648438 461.640625 L 2596.523438 487.890625 L 2593.242188 447.8125 Z M 2669.648438 461.640625 " transform="matrix(0.1,0,0,-0.1,0,225)"/>
<path style=" stroke:none;fill-rule:nonzero;fill:rgb(0%,0%,0%);fill-opacity:1;" d="M 275.929688 178.0625 L 274.804688 175.445312 C 274.960938 175.15625 275.320312 175.109375 275.464844 175.097656 C 275.535156 175.097656 275.664062 175.085938 275.664062 174.882812 C 275.664062 174.75 275.558594 174.75 275.488281 174.75 C 275.285156 174.75 275.046875 174.777344 274.839844 174.777344 L 274.148438 174.777344 C 273.417969 174.777344 272.894531 174.75 272.882812 174.75 C 272.785156 174.75 272.664062 174.75 272.664062 174.976562 C 272.664062 175.097656 272.773438 175.097656 272.929688 175.097656 C 273.621094 175.097656 273.671875 175.21875 273.789062 175.503906 L 275.210938 178.828125 L 272.617188 181.601562 C 272.1875 182.066406 271.671875 182.523438 270.789062 182.570312 C 270.644531 182.582031 270.550781 182.582031 270.550781 182.796875 C 270.550781 182.832031 270.5625 182.917969 270.691406 182.917969 L 272.941406 182.917969 C 273.023438 182.917969 273.167969 182.917969 273.167969 182.703125 C 273.167969 182.582031 273.085938 182.570312 273.011719 182.570312 C 272.773438 182.546875 272.617188 182.414062 272.617188 182.222656 C 272.617188 182.019531 272.761719 181.875 273.109375 181.519531 L 274.171875 180.359375 C 274.433594 180.082031 275.070312 179.390625 275.332031 179.128906 L 276.585938 182.066406 C 276.597656 182.09375 276.648438 182.210938 276.648438 182.222656 C 276.648438 182.332031 276.382812 182.546875 276 182.570312 C 275.929688 182.570312 275.796875 182.582031 275.796875 182.796875 C 275.796875 182.917969 275.917969 182.917969 275.976562 182.917969 C 276.179688 182.917969 276.421875 182.894531 276.621094 182.894531 L 277.9375 182.894531 C 278.152344 182.894531 278.378906 182.917969 278.585938 182.917969 C 278.667969 182.917969 278.800781 182.917969 278.800781 182.691406 C 278.800781 182.570312 278.679688 182.570312 278.570312 182.570312 C 277.855469 182.558594 277.828125 182.5 277.628906 182.054688 L 276.050781 178.351562 L 277.566406 176.722656 C 277.6875 176.605469 277.960938 176.304688 278.070312 176.1875 C 278.585938 175.648438 279.0625 175.15625 280.03125 175.097656 C 280.148438 175.085938 280.269531 175.085938 280.269531 174.882812 C 280.269531 174.75 280.160156 174.75 280.113281 174.75 L 277.878906 174.75 C 277.796875 174.75 277.652344 174.75 277.652344 174.96875 C 277.652344 175.085938 277.734375 175.097656 277.808594 175.097656 C 277.996094 175.121094 278.199219 175.21875 278.199219 175.445312 L 278.1875 175.46875 C 278.175781 175.550781 278.152344 175.671875 278.019531 175.816406 L 275.929688 178.0625 "/>
<path style="fill:none;stroke-width:5;stroke-linecap:round;stroke-linejoin:round;stroke:rgb(0%,0%,0%);stroke-opacity:1;stroke-dasharray:39.4045,39.4045;stroke-dashoffset:39.4045;stroke-miterlimit:10;" d="M 2289.296875 541.914062 C 2289.296875 544.414062 2289.375 546.914062 2289.296875 549.414062 C 2289.179688 551.953125 2288.945312 554.453125 2288.632812 556.914062 C 2288.28125 559.414062 2287.851562 561.914062 2287.34375 564.414062 C 2286.796875 566.914062 2286.171875 569.375 2285.429688 571.835938 C 2284.6875 574.335938 2283.828125 576.796875 2282.890625 579.21875 C 2281.953125 581.71875 2280.898438 584.140625 2279.765625 586.5625 C 2278.632812 589.0625 2277.382812 591.484375 2276.054688 593.867188 C 2274.6875 596.328125 2273.242188 598.75 2271.71875 601.132812 C 2270.15625 603.59375 2268.515625 605.976562 2266.796875 608.359375 C 2265.039062 610.78125 2263.203125 613.164062 2261.289062 615.507812 C 2259.335938 617.929688 2257.304688 620.3125 2255.195312 622.617188 C 2253.046875 625 2250.859375 627.34375 2248.554688 629.648438 C 2246.210938 632.03125 2243.828125 634.375 2241.367188 636.640625 C 2238.828125 639.023438 2236.210938 641.328125 2233.59375 643.59375 C 2230.859375 645.9375 2228.085938 648.203125 2225.273438 650.429688 C 2222.34375 652.773438 2219.375 655 2216.40625 657.265625 C 2211.992188 660.351562 2207.695312 663.554688 2203.203125 666.5625 C 2198.554688 669.726562 2193.828125 672.773438 2189.0625 675.742188 C 2184.101562 678.789062 2179.0625 681.796875 2173.984375 684.6875 C 2168.710938 687.695312 2163.359375 690.625 2157.96875 693.476562 C 2152.382812 696.445312 2146.757812 699.296875 2141.09375 702.070312 C 2135.234375 704.960938 2129.296875 707.773438 2123.359375 710.507812 C 2117.1875 713.320312 2111.015625 716.054688 2104.765625 718.710938 C 2098.359375 721.484375 2091.875 724.140625 2085.351562 726.757812 C 2078.671875 729.453125 2071.953125 732.070312 2065.195312 734.609375 C 2058.203125 737.226562 2051.210938 739.765625 2044.21875 742.226562 C 2036.992188 744.765625 2029.765625 747.265625 2022.460938 749.6875 C 2015.039062 752.148438 2007.539062 754.570312 2000.039062 756.914062 C 1992.304688 759.296875 1984.570312 761.640625 1976.835938 763.90625 C 1968.90625 766.25 1960.9375 768.515625 1952.96875 770.742188 C 1944.765625 773.007812 1936.601562 775.195312 1928.398438 777.34375 C 1920 779.53125 1911.5625 781.601562 1903.125 783.710938 C 1894.53125 785.78125 1885.9375 787.890625 1877.304688 789.882812 C 1868.554688 791.914062 1859.765625 793.867188 1850.9375 795.78125 C 1841.992188 797.734375 1833.046875 799.609375 1824.101562 801.445312 C 1815 803.320312 1805.898438 805.117188 1796.757812 806.875 C 1787.5 808.671875 1778.242188 810.390625 1768.945312 812.070312 C 1759.53125 813.75 1750.117188 815.390625 1740.703125 816.992188 C 1731.171875 818.59375 1721.601562 820.15625 1712.03125 821.679688 C 1702.34375 823.203125 1692.65625 824.6875 1682.96875 826.132812 C 1673.125 827.578125 1663.320312 828.984375 1653.476562 830.3125 C 1643.554688 831.679688 1633.59375 833.007812 1623.632812 834.257812 C 1613.59375 835.546875 1603.515625 836.796875 1593.4375 837.96875 C 1583.28125 839.179688 1573.085938 840.3125 1562.890625 841.40625 C 1552.617188 842.539062 1542.34375 843.59375 1532.03125 844.648438 C 1521.640625 845.664062 1511.25 846.640625 1500.859375 847.578125 C 1490.351562 848.515625 1479.84375 849.414062 1469.335938 850.273438 C 1458.789062 851.132812 1448.164062 851.914062 1437.578125 852.734375 C 1426.914062 853.476562 1416.25 854.21875 1405.585938 854.921875 C 1394.882812 855.625 1384.179688 856.25 1373.476562 856.835938 C 1362.734375 857.460938 1352.03125 858.007812 1341.289062 858.515625 C 1330.507812 859.023438 1319.726562 859.492188 1308.984375 859.921875 C 1298.164062 860.351562 1287.382812 860.742188 1276.601562 861.054688 C 1265.78125 861.40625 1254.960938 861.679688 1244.140625 861.953125 C 1233.320312 862.1875 1222.5 862.421875 1211.640625 862.578125 C 1200.820312 862.734375 1189.960938 862.851562 1179.140625 862.929688 C 1168.28125 863.007812 1157.421875 863.046875 1146.601562 863.046875 C 1135.742188 863.046875 1124.882812 862.96875 1114.023438 862.890625 C 1103.203125 862.8125 1092.34375 862.65625 1081.484375 862.460938 C 1070.664062 862.304688 1059.804688 862.070312 1048.984375 861.796875 C 1038.125 861.523438 1027.304688 861.210938 1016.484375 860.859375 C 1005.664062 860.507812 994.84375 860.117188 984.0625 859.6875 C 973.242188 859.21875 962.460938 858.75 951.679688 858.203125 C 940.898438 857.695312 930.15625 857.070312 919.375 856.484375 C 908.671875 855.820312 897.96875 855.234375 887.265625 854.53125 C 876.601562 853.828125 865.976562 853.085938 855.351562 852.265625 C 844.804688 851.484375 834.257812 850.664062 823.75 849.804688 C 813.28125 848.90625 802.851562 848.007812 792.382812 847.03125 C 782.03125 846.09375 771.679688 845.078125 761.328125 844.0625 C 751.054688 843.007812 740.820312 841.953125 730.546875 840.820312 C 720.390625 839.6875 710.273438 838.515625 700.117188 837.304688 C 690.078125 836.09375 680.039062 834.84375 670 833.554688 C 660.078125 832.265625 650.15625 830.9375 640.234375 829.570312 C 630.429688 828.203125 620.625 826.796875 610.820312 825.3125 C 601.132812 823.867188 591.484375 822.382812 581.796875 820.820312 C 572.226562 819.296875 562.695312 817.734375 553.164062 816.09375 C 543.75 814.492188 534.335938 812.8125 524.960938 811.09375 C 515.703125 809.414062 506.445312 807.695312 497.1875 805.859375 C 488.046875 804.101562 478.945312 802.265625 469.84375 800.390625 C 460.898438 798.515625 451.953125 796.5625 443.007812 794.648438 C 434.257812 792.65625 425.46875 790.742188 416.71875 788.671875 C 408.125 786.679688 399.570312 784.609375 391.015625 782.5 C 382.695312 780.429688 374.335938 778.28125 366.015625 776.09375 C 357.851562 773.945312 349.726562 771.757812 341.640625 769.453125 C 333.710938 767.265625 325.820312 764.960938 317.929688 762.617188 C 310.234375 760.351562 302.578125 758.007812 294.921875 755.585938 C 287.460938 753.242188 280.039062 750.820312 272.617188 748.320312 C 265.390625 745.898438 258.203125 743.398438 251.015625 740.859375 C 244.0625 738.359375 237.109375 735.820312 230.195312 733.164062 C 223.476562 730.625 216.796875 728.007812 210.15625 725.3125 C 203.710938 722.695312 197.265625 720 190.898438 717.226562 C 184.6875 714.570312 178.554688 711.796875 172.421875 708.945312 C 166.523438 706.210938 160.664062 703.398438 154.804688 700.507812 C 149.179688 697.695312 143.59375 694.804688 138.046875 691.835938 C 132.734375 688.984375 127.421875 686.015625 122.1875 683.007812 C 117.148438 680.078125 112.226562 676.953125 107.226562 673.945312 C 103.320312 671.40625 99.375 668.945312 95.507812 666.328125 C 91.796875 663.789062 88.125 661.210938 84.492188 658.554688 C 81.015625 656.015625 77.578125 653.398438 74.21875 650.742188 C 70.9375 648.164062 67.773438 645.507812 64.609375 642.8125 C 61.601562 640.195312 58.671875 637.539062 55.78125 634.804688 C 53.007812 632.148438 50.3125 629.453125 47.695312 626.679688 C 45.15625 624.023438 42.695312 621.328125 40.3125 618.515625 C 38.046875 615.820312 35.859375 613.085938 33.75 610.273438 C 31.71875 607.539062 29.765625 604.765625 27.929688 601.914062 C 26.132812 599.179688 24.453125 596.40625 22.890625 593.515625 C 21.367188 590.78125 19.960938 587.929688 18.671875 585.078125 C 17.382812 582.265625 16.25 579.414062 15.234375 576.5625 C 14.21875 573.710938 13.359375 570.859375 12.617188 567.96875 C 11.875 565.117188 11.289062 562.226562 10.820312 559.335938 C 10.390625 556.445312 10.078125 553.554688 9.921875 550.625 C 9.726562 547.734375 9.84375 544.804688 9.84375 541.914062 " transform="matrix(0.1,0,0,-0.1,0,225)"/>
<path style="fill:none;stroke-width:5;stroke-linecap:round;stroke-linejoin:round;stroke:rgb(0%,0%,0%);stroke-opacity:1;stroke-miterlimit:10;" d="M 9.84375 541.914062 C 9.84375 541.328125 9.882812 540.742188 9.921875 540.15625 C 9.960938 539.570312 10 538.984375 10.039062 538.398438 C 10.078125 537.8125 10.117188 537.1875 10.195312 536.601562 C 10.234375 536.015625 10.3125 535.429688 10.390625 534.84375 C 10.46875 534.257812 10.546875 533.671875 10.625 533.085938 C 10.703125 532.5 10.78125 531.914062 10.898438 531.328125 C 10.976562 530.742188 11.09375 530.15625 11.171875 529.53125 C 11.289062 528.945312 11.40625 528.359375 11.523438 527.773438 C 11.640625 527.1875 11.757812 526.601562 11.875 526.015625 C 12.03125 525.390625 12.148438 524.804688 12.304688 524.21875 C 12.421875 523.632812 12.578125 523.046875 12.734375 522.460938 C 12.890625 521.875 13.046875 521.25 13.242188 520.664062 C 13.398438 520.078125 13.554688 519.492188 13.75 518.90625 C 13.90625 518.320312 14.101562 517.695312 14.296875 517.109375 C 14.492188 516.523438 14.6875 515.9375 14.882812 515.351562 C 15.078125 514.726562 15.3125 514.140625 15.507812 513.554688 C 16.992188 510 18.320312 506.40625 20 502.929688 C 21.757812 499.296875 23.710938 495.78125 25.820312 492.34375 C 28.007812 488.710938 30.390625 485.195312 32.890625 481.757812 C 35.546875 478.125 38.359375 474.648438 41.328125 471.210938 C 44.414062 467.617188 47.65625 464.140625 51.015625 460.742188 C 54.609375 457.1875 58.28125 453.710938 62.070312 450.351562 C 66.054688 446.757812 70.195312 443.320312 74.414062 440 C 78.867188 436.484375 83.4375 433.046875 88.085938 429.726562 C 93.007812 426.25 98.007812 422.851562 103.085938 419.609375 C 108.4375 416.132812 113.90625 412.773438 119.414062 409.53125 C 125.195312 406.132812 131.09375 402.8125 137.03125 399.609375 C 143.320312 396.210938 149.609375 392.96875 156.015625 389.804688 C 162.695312 386.484375 169.492188 383.28125 176.289062 380.15625 C 183.4375 376.875 190.664062 373.710938 197.890625 370.664062 C 205.507812 367.460938 213.125 364.335938 220.820312 361.328125 C 228.867188 358.203125 236.992188 355.234375 245.078125 352.1875 C 253.554688 349.21875 262.03125 346.132812 270.546875 343.28125 C 279.414062 340.273438 288.28125 337.382812 297.1875 334.609375 C 306.445312 331.679688 315.703125 328.90625 325 326.171875 C 334.648438 323.359375 344.296875 320.664062 353.945312 318.007812 C 363.945312 315.3125 373.945312 312.695312 383.984375 310.15625 C 394.335938 307.539062 404.6875 305.039062 415.078125 302.578125 C 425.78125 300.078125 436.484375 297.65625 447.226562 295.3125 C 458.242188 292.890625 469.296875 290.585938 480.351562 288.359375 C 491.71875 286.054688 503.085938 283.867188 514.492188 281.71875 C 526.171875 279.53125 537.851562 277.421875 549.570312 275.429688 C 561.523438 273.359375 573.515625 271.367188 585.546875 269.453125 C 597.8125 267.539062 610.078125 265.664062 622.382812 263.867188 C 634.921875 262.03125 647.5 260.3125 660.039062 258.632812 C 672.851562 256.953125 685.703125 255.3125 698.515625 253.789062 C 711.5625 252.226562 724.648438 250.742188 737.734375 249.296875 C 751.015625 247.890625 764.335938 246.601562 777.65625 245.234375 C 791.171875 244.023438 804.648438 242.734375 818.164062 241.5625 C 831.796875 240.429688 845.46875 239.335938 859.101562 238.359375 C 872.851562 237.34375 886.640625 236.40625 900.429688 235.546875 C 914.296875 234.6875 928.203125 233.867188 942.070312 233.164062 C 956.054688 232.421875 970.039062 231.796875 984.023438 231.210938 C 998.046875 230.664062 1012.109375 230.15625 1026.171875 229.726562 C 1040.273438 229.296875 1054.375 228.945312 1068.515625 228.671875 C 1082.65625 228.398438 1096.796875 228.164062 1110.9375 228.046875 C 1125.117188 227.890625 1139.257812 227.851562 1153.4375 227.851562 C 1167.617188 227.851562 1181.796875 227.96875 1195.9375 228.125 C 1210.117188 228.28125 1224.257812 228.515625 1238.398438 228.828125 C 1252.539062 229.140625 1266.640625 229.492188 1280.742188 229.960938 C 1294.804688 230.429688 1308.867188 230.9375 1322.96875 231.5625 C 1336.953125 232.148438 1350.9375 232.8125 1364.921875 233.554688 C 1378.828125 234.335938 1392.734375 235.15625 1406.640625 236.054688 C 1420.429688 236.914062 1434.21875 237.96875 1448.007812 238.945312 C 1461.640625 240.039062 1475.3125 241.054688 1488.945312 242.265625 C 1502.382812 243.4375 1515.820312 244.6875 1529.257812 245.976562 C 1542.5 247.304688 1555.703125 248.671875 1568.945312 250.117188 C 1581.914062 251.5625 1594.921875 253.085938 1607.890625 254.648438 C 1620.664062 256.210938 1633.398438 257.851562 1646.132812 259.570312 C 1658.632812 261.25 1671.132812 263.007812 1683.59375 264.882812 C 1695.820312 266.679688 1708.046875 268.554688 1720.234375 270.546875 C 1732.1875 272.460938 1744.101562 274.453125 1756.015625 276.5625 C 1767.695312 278.59375 1779.296875 280.703125 1790.9375 282.890625 C 1802.265625 285.039062 1813.59375 287.265625 1824.882812 289.609375 C 1835.898438 291.875 1846.875 294.179688 1857.851562 296.640625 C 1868.554688 298.984375 1879.21875 301.445312 1889.84375 303.945312 C 1900.195312 306.40625 1910.507812 308.984375 1920.820312 311.601562 C 1930.820312 314.140625 1940.78125 316.796875 1950.703125 319.53125 C 1960.351562 322.1875 1969.921875 324.921875 1979.53125 327.773438 C 1988.789062 330.507812 1997.96875 333.4375 2007.1875 336.25 C 2016.015625 339.179688 2024.882812 341.992188 2033.671875 345 C 2042.109375 347.890625 2050.507812 350.859375 2058.867188 353.945312 C 2066.875 356.914062 2074.84375 359.960938 2082.773438 363.085938 C 2090.351562 366.09375 2097.890625 369.21875 2105.390625 372.421875 C 2112.539062 375.507812 2119.648438 378.671875 2126.71875 381.953125 C 2133.4375 385.078125 2140.117188 388.28125 2146.71875 391.601562 C 2153.007812 394.765625 2159.257812 398.046875 2165.429688 401.40625 C 2171.289062 404.609375 2177.070312 407.929688 2182.8125 411.367188 C 2188.242188 414.609375 2193.59375 417.96875 2198.867188 421.445312 C 2203.867188 424.726562 2208.789062 428.085938 2213.632812 431.601562 C 2218.203125 434.921875 2222.695312 438.359375 2227.070312 441.875 C 2231.210938 445.234375 2235.273438 448.671875 2239.21875 452.265625 C 2242.890625 455.625 2246.523438 459.101562 2250 462.695312 C 2253.28125 466.09375 2256.445312 469.609375 2259.492188 473.203125 C 2262.34375 476.640625 2265.117188 480.15625 2267.695312 483.789062 C 2270.117188 487.226562 2272.265625 490.859375 2274.53125 494.375 C 2275.117188 495.390625 2275.703125 496.367188 2276.25 497.382812 C 2276.796875 498.359375 2277.304688 499.335938 2277.8125 500.351562 C 2278.320312 501.367188 2278.828125 502.34375 2279.296875 503.359375 C 2279.765625 504.335938 2280.234375 505.3125 2280.703125 506.328125 C 2281.132812 507.304688 2281.5625 508.320312 2281.953125 509.296875 C 2282.382812 510.273438 2282.773438 511.289062 2283.125 512.265625 C 2283.515625 513.28125 2283.867188 514.257812 2284.21875 515.273438 C 2284.53125 516.25 2284.882812 517.226562 2285.195312 518.242188 C 2285.46875 519.21875 2285.78125 520.195312 2286.054688 521.210938 C 2286.328125 522.1875 2286.5625 523.164062 2286.796875 524.179688 C 2287.03125 525.15625 2287.265625 526.132812 2287.460938 527.109375 C 2287.695312 528.125 2287.851562 529.101562 2288.046875 530.078125 C 2288.203125 531.054688 2288.359375 532.070312 2288.515625 533.046875 C 2288.632812 534.023438 2288.75 535 2288.867188 536.015625 C 2288.984375 536.992188 2289.0625 537.96875 2289.140625 538.945312 C 2289.21875 539.921875 2289.257812 540.898438 2289.296875 541.914062 " transform="matrix(0.1,0,0,-0.1,0,225)"/>
<path style="fill:none;stroke-width:5;stroke-linecap:round;stroke-linejoin:round;stroke:rgb(0%,0%,0%);stroke-opacity:1;stroke-miterlimit:10;" d="M 1149.570312 1716.445312 L 1149.570312 1716.445312 " transform="matrix(0.1,0,0,-0.1,0,225)"/>
<path style="fill:none;stroke-width:5;stroke-linecap:round;stroke-linejoin:round;stroke:rgb(0%,0%,0%);stroke-opacity:1;stroke-dasharray:40,40;stroke-dashoffset:40;stroke-miterlimit:10;" d="M 2289.296875 541.914062 L 2289.296875 541.914062 " transform="matrix(0.1,0,0,-0.1,0,225)"/>
<path style="fill:none;stroke-width:5;stroke-linecap:round;stroke-linejoin:round;stroke:rgb(0%,0%,0%);stroke-opacity:1;stroke-dasharray:40,40;stroke-dashoffset:40;stroke-miterlimit:10;" d="M 9.84375 541.914062 L 9.84375 541.914062 " transform="matrix(0.1,0,0,-0.1,0,225)"/>
<path style="fill:none;stroke-width:5;stroke-linecap:round;stroke-linejoin:round;stroke:rgb(0%,0%,0%);stroke-opacity:1;stroke-miterlimit:10;" d="M 2289.296875 541.914062 C 2288.828125 579.804688 2290.3125 617.773438 2287.8125 655.585938 C 2285.351562 692.96875 2280.898438 730.3125 2274.53125 767.226562 C 2268.203125 803.945312 2259.882812 840.351562 2249.804688 876.210938 C 2239.765625 911.914062 2227.851562 947.1875 2214.21875 981.71875 C 2200.625 1016.210938 2185.195312 1050.078125 2168.242188 1083.046875 C 2151.210938 1116.054688 2132.539062 1148.28125 2112.382812 1179.492188 C 2092.1875 1210.742188 2070.390625 1241.09375 2047.265625 1270.273438 C 2024.023438 1299.570312 1999.375 1327.773438 1973.4375 1354.6875 C 1947.382812 1381.757812 1920.039062 1407.578125 1891.5625 1432.03125 C 1862.929688 1456.5625 1833.085938 1479.804688 1802.265625 1501.523438 C 1771.210938 1523.359375 1739.140625 1543.789062 1706.210938 1562.539062 C 1673.046875 1581.40625 1638.945312 1598.710938 1604.101562 1614.296875 C 1568.984375 1630 1533.085938 1644.023438 1496.640625 1656.210938 C 1459.84375 1668.515625 1422.382812 1679.0625 1384.570312 1687.617188 C 1346.289062 1696.289062 1307.578125 1703.125 1268.632812 1707.890625 C 1229.140625 1712.734375 1189.257812 1713.59375 1149.570312 1716.445312 " transform="matrix(0.1,0,0,-0.1,0,225)"/>
<path style="fill:none;stroke-width:5;stroke-linecap:round;stroke-linejoin:round;stroke:rgb(0%,0%,0%);stroke-opacity:1;stroke-miterlimit:10;" d="M 9.84375 541.914062 C 10.3125 579.804688 8.828125 617.773438 11.289062 655.585938 C 13.75 692.96875 18.242188 730.3125 24.609375 767.265625 C 30.9375 803.945312 39.21875 840.351562 49.296875 876.210938 C 59.335938 911.953125 71.289062 947.1875 84.921875 981.71875 C 98.515625 1016.210938 113.90625 1050.078125 130.898438 1083.046875 C 147.890625 1116.09375 166.5625 1148.28125 186.757812 1179.492188 C 206.953125 1210.78125 228.710938 1241.09375 251.875 1270.273438 C 275.117188 1299.570312 299.765625 1327.773438 325.703125 1354.6875 C 351.71875 1381.757812 379.0625 1407.578125 407.578125 1432.03125 C 436.210938 1456.601562 466.015625 1479.804688 496.875 1501.523438 C 527.890625 1523.359375 559.960938 1543.789062 592.929688 1562.539062 C 626.09375 1581.40625 660.195312 1598.710938 695.039062 1614.296875 C 730.15625 1630 766.015625 1644.0625 802.5 1656.210938 C 839.296875 1668.515625 876.71875 1679.0625 914.570312 1687.617188 C 952.8125 1696.289062 991.5625 1703.125 1030.507812 1707.890625 C 1070 1712.734375 1109.882812 1713.59375 1149.570312 1716.445312 " transform="matrix(0.1,0,0,-0.1,0,225)"/>
<path style="fill:none;stroke-width:5;stroke-linecap:round;stroke-linejoin:round;stroke:rgb(0%,0%,0%);stroke-opacity:1;stroke-miterlimit:10;" d="M 446.054688 645.898438 L 446.054688 645.898438 " transform="matrix(0.1,0,0,-0.1,0,225)"/>
<path style=" stroke:none;fill-rule:nonzero;fill:rgb(0%,0%,0%);fill-opacity:1;" d="M 60.902344 155.742188 C 60.914062 155.695312 60.9375 155.621094 60.9375 155.5625 C 60.9375 155.441406 60.816406 155.441406 60.792969 155.441406 C 60.78125 155.441406 60.195312 155.492188 60.136719 155.503906 C 59.933594 155.515625 59.753906 155.539062 59.539062 155.550781 C 59.238281 155.574219 59.15625 155.585938 59.15625 155.800781 C 59.15625 155.921875 59.25 155.921875 59.417969 155.921875 C 60.003906 155.921875 60.015625 156.027344 60.015625 156.148438 C 60.015625 156.21875 59.992188 156.316406 59.980469 156.351562 L 59.25 159.257812 C 59.121094 158.945312 58.796875 158.46875 58.175781 158.46875 C 56.824219 158.46875 55.367188 160.214844 55.367188 161.980469 C 55.367188 163.164062 56.058594 163.859375 56.871094 163.859375 C 57.53125 163.859375 58.089844 163.34375 58.425781 162.949219 C 58.546875 163.65625 59.109375 163.859375 59.464844 163.859375 C 59.824219 163.859375 60.113281 163.644531 60.328125 163.214844 C 60.519531 162.808594 60.6875 162.078125 60.6875 162.03125 C 60.6875 161.96875 60.636719 161.921875 60.566406 161.921875 C 60.457031 161.921875 60.445312 161.980469 60.398438 162.160156 C 60.21875 162.867188 59.992188 163.621094 59.503906 163.621094 C 59.15625 163.621094 59.132812 163.308594 59.132812 163.070312 C 59.132812 163.023438 59.132812 162.773438 59.214844 162.4375 Z M 58.484375 162.316406 C 58.425781 162.519531 58.425781 162.542969 58.257812 162.773438 C 57.996094 163.105469 57.46875 163.621094 56.90625 163.621094 C 56.417969 163.621094 56.144531 163.179688 56.144531 162.472656 C 56.144531 161.816406 56.511719 160.476562 56.742188 159.972656 C 57.148438 159.136719 57.710938 158.707031 58.175781 158.707031 C 58.964844 158.707031 59.121094 159.6875 59.121094 159.78125 C 59.121094 159.792969 59.082031 159.949219 59.070312 159.972656 Z M 63.019531 162.414062 C 62.601562 163.117188 62.195312 163.355469 61.621094 163.394531 C 61.488281 163.40625 61.394531 163.40625 61.394531 163.621094 C 61.394531 163.691406 61.453125 163.738281 61.539062 163.738281 L 63.570312 163.738281 C 63.640625 163.738281 63.785156 163.738281 63.785156 163.511719 C 63.785156 163.40625 63.691406 163.394531 63.617188 163.394531 C 63.34375 163.367188 63.117188 163.273438 63.117188 162.988281 C 63.117188 162.820312 63.1875 162.6875 63.34375 162.425781 L 64.25 160.917969 L 67.300781 160.917969 C 67.3125 161.027344 67.3125 161.121094 67.324219 161.230469 C 67.359375 161.539062 67.503906 162.785156 67.503906 163.011719 C 67.503906 163.367188 66.894531 163.394531 66.703125 163.394531 C 66.570312 163.394531 66.4375 163.394531 66.4375 163.609375 C 66.4375 163.738281 66.546875 163.738281 66.617188 163.738281 C 66.820312 163.738281 67.058594 163.714844 67.265625 163.714844 L 67.945312 163.714844 C 68.675781 163.714844 69.199219 163.738281 69.210938 163.738281 C 69.296875 163.738281 69.425781 163.738281 69.425781 163.511719 C 69.425781 163.394531 69.320312 163.394531 69.140625 163.394531 C 68.484375 163.394531 68.472656 163.285156 68.433594 162.925781 L 67.707031 155.46875 C 67.683594 155.226562 67.636719 155.203125 67.503906 155.203125 C 67.382812 155.203125 67.3125 155.226562 67.203125 155.40625 Z M 64.453125 160.570312 L 66.855469 156.554688 L 67.265625 160.570312 Z M 73.78125 162.359375 C 73.429688 162.449219 73.414062 162.757812 73.414062 162.789062 C 73.414062 162.964844 73.550781 163.085938 73.722656 163.085938 C 73.898438 163.085938 74.171875 162.949219 74.171875 162.605469 C 74.171875 162.152344 73.667969 162.023438 73.375 162.023438 C 73 162.023438 72.695312 162.289062 72.511719 162.597656 C 72.339844 162.175781 71.921875 162.023438 71.597656 162.023438 C 70.726562 162.023438 70.242188 163.019531 70.242188 163.246094 C 70.242188 163.316406 70.296875 163.347656 70.359375 163.347656 C 70.457031 163.347656 70.472656 163.308594 70.496094 163.210938 C 70.679688 162.632812 71.15625 162.246094 71.574219 162.246094 C 71.882812 162.246094 72.035156 162.472656 72.035156 162.757812 C 72.035156 162.917969 71.941406 163.285156 71.875 163.539062 C 71.820312 163.769531 71.644531 164.480469 71.605469 164.632812 C 71.492188 165.0625 71.207031 165.398438 70.847656 165.398438 C 70.816406 165.398438 70.609375 165.398438 70.441406 165.285156 C 70.808594 165.199219 70.808594 164.863281 70.808594 164.855469 C 70.808594 164.671875 70.664062 164.558594 70.488281 164.558594 C 70.273438 164.558594 70.042969 164.742188 70.042969 165.046875 C 70.042969 165.414062 70.433594 165.621094 70.839844 165.621094 C 71.261719 165.621094 71.558594 165.300781 71.699219 165.046875 C 71.875 165.4375 72.242188 165.621094 72.625 165.621094 C 73.492188 165.621094 73.972656 164.625 73.972656 164.398438 C 73.972656 164.320312 73.90625 164.296875 73.851562 164.296875 C 73.757812 164.296875 73.742188 164.351562 73.71875 164.433594 C 73.558594 164.964844 73.101562 165.398438 72.640625 165.398438 C 72.378906 165.398438 72.1875 165.222656 72.1875 164.886719 C 72.1875 164.726562 72.234375 164.542969 72.347656 164.097656 C 72.402344 163.859375 72.578125 163.15625 72.617188 163.003906 C 72.726562 162.589844 73.007812 162.246094 73.367188 162.246094 C 73.40625 162.246094 73.613281 162.246094 73.78125 162.359375 "/>
<path style="fill:none;stroke-width:5;stroke-linecap:round;stroke-linejoin:round;stroke:rgb(0%,0%,0%);stroke-opacity:1;stroke-miterlimit:10;" d="M 793.398438 617.109375 C 789.84375 613.710938 785.9375 610.703125 782.734375 606.992188 C 780.039062 603.867188 777.65625 600.46875 775.859375 596.757812 C 774.296875 593.554688 773.164062 590.078125 772.734375 586.523438 C 772.304688 583.125 772.539062 579.609375 773.28125 576.289062 C 774.101562 572.773438 775.625 569.335938 777.460938 566.210938 C 779.609375 562.617188 782.265625 559.296875 785.195312 556.289062 C 788.59375 552.734375 792.382812 549.53125 796.367188 546.601562 C 800.976562 543.164062 805.859375 540.078125 810.898438 537.226562 C 816.679688 533.945312 822.65625 531.015625 828.75 528.28125 C 835.625 525.195312 842.65625 522.382812 849.765625 519.804688 C 857.734375 516.914062 865.78125 514.296875 873.90625 511.875 C 882.851562 509.21875 891.914062 506.796875 900.976562 504.609375 C 910.9375 502.1875 920.898438 500.039062 930.9375 498.046875 C 941.796875 495.9375 952.695312 494.023438 963.632812 492.304688 C 975.351562 490.46875 987.109375 488.867188 998.867188 487.460938 C 1011.40625 485.976562 1023.984375 484.882812 1036.5625 483.59375 C 1049.570312 482.65625 1062.578125 481.523438 1075.585938 480.820312 C 1088.59375 480.078125 1101.640625 479.570312 1114.726562 479.21875 C 1127.695312 478.867188 1140.664062 478.710938 1153.671875 478.75 C 1166.484375 478.789062 1179.296875 479.023438 1192.148438 479.414062 C 1204.6875 479.804688 1217.265625 480.390625 1229.804688 481.132812 C 1242.03125 481.875 1254.257812 482.8125 1266.445312 483.90625 C 1278.203125 484.960938 1289.960938 486.210938 1301.71875 487.65625 C 1312.929688 489.023438 1324.140625 490.546875 1335.3125 492.304688 C 1345.9375 493.984375 1356.523438 495.820312 1367.03125 497.890625 C 1376.953125 499.804688 1386.796875 501.914062 1396.601562 504.257812 C 1405.703125 506.445312 1414.765625 508.828125 1423.75 511.445312 C 1431.953125 513.867188 1440.15625 516.484375 1448.203125 519.375 C 1455.507812 521.992188 1462.695312 524.804688 1469.804688 527.96875 C 1476.054688 530.742188 1482.265625 533.789062 1488.242188 537.1875 C 1493.4375 540.15625 1498.554688 543.359375 1503.359375 546.992188 C 1507.460938 550.117188 1511.054688 553.867188 1514.882812 557.34375 C 1517.460938 560.859375 1520.507812 564.0625 1522.578125 567.890625 C 1524.296875 571.132812 1525.585938 574.726562 1526.210938 578.359375 C 1526.796875 581.757812 1526.71875 585.3125 1526.054688 588.671875 C 1525.351562 592.226562 1523.984375 595.625 1522.265625 598.789062 C 1520.273438 602.34375 1517.773438 605.625 1515 608.59375 C 1511.796875 612.109375 1508.242188 615.234375 1504.492188 618.125 C 1500.15625 621.445312 1495.585938 624.453125 1490.859375 627.226562 C 1485.507812 630.390625 1479.960938 633.242188 1474.335938 635.898438 C 1467.96875 638.867188 1461.523438 641.5625 1454.960938 644.0625 C 1447.734375 646.835938 1440.390625 649.375 1433.007812 651.679688 C 1424.921875 654.257812 1416.757812 656.5625 1408.554688 658.710938 C 1399.6875 661.054688 1390.742188 663.164062 1381.757812 665.117188 C 1372.109375 667.1875 1362.421875 669.0625 1352.695312 670.78125 C 1342.34375 672.617188 1331.953125 674.257812 1321.5625 675.742188 C 1310.546875 677.304688 1299.492188 678.671875 1288.4375 679.882812 C 1276.757812 681.132812 1265.039062 682.070312 1253.359375 683.164062 C 1241.367188 683.945312 1229.375 684.882812 1217.382812 685.507812 C 1205.429688 686.09375 1193.4375 686.5625 1181.484375 686.835938 C 1169.609375 687.109375 1157.695312 687.226562 1145.820312 687.226562 C 1134.0625 687.1875 1122.304688 686.992188 1110.585938 686.640625 C 1099.023438 686.328125 1087.5 685.859375 1075.976562 685.195312 C 1064.6875 684.570312 1053.4375 683.828125 1042.148438 682.890625 C 1031.210938 681.992188 1020.273438 680.9375 1009.335938 679.726562 C 998.789062 678.554688 988.242188 677.226562 977.734375 675.742188 C 967.617188 674.296875 957.539062 672.734375 947.5 670.9375 C 937.929688 669.257812 928.359375 667.421875 918.867188 665.390625 C 909.882812 663.476562 900.9375 661.40625 892.070312 659.101562 C 883.75 656.953125 875.46875 654.648438 867.304688 652.109375 C 859.726562 649.726562 852.226562 647.1875 844.804688 644.335938 C 838.046875 641.796875 831.367188 639.023438 824.804688 635.9375 C 818.945312 633.164062 813.164062 630.195312 807.617188 626.835938 C 802.695312 623.90625 798.125 620.351562 793.398438 617.109375 Z M 793.398438 617.109375 " transform="matrix(0.1,0,0,-0.1,0,225)"/>
<path style="fill:none;stroke-width:5;stroke-linecap:round;stroke-linejoin:round;stroke:rgb(100%,50%,0%);stroke-opacity:1;stroke-miterlimit:10;" d="M 1594.765625 1179.765625 L 1149.570312 587.617188 " transform="matrix(0.1,0,0,-0.1,0,225)"/>
<path style=" stroke:none;fill-rule:nonzero;fill:rgb(100%,50%,0%);fill-opacity:1;" d="M 163.980469 101.027344 L 157.867188 105.816406 L 161.082031 108.230469 L 163.980469 101.027344 "/>
<path style="fill:none;stroke-width:5;stroke-linecap:round;stroke-linejoin:round;stroke:rgb(100%,50%,0%);stroke-opacity:1;stroke-miterlimit:10;" d="M 1639.804688 1239.726562 L 1578.671875 1191.835938 L 1610.820312 1167.695312 Z M 1639.804688 1239.726562 " transform="matrix(0.1,0,0,-0.1,0,225)"/>
<path style=" stroke:none;fill-rule:nonzero;fill:rgb(100%,50%,0%);fill-opacity:1;" d="M 175.8125 90.324219 C 175.8125 89.824219 175.675781 89.1875 175.070312 89.1875 C 174.726562 89.1875 174.332031 89.617188 174.332031 89.960938 C 174.332031 90.117188 174.398438 90.21875 174.539062 90.375 C 174.796875 90.667969 175.121094 91.132812 175.121094 91.941406 C 175.121094 92.5625 174.746094 93.542969 174.46875 94.074219 C 173.988281 95.023438 173.195312 95.832031 172.300781 95.832031 C 171.214844 95.832031 170.800781 95.144531 170.613281 94.179688 C 170.800781 93.730469 171.199219 92.613281 171.199219 92.164062 C 171.199219 91.976562 171.128906 91.820312 170.90625 91.820312 C 170.785156 91.820312 170.648438 91.890625 170.5625 92.027344 C 170.320312 92.40625 170.097656 93.765625 170.113281 94.128906 C 169.785156 94.765625 168.855469 95.832031 167.753906 95.832031 C 166.601562 95.832031 166.292969 94.816406 166.292969 93.835938 C 166.292969 92.042969 167.410156 90.476562 167.722656 90.046875 C 167.894531 89.789062 168.011719 89.617188 168.011719 89.582031 C 168.011719 89.460938 167.945312 89.273438 167.789062 89.273438 C 167.515625 89.273438 167.429688 89.496094 167.289062 89.703125 C 166.410156 91.0625 165.792969 92.972656 165.792969 94.628906 C 165.792969 95.695312 166.1875 96.96875 167.480469 96.96875 C 168.910156 96.96875 169.804688 95.746094 170.164062 95.089844 C 170.304688 96.054688 170.820312 96.96875 172.074219 96.96875 C 173.382812 96.96875 174.210938 95.8125 174.828125 94.421875 C 175.277344 93.421875 175.8125 91.269531 175.8125 90.324219 "/>
<path style="fill:none;stroke-width:5;stroke-linecap:round;stroke-linejoin:round;stroke:rgb(100%,0%,0%);stroke-opacity:1;stroke-dasharray:0,20.0213;stroke-miterlimit:10;" d="M 1149.570312 1716.445312 C 1171.796875 1709.53125 1194.648438 1704.414062 1216.289062 1695.742188 C 1239.101562 1686.523438 1261.25 1675.46875 1282.5 1663.007812 C 1305.195312 1649.6875 1326.953125 1634.726562 1347.773438 1618.59375 C 1370.039062 1601.289062 1391.289062 1582.617188 1411.523438 1562.929688 C 1433.164062 1541.875 1453.671875 1519.648438 1473.164062 1496.5625 C 1493.945312 1471.992188 1513.59375 1446.40625 1532.1875 1420.117188 C 1551.875 1392.226562 1570.46875 1363.554688 1587.929688 1334.21875 C 1606.367188 1303.359375 1623.632812 1271.796875 1639.804688 1239.726562 C 1656.757812 1206.171875 1672.539062 1172.03125 1687.265625 1137.421875 C 1702.5 1101.5625 1716.601562 1065.15625 1729.609375 1028.398438 C 1743.007812 990.507812 1755.234375 952.1875 1766.328125 913.554688 C 1777.65625 874.0625 1787.851562 834.21875 1796.835938 794.140625 C 1805.976562 753.4375 1813.945312 712.421875 1820.625 671.25 C 1827.382812 629.726562 1832.96875 587.96875 1837.226562 546.132812 C 1841.484375 504.21875 1844.53125 462.148438 1846.210938 420.039062 C 1847.851562 378.164062 1846.875 336.210938 1847.226562 294.296875 " transform="matrix(0.1,0,0,-0.1,0,225)"/>
<path style="fill:none;stroke-width:5;stroke-linecap:round;stroke-linejoin:round;stroke:rgb(100%,0%,0%);stroke-opacity:1;stroke-dasharray:0,19.8119;stroke-miterlimit:10;" d="M 1149.570312 587.617188 L 2008.164062 226.640625 " transform="matrix(0.1,0,0,-0.1,0,225)"/>
<path style="fill:none;stroke-width:5;stroke-linecap:round;stroke-linejoin:round;stroke:rgb(0%,0%,100%);stroke-opacity:1;stroke-miterlimit:10;" d="M 2081.09375 244.140625 C 2089.960938 246.40625 2098.789062 248.75 2107.617188 251.171875 C 2123.046875 255.351562 2138.476562 259.726562 2153.789062 264.335938 C 2168.4375 268.710938 2183.046875 273.28125 2197.539062 278.046875 C 2211.367188 282.617188 2225.117188 287.34375 2238.789062 292.34375 C 2251.71875 297.03125 2264.609375 301.953125 2277.382812 307.070312 C 2289.453125 311.953125 2301.484375 316.992188 2313.359375 322.304688 C 2324.53125 327.265625 2335.664062 332.5 2346.640625 337.929688 C 2356.914062 343.046875 2367.109375 348.398438 2377.148438 353.984375 C 2386.484375 359.21875 2395.742188 364.6875 2404.804688 370.390625 C 2413.28125 375.742188 2421.5625 381.289062 2429.6875 387.148438 C 2437.1875 392.578125 2444.53125 398.242188 2451.640625 404.179688 C 2458.242188 409.6875 2464.648438 415.46875 2470.742188 421.523438 C 2476.40625 427.109375 2481.796875 432.96875 2486.875 439.0625 C 2491.601562 444.765625 2496.054688 450.703125 2500.078125 456.875 C 2503.867188 462.65625 2506.914062 468.867188 2510.3125 474.84375 " transform="matrix(0.1,0,0,-0.1,0,225)"/>
<path style=" stroke:none;fill-rule:nonzero;fill:rgb(0%,0%,100%);fill-opacity:1;" d="M 200.816406 202.339844 C 202.558594 202.394531 204.296875 202.46875 206.039062 202.503906 C 206.898438 202.523438 207.757812 202.535156 208.613281 202.542969 L 207.605469 198.636719 C 206.878906 199.046875 206.148438 199.457031 205.417969 199.863281 C 203.894531 200.703125 202.351562 201.511719 200.816406 202.339844 "/>
<path style="fill:none;stroke-width:5;stroke-linecap:round;stroke-linejoin:round;stroke:rgb(0%,0%,100%);stroke-opacity:1;stroke-miterlimit:10;" d="M 2008.164062 226.601562 C 2025.585938 226.054688 2042.96875 225.3125 2060.390625 224.960938 C 2068.984375 224.765625 2077.578125 224.648438 2086.132812 224.570312 L 2076.054688 263.632812 C 2068.789062 259.53125 2061.484375 255.429688 2054.179688 251.367188 C 2038.945312 242.96875 2023.515625 234.882812 2008.164062 226.601562 Z M 2008.164062 226.601562 " transform="matrix(0.1,0,0,-0.1,0,225)"/>
<path style=" stroke:none;fill-rule:nonzero;fill:rgb(0%,0%,100%);fill-opacity:1;" d="M 237.316406 196.210938 C 237.316406 196.054688 237.195312 196.054688 237.144531 196.054688 C 236.988281 196.054688 236.972656 196.089844 236.902344 196.382812 L 235.972656 200.085938 C 235.921875 200.308594 235.902344 200.328125 235.886719 200.34375 C 235.871094 200.378906 235.75 200.394531 235.714844 200.394531 C 232.890625 200.636719 230.722656 202.960938 230.722656 205.113281 C 230.722656 206.972656 232.152344 208.105469 233.941406 208.210938 C 233.804688 208.746094 233.683594 209.296875 233.546875 209.828125 C 233.304688 210.742188 233.167969 211.308594 233.167969 211.378906 C 233.167969 211.414062 233.167969 211.515625 233.339844 211.515625 C 233.390625 211.515625 233.460938 211.515625 233.492188 211.449219 C 233.527344 211.414062 233.632812 211 233.699219 210.777344 L 234.339844 208.210938 C 237.28125 208.054688 239.519531 205.644531 239.519531 203.476562 C 239.519531 201.738281 238.210938 200.5 236.300781 200.378906 Z M 236.195312 200.722656 C 237.332031 200.789062 238.46875 201.429688 238.46875 203.113281 C 238.46875 205.058594 237.109375 207.644531 234.425781 207.847656 Z M 234.027344 207.867188 C 233.183594 207.816406 231.773438 207.367188 231.773438 205.472656 C 231.773438 203.304688 233.339844 200.894531 235.816406 200.738281 L 234.027344 207.867188 "/>
<path style="fill:none;stroke-width:5;stroke-linecap:round;stroke-linejoin:round;stroke:rgb(0%,0%,100%);stroke-opacity:1;stroke-miterlimit:10;" d="M 1428.789062 1072.070312 C 1423.984375 1080.3125 1419.101562 1088.4375 1414.0625 1096.523438 C 1408.242188 1105.820312 1402.304688 1115.039062 1396.132812 1124.140625 C 1390.15625 1132.96875 1384.023438 1141.71875 1377.695312 1150.3125 C 1371.523438 1158.710938 1365.195312 1166.953125 1358.710938 1175.078125 C 1352.382812 1182.96875 1345.9375 1190.703125 1339.257812 1198.28125 C 1332.8125 1205.625 1326.171875 1212.851562 1319.375 1219.921875 C 1312.773438 1226.757812 1306.054688 1233.4375 1299.101562 1239.921875 C 1292.382812 1246.210938 1285.546875 1252.34375 1278.476562 1258.242188 C 1271.679688 1263.984375 1264.6875 1269.53125 1257.578125 1274.84375 C 1250.625 1280 1243.554688 1284.960938 1236.367188 1289.648438 C 1229.335938 1294.21875 1222.1875 1298.59375 1214.921875 1302.65625 C 1207.851562 1306.640625 1200.625 1310.351562 1193.28125 1313.789062 C 1186.132812 1317.148438 1178.867188 1320.234375 1171.484375 1323.046875 C 1164.296875 1325.78125 1156.875 1327.890625 1149.570312 1330.351562 " transform="matrix(0.1,0,0,-0.1,0,225)"/>
<path style=" stroke:none;fill-rule:nonzero;fill:rgb(0%,0%,100%);fill-opacity:1;" d="M 146.40625 124.410156 C 146.164062 123.257812 145.941406 122.101562 145.683594 120.957031 C 145.425781 119.835938 145.152344 118.714844 144.859375 117.601562 C 144.789062 117.324219 144.714844 117.046875 144.636719 116.769531 L 141.132812 118.808594 C 141.304688 118.972656 141.472656 119.140625 141.640625 119.308594 C 142.453125 120.121094 143.253906 120.953125 144.039062 121.792969 C 144.84375 122.652344 145.617188 123.535156 146.40625 124.410156 "/>
<path style="fill:none;stroke-width:5;stroke-linecap:round;stroke-linejoin:round;stroke:rgb(0%,0%,100%);stroke-opacity:1;stroke-miterlimit:10;" d="M 1464.0625 1005.898438 C 1461.640625 1017.421875 1459.414062 1028.984375 1456.835938 1040.429688 C 1454.257812 1051.640625 1451.523438 1062.851562 1448.59375 1073.984375 C 1447.890625 1076.757812 1447.148438 1079.53125 1446.367188 1082.304688 L 1411.328125 1061.914062 C 1413.046875 1060.273438 1414.726562 1058.59375 1416.40625 1056.914062 C 1424.53125 1048.789062 1432.539062 1040.46875 1440.390625 1032.070312 C 1448.4375 1023.476562 1456.171875 1014.648438 1464.0625 1005.898438 Z M 1464.0625 1005.898438 " transform="matrix(0.1,0,0,-0.1,0,225)"/>
<path style=" stroke:none;fill-rule:nonzero;fill:rgb(0%,0%,100%);fill-opacity:1;" d="M 128.015625 109.585938 C 128.015625 107.828125 127.464844 106.125 126.054688 106.125 C 123.644531 106.125 121.078125 111.171875 121.078125 114.957031 C 121.078125 115.75 121.25 118.417969 123.058594 118.417969 C 125.398438 118.417969 128.015625 113.492188 128.015625 109.585938 Z M 122.800781 112.011719 C 123.058594 110.996094 123.421875 109.550781 124.109375 108.328125 C 124.675781 107.296875 125.277344 106.46875 126.035156 106.46875 C 126.605469 106.46875 126.984375 106.953125 126.984375 108.605469 C 126.984375 109.226562 126.929688 110.085938 126.433594 112.011719 Z M 126.3125 112.53125 C 125.882812 114.21875 125.519531 115.300781 124.898438 116.386719 C 124.402344 117.265625 123.796875 118.074219 123.074219 118.074219 C 122.539062 118.074219 122.109375 117.660156 122.109375 115.953125 C 122.109375 114.835938 122.386719 113.664062 122.660156 112.53125 L 126.3125 112.53125 "/>
<path style="fill:none;stroke-width:30;stroke-linecap:round;stroke-linejoin:round;stroke:rgb(0%,0%,0%);stroke-opacity:1;stroke-miterlimit:10;" d="M 1149.570312 587.617188 L 1149.570312 587.617188 " transform="matrix(0.1,0,0,-0.1,0,225)"/>
<path style=" stroke:none;fill-rule:nonzero;fill:rgb(0%,0%,0%);fill-opacity:1;" d="M 110.890625 163.9375 C 110.507812 164.011719 110.363281 164.296875 110.363281 164.523438 C 110.363281 164.8125 110.59375 164.90625 110.761719 164.90625 C 111.117188 164.90625 111.371094 164.597656 111.371094 164.273438 C 111.371094 163.773438 110.796875 163.542969 110.292969 163.542969 C 109.5625 163.542969 109.15625 164.261719 109.050781 164.488281 C 108.773438 163.59375 108.035156 163.542969 107.820312 163.542969 C 106.601562 163.542969 105.953125 165.109375 105.953125 165.375 C 105.953125 165.421875 106.003906 165.480469 106.085938 165.480469 C 106.179688 165.480469 106.203125 165.410156 106.230469 165.363281 C 106.636719 164.035156 107.4375 163.78125 107.78125 163.78125 C 108.320312 163.78125 108.429688 164.285156 108.429688 164.574219 C 108.429688 164.835938 108.355469 165.109375 108.214844 165.683594 L 107.808594 167.320312 C 107.628906 168.039062 107.28125 168.695312 106.648438 168.695312 C 106.589844 168.695312 106.289062 168.695312 106.039062 168.542969 C 106.46875 168.457031 106.5625 168.097656 106.5625 167.957031 C 106.5625 167.714844 106.382812 167.574219 106.15625 167.574219 C 105.871094 167.574219 105.558594 167.824219 105.558594 168.207031 C 105.558594 168.710938 106.121094 168.9375 106.636719 168.9375 C 107.210938 168.9375 107.617188 168.480469 107.867188 167.992188 C 108.058594 168.695312 108.65625 168.9375 109.097656 168.9375 C 110.316406 168.9375 110.964844 167.371094 110.964844 167.105469 C 110.964844 167.046875 110.914062 167 110.84375 167 C 110.734375 167 110.722656 167.058594 110.6875 167.15625 C 110.363281 168.207031 109.671875 168.695312 109.132812 168.695312 C 108.714844 168.695312 108.488281 168.386719 108.488281 167.894531 C 108.488281 167.632812 108.535156 167.441406 108.726562 166.652344 L 109.144531 165.027344 C 109.324219 164.308594 109.730469 163.78125 110.28125 163.78125 C 110.304688 163.78125 110.640625 163.78125 110.890625 163.9375 "/>
</g>
</svg>
