<?xml version="1.0" encoding="UTF-8"?>
<svg xmlns="http://www.w3.org/2000/svg" xmlns:xlink="http://www.w3.org/1999/xlink" width="277pt" height="279pt" viewBox="0 0 277 279" version="1.1">
<g id="surface1">
<path style="fill:none;stroke-width:5;stroke-linecap:round;stroke-linejoin:round;stroke:rgb(0%,0%,0%);stroke-opacity:1;stroke-miterlimit:10;" d="M 1390.625 1431.875 L 256.210938 297.421875 " transform="matrix(0.1,0,0,-0.1,0,279)"/>
<path style=" stroke:none;fill-rule:nonzero;fill:rgb(0%,0%,0%);fill-opacity:1;" d="M 144.367188 130.507812 L 137.644531 134.390625 L 140.484375 137.234375 L 144.367188 130.507812 "/>
<path style="fill:none;stroke-width:5;stroke-linecap:round;stroke-linejoin:round;stroke:rgb(0%,0%,0%);stroke-opacity:1;stroke-miterlimit:10;" d="M 1443.671875 1484.921875 L 1376.445312 1446.09375 L 1404.84375 1417.65625 Z M 1443.671875 1484.921875 " transform="matrix(0.1,0,0,-0.1,0,279)"/>
<path style=" stroke:none;fill-rule:nonzero;fill:rgb(0%,0%,0%);fill-opacity:1;" d="M 153.457031 121.3125 C 153.527344 121.230469 153.589844 121.15625 153.589844 121.035156 C 153.589844 120.953125 153.578125 120.941406 153.300781 120.941406 L 148.363281 120.941406 C 148.089844 120.941406 148.078125 120.953125 148.007812 121.167969 L 147.347656 123.320312 C 147.3125 123.441406 147.3125 123.464844 147.3125 123.488281 C 147.3125 123.535156 147.347656 123.609375 147.433594 123.609375 C 147.527344 123.609375 147.550781 123.558594 147.597656 123.40625 C 148.039062 122.113281 148.628906 121.289062 150.515625 121.289062 L 152.476562 121.289062 L 145.925781 128.699219 C 145.816406 128.832031 145.769531 128.878906 145.769531 129.011719 C 145.769531 129.105469 145.828125 129.105469 146.058594 129.105469 L 151.160156 129.105469 C 151.4375 129.105469 151.449219 129.09375 151.519531 128.878906 L 152.355469 126.238281 C 152.371094 126.203125 152.394531 126.117188 152.394531 126.070312 C 152.394531 126.011719 152.34375 125.949219 152.273438 125.949219 C 152.179688 125.949219 152.164062 125.964844 152.070312 126.261719 C 151.566406 127.804688 151.042969 128.738281 148.960938 128.738281 L 146.894531 128.738281 L 153.457031 121.3125 "/>
<path style="fill:none;stroke-width:5;stroke-linecap:round;stroke-linejoin:round;stroke:rgb(0%,0%,0%);stroke-opacity:1;stroke-miterlimit:10;" d="M 256.210938 2597.382812 L 256.210938 297.421875 " transform="matrix(0.1,0,0,-0.1,0,279)"/>
<path style=" stroke:none;fill-rule:nonzero;fill:rgb(0%,0%,0%);fill-opacity:1;" d="M 25.621094 11.761719 L 23.609375 19.261719 L 27.628906 19.261719 L 25.621094 11.761719 "/>
<path style="fill:none;stroke-width:5;stroke-linecap:round;stroke-linejoin:round;stroke:rgb(0%,0%,0%);stroke-opacity:1;stroke-miterlimit:10;" d="M 256.210938 2672.382812 L 236.09375 2597.382812 L 276.289062 2597.382812 Z M 256.210938 2672.382812 " transform="matrix(0.1,0,0,-0.1,0,279)"/>
<path style=" stroke:none;fill-rule:nonzero;fill:rgb(0%,0%,0%);fill-opacity:1;" d="M 27.988281 1.335938 L 28.261719 1.0625 C 28.789062 0.523438 29.230469 0.394531 29.648438 0.355469 C 29.78125 0.34375 29.886719 0.332031 29.886719 0.128906 C 29.886719 0.0117188 29.769531 0.0117188 29.746094 0.0117188 L 27.761719 0.0117188 C 27.675781 0.0117188 27.542969 0.0117188 27.542969 0.238281 C 27.542969 0.34375 27.664062 0.355469 27.699219 0.355469 C 28.058594 0.378906 28.058594 0.558594 28.058594 0.632812 C 28.058594 0.761719 27.964844 0.941406 27.722656 1.21875 L 24.878906 4.480469 L 23.527344 0.847656 C 23.457031 0.679688 23.457031 0.65625 23.457031 0.632812 C 23.457031 0.378906 23.945312 0.355469 24.089844 0.355469 C 24.234375 0.355469 24.363281 0.355469 24.363281 0.140625 C 24.363281 0.0117188 24.257812 0.0117188 24.183594 0.0117188 C 23.980469 0.0117188 23.742188 0.0351562 23.539062 0.0351562 L 22.214844 0.0351562 C 21.996094 0.0351562 21.769531 0.0117188 21.566406 0.0117188 C 21.484375 0.0117188 21.351562 0.0117188 21.351562 0.238281 C 21.351562 0.355469 21.460938 0.355469 21.640625 0.355469 C 22.226562 0.355469 22.332031 0.464844 22.441406 0.738281 L 23.921875 4.71875 C 23.933594 4.757812 23.96875 4.886719 23.96875 4.921875 C 23.96875 4.960938 23.386719 7.3125 23.347656 7.433594 C 23.253906 7.757812 23.132812 7.816406 22.367188 7.828125 C 22.164062 7.828125 22.070312 7.828125 22.070312 8.054688 C 22.070312 8.175781 22.203125 8.175781 22.238281 8.175781 C 22.453125 8.175781 22.703125 8.152344 22.929688 8.152344 L 24.339844 8.152344 C 24.554688 8.152344 24.808594 8.175781 25.023438 8.175781 C 25.105469 8.175781 25.25 8.175781 25.25 7.960938 C 25.25 7.828125 25.164062 7.828125 24.964844 7.828125 C 24.222656 7.828125 24.222656 7.746094 24.222656 7.613281 C 24.222656 7.53125 24.316406 7.148438 24.378906 6.90625 L 24.808594 5.1875 C 24.878906 4.9375 24.878906 4.910156 24.988281 4.792969 L 27.988281 1.335938 "/>
<path style="fill:none;stroke-width:5;stroke-linecap:round;stroke-linejoin:round;stroke:rgb(0%,0%,0%);stroke-opacity:1;stroke-miterlimit:10;" d="M 2556.132812 297.421875 L 256.210938 297.421875 " transform="matrix(0.1,0,0,-0.1,0,279)"/>
<path style=" stroke:none;fill-rule:nonzero;fill:rgb(0%,0%,0%);fill-opacity:1;" d="M 263.113281 249.257812 L 255.613281 247.246094 L 255.613281 251.265625 L 263.113281 249.257812 "/>
<path style="fill:none;stroke-width:5;stroke-linecap:round;stroke-linejoin:round;stroke:rgb(0%,0%,0%);stroke-opacity:1;stroke-miterlimit:10;" d="M 2631.132812 297.421875 L 2556.132812 317.539062 L 2556.132812 277.34375 Z M 2631.132812 297.421875 " transform="matrix(0.1,0,0,-0.1,0,279)"/>
<path style=" stroke:none;fill-rule:nonzero;fill:rgb(0%,0%,0%);fill-opacity:1;" d="M 272.082031 248.484375 L 270.957031 245.867188 C 271.113281 245.582031 271.472656 245.53125 271.617188 245.519531 C 271.6875 245.519531 271.820312 245.507812 271.820312 245.304688 C 271.820312 245.175781 271.710938 245.175781 271.640625 245.175781 C 271.4375 245.175781 271.195312 245.199219 270.992188 245.199219 L 270.300781 245.199219 C 269.570312 245.199219 269.046875 245.175781 269.03125 245.175781 C 268.9375 245.175781 268.816406 245.175781 268.816406 245.402344 C 268.816406 245.519531 268.925781 245.519531 269.082031 245.519531 C 269.773438 245.519531 269.820312 245.640625 269.941406 245.925781 L 271.363281 249.25 L 268.769531 252.023438 C 268.339844 252.492188 267.824219 252.945312 266.941406 252.992188 C 266.796875 253.003906 266.703125 253.003906 266.703125 253.21875 C 266.703125 253.257812 266.714844 253.339844 266.84375 253.339844 L 269.09375 253.339844 C 269.175781 253.339844 269.320312 253.339844 269.320312 253.125 C 269.320312 253.003906 269.234375 252.992188 269.164062 252.992188 C 268.925781 252.96875 268.769531 252.835938 268.769531 252.644531 C 268.769531 252.441406 268.914062 252.300781 269.261719 251.941406 L 270.324219 250.78125 C 270.589844 250.507812 271.222656 249.8125 271.484375 249.550781 L 272.738281 252.492188 C 272.75 252.515625 272.800781 252.632812 272.800781 252.644531 C 272.800781 252.753906 272.535156 252.96875 272.152344 252.992188 C 272.082031 252.992188 271.949219 253.003906 271.949219 253.21875 C 271.949219 253.339844 272.070312 253.339844 272.128906 253.339844 C 272.332031 253.339844 272.570312 253.316406 272.773438 253.316406 L 274.089844 253.316406 C 274.304688 253.316406 274.53125 253.339844 274.734375 253.339844 C 274.820312 253.339844 274.949219 253.339844 274.949219 253.113281 C 274.949219 252.992188 274.832031 252.992188 274.722656 252.992188 C 274.007812 252.980469 273.984375 252.921875 273.777344 252.476562 L 272.203125 248.773438 L 273.71875 247.148438 C 273.839844 247.027344 274.113281 246.726562 274.222656 246.609375 C 274.734375 246.070312 275.214844 245.582031 276.183594 245.519531 C 276.300781 245.507812 276.421875 245.507812 276.421875 245.304688 C 276.421875 245.175781 276.3125 245.175781 276.265625 245.175781 L 274.03125 245.175781 C 273.945312 245.175781 273.804688 245.175781 273.804688 245.390625 C 273.804688 245.507812 273.886719 245.519531 273.960938 245.519531 C 274.148438 245.542969 274.351562 245.640625 274.351562 245.867188 L 274.339844 245.890625 C 274.328125 245.976562 274.304688 246.09375 274.175781 246.238281 L 272.082031 248.484375 "/>
<path style="fill:none;stroke-width:5;stroke-linecap:round;stroke-linejoin:round;stroke:rgb(0%,0%,0%);stroke-opacity:1;stroke-miterlimit:10;" d="M 1918.671875 59.921875 L 1918.671875 59.921875 " transform="matrix(0.1,0,0,-0.1,0,279)"/>
<path style=" stroke:none;fill-rule:nonzero;fill:rgb(0%,0%,0%);fill-opacity:1;" d="M 99.683594 272.929688 L 99.421875 272.929688 C 99.300781 274.125 99.144531 275.640625 97.054688 275.640625 L 96.011719 275.640625 C 95.488281 275.640625 95.464844 275.558594 95.464844 275.164062 L 95.464844 268.742188 C 95.464844 268.3125 95.488281 268.171875 96.527344 268.171875 L 96.886719 268.171875 L 96.886719 267.824219 L 93.359375 267.824219 L 93.359375 268.171875 L 93.597656 268.171875 C 94.457031 268.171875 94.496094 268.289062 94.496094 268.730469 L 94.496094 275.082031 C 94.496094 275.523438 94.457031 275.640625 93.597656 275.640625 L 93.359375 275.640625 L 93.359375 275.988281 L 99.371094 275.988281 Z M 107.304688 268.730469 C 107.304688 268.289062 107.34375 268.171875 108.203125 268.171875 L 108.441406 268.171875 L 108.441406 267.824219 L 105.203125 267.824219 L 105.203125 268.171875 L 105.441406 268.171875 C 106.300781 268.171875 106.339844 268.289062 106.339844 268.730469 L 106.339844 271.566406 L 102.761719 271.566406 L 102.761719 268.730469 C 102.761719 268.289062 102.800781 268.171875 103.660156 268.171875 L 103.898438 268.171875 L 103.898438 267.824219 L 100.660156 267.824219 L 100.660156 268.171875 L 100.898438 268.171875 C 101.757812 268.171875 101.796875 268.289062 101.796875 268.730469 L 101.796875 275.082031 C 101.796875 275.523438 101.757812 275.640625 100.898438 275.640625 L 100.660156 275.640625 L 100.660156 275.988281 L 103.898438 275.988281 L 103.898438 275.640625 L 103.660156 275.640625 C 102.800781 275.640625 102.761719 275.523438 102.761719 275.082031 L 102.761719 271.914062 L 106.339844 271.914062 L 106.339844 275.082031 C 106.339844 275.523438 106.300781 275.640625 105.441406 275.640625 L 105.203125 275.640625 L 105.203125 275.988281 L 108.441406 275.988281 L 108.441406 275.640625 L 108.203125 275.640625 C 107.34375 275.640625 107.304688 275.523438 107.304688 275.082031 Z M 111.453125 271.003906 C 110.847656 270.847656 110.308594 270.25 110.308594 269.484375 C 110.308594 268.648438 110.976562 267.894531 111.910156 267.894531 C 113.871094 267.894531 114.132812 269.832031 114.203125 270.347656 C 114.230469 270.488281 114.230469 270.539062 114.347656 270.539062 C 114.480469 270.539062 114.480469 270.476562 114.480469 270.261719 L 114.480469 267.847656 C 114.480469 267.632812 114.480469 267.574219 114.359375 267.574219 C 114.324219 267.574219 114.277344 267.574219 114.191406 267.726562 L 113.796875 268.457031 C 113.226562 267.714844 112.4375 267.574219 111.910156 267.574219 C 110.582031 267.574219 109.613281 268.636719 109.613281 269.855469 C 109.613281 270.429688 109.816406 270.957031 110.261719 271.433594 C 110.679688 271.898438 111.097656 272.007812 111.945312 272.222656 C 112.363281 272.320312 113.019531 272.488281 113.1875 272.558594 C 113.75 272.832031 114.121094 273.480469 114.121094 274.148438 C 114.121094 275.042969 113.488281 275.894531 112.496094 275.894531 C 111.957031 275.894531 111.214844 275.761719 110.628906 275.246094 C 109.9375 274.625 109.890625 273.765625 109.878906 273.371094 C 109.863281 273.273438 109.769531 273.273438 109.746094 273.273438 C 109.613281 273.273438 109.613281 273.335938 109.613281 273.550781 L 109.613281 275.964844 C 109.613281 276.179688 109.613281 276.238281 109.734375 276.238281 C 109.804688 276.238281 109.816406 276.214844 109.902344 276.074219 C 109.949219 275.976562 110.199219 275.535156 110.296875 275.355469 C 110.726562 275.832031 111.480469 276.238281 112.507812 276.238281 C 113.847656 276.238281 114.816406 275.105469 114.816406 273.789062 C 114.816406 273.058594 114.539062 272.523438 114.21875 272.128906 C 113.773438 271.589844 113.238281 271.457031 112.769531 271.339844 Z M 117.667969 271.410156 C 117.667969 271.085938 117.394531 270.835938 117.09375 270.835938 C 116.746094 270.835938 116.507812 271.113281 116.507812 271.410156 C 116.507812 271.769531 116.808594 271.996094 117.082031 271.996094 C 117.40625 271.996094 117.667969 271.746094 117.667969 271.410156 Z M 117.667969 275.402344 C 117.667969 275.082031 117.394531 274.828125 117.09375 274.828125 C 116.746094 274.828125 116.507812 275.105469 116.507812 275.402344 C 116.507812 275.761719 116.808594 275.988281 117.082031 275.988281 C 117.40625 275.988281 117.667969 275.738281 117.667969 275.402344 Z M 127.066406 268.636719 C 127.175781 268.195312 127.222656 268.171875 127.691406 268.171875 L 128.550781 268.171875 C 129.578125 268.171875 130.34375 268.480469 130.34375 269.414062 C 130.34375 270.023438 130.03125 271.78125 127.628906 271.78125 L 126.277344 271.78125 Z M 128.730469 271.925781 C 130.214844 271.601562 131.371094 270.644531 131.371094 269.617188 C 131.371094 268.683594 130.429688 267.824219 128.765625 267.824219 L 125.527344 267.824219 C 125.285156 267.824219 125.179688 267.824219 125.179688 268.050781 C 125.179688 268.171875 125.261719 268.171875 125.488281 268.171875 C 126.207031 268.171875 126.207031 268.265625 126.207031 268.398438 C 126.207031 268.421875 126.207031 268.492188 126.160156 268.671875 L 124.546875 275.105469 C 124.4375 275.523438 124.414062 275.640625 123.589844 275.640625 C 123.3125 275.640625 123.230469 275.640625 123.230469 275.871094 C 123.230469 275.988281 123.363281 275.988281 123.398438 275.988281 C 123.613281 275.988281 123.863281 275.964844 124.089844 275.964844 L 125.503906 275.964844 C 125.71875 275.964844 125.96875 275.988281 126.183594 275.988281 C 126.277344 275.988281 126.410156 275.988281 126.410156 275.761719 C 126.410156 275.640625 126.304688 275.640625 126.125 275.640625 C 125.394531 275.640625 125.394531 275.546875 125.394531 275.425781 C 125.394531 275.414062 125.394531 275.332031 125.417969 275.234375 L 126.21875 272.019531 L 127.652344 272.019531 C 128.789062 272.019531 129.003906 272.738281 129.003906 273.132812 C 129.003906 273.3125 128.886719 273.777344 128.800781 274.089844 C 128.671875 274.636719 128.632812 274.769531 128.632812 274.996094 C 128.632812 275.84375 129.328125 276.238281 130.128906 276.238281 C 131.097656 276.238281 131.515625 275.054688 131.515625 274.890625 C 131.515625 274.804688 131.453125 274.769531 131.382812 274.769531 C 131.289062 274.769531 131.265625 274.839844 131.242188 274.9375 C 130.953125 275.785156 130.464844 276 130.164062 276 C 129.863281 276 129.675781 275.871094 129.675781 275.332031 C 129.675781 275.042969 129.816406 273.957031 129.828125 273.898438 C 129.890625 273.453125 129.890625 273.40625 129.890625 273.3125 C 129.890625 272.4375 129.183594 272.066406 128.730469 271.925781 Z M 134.179688 272.257812 L 133.050781 273.324219 L 133.207031 273.515625 L 134.179688 272.726562 L 135.152344 273.515625 L 135.3125 273.332031 Z M 136.578125 274.871094 C 136.578125 274.625 136.507812 274.265625 136.195312 274.265625 C 135.980469 274.265625 135.773438 274.464844 135.773438 274.6875 C 135.773438 274.808594 135.859375 274.878906 135.949219 274.960938 C 136.066406 275.078125 136.1875 275.285156 136.1875 275.582031 C 136.1875 276.113281 135.636719 277.246094 134.839844 277.246094 C 134.425781 277.246094 134.140625 277 134.042969 276.617188 C 134.171875 276.347656 134.339844 275.90625 134.339844 275.683594 C 134.339844 275.550781 134.273438 275.445312 134.121094 275.445312 C 133.765625 275.445312 133.714844 276.332031 133.714844 276.585938 C 133.4375 276.921875 133.109375 277.246094 132.648438 277.246094 C 132.136719 277.246094 131.898438 276.839844 131.898438 276.371094 C 131.898438 275.996094 132.003906 275.660156 132.160156 275.351562 C 132.394531 274.886719 132.703125 274.585938 132.703125 274.457031 C 132.703125 274.371094 132.632812 274.304688 132.546875 274.304688 C 132.394531 274.304688 132.273438 274.539062 132.1875 274.679688 C 131.84375 275.246094 131.597656 275.988281 131.597656 276.648438 C 131.597656 277.261719 131.828125 277.859375 132.527344 277.859375 C 133.214844 277.859375 133.605469 277.3125 133.78125 277.085938 C 133.898438 277.527344 134.226562 277.867188 134.714844 277.867188 C 135.367188 277.867188 135.691406 277.445312 136.019531 276.894531 C 136.273438 276.472656 136.578125 275.375 136.578125 274.871094 Z M 141.554688 278.894531 C 141.554688 278.859375 141.554688 278.835938 141.351562 278.632812 C 140.15625 277.425781 139.484375 275.449219 139.484375 273.011719 C 139.484375 270.691406 140.046875 268.695312 141.433594 267.285156 C 141.554688 267.179688 141.554688 267.15625 141.554688 267.117188 C 141.554688 267.046875 141.496094 267.023438 141.445312 267.023438 C 141.289062 267.023438 140.3125 267.882812 139.726562 269.054688 C 139.113281 270.261719 138.839844 271.542969 138.839844 273.011719 C 138.839844 274.074219 139.007812 275.5 139.628906 276.777344 C 140.335938 278.214844 141.316406 278.988281 141.445312 278.988281 C 141.496094 278.988281 141.554688 278.964844 141.554688 278.894531 Z M 147.464844 269.976562 C 147.464844 268.757812 147.082031 267.574219 146.101562 267.574219 C 144.429688 267.574219 142.648438 271.074219 142.648438 273.707031 C 142.648438 274.253906 142.765625 276.109375 144.023438 276.109375 C 145.648438 276.109375 147.464844 272.6875 147.464844 269.976562 Z M 143.84375 271.660156 C 144.023438 270.957031 144.273438 269.953125 144.75 269.101562 C 145.144531 268.386719 145.5625 267.8125 146.089844 267.8125 C 146.484375 267.8125 146.746094 268.148438 146.746094 269.292969 C 146.746094 269.726562 146.710938 270.324219 146.363281 271.660156 Z M 146.28125 272.019531 C 145.980469 273.191406 145.730469 273.945312 145.300781 274.699219 C 144.953125 275.308594 144.535156 275.871094 144.035156 275.871094 C 143.664062 275.871094 143.363281 275.582031 143.363281 274.398438 C 143.363281 273.621094 143.554688 272.808594 143.746094 272.019531 Z M 151.339844 273.011719 C 151.339844 272.105469 151.21875 270.621094 150.550781 269.234375 C 149.847656 267.800781 148.863281 267.023438 148.734375 267.023438 C 148.6875 267.023438 148.625 267.046875 148.625 267.117188 C 148.625 267.15625 148.625 267.179688 148.828125 267.382812 C 150.023438 268.589844 150.695312 270.5625 150.695312 273 C 150.695312 275.320312 150.132812 277.316406 148.746094 278.726562 C 148.625 278.835938 148.625 278.859375 148.625 278.894531 C 148.625 278.964844 148.6875 278.988281 148.734375 278.988281 C 148.890625 278.988281 149.871094 278.128906 150.453125 276.957031 C 151.066406 275.738281 151.339844 274.445312 151.339844 273.011719 Z M 158.449219 268.625 C 158.449219 268.3125 158.199219 268.039062 157.863281 268.039062 C 157.550781 268.039062 157.289062 268.289062 157.289062 268.613281 C 157.289062 268.972656 157.574219 269.199219 157.863281 269.199219 C 158.234375 269.199219 158.449219 268.886719 158.449219 268.625 Z M 156.800781 270.847656 L 156.800781 271.195312 C 157.5625 271.195312 157.671875 271.265625 157.671875 271.851562 L 157.671875 275.105469 C 157.671875 275.640625 157.539062 275.640625 156.761719 275.640625 L 156.761719 275.988281 L 159.25 275.988281 L 159.25 275.640625 C 158.472656 275.640625 158.425781 275.582031 158.425781 275.117188 L 158.425781 270.71875 Z M 163.488281 270.933594 C 163.488281 270.71875 163.488281 270.65625 163.371094 270.65625 C 163.273438 270.65625 163.046875 270.917969 162.964844 271.027344 C 162.59375 270.730469 162.222656 270.65625 161.839844 270.65625 C 160.394531 270.65625 159.964844 271.445312 159.964844 272.105469 C 159.964844 272.234375 159.964844 272.652344 160.417969 273.070312 C 160.800781 273.40625 161.207031 273.492188 161.757812 273.597656 C 162.414062 273.730469 162.570312 273.765625 162.867188 274.003906 C 163.085938 274.183594 163.238281 274.445312 163.238281 274.78125 C 163.238281 275.296875 162.941406 275.871094 161.886719 275.871094 C 161.097656 275.871094 160.523438 275.414062 160.261719 274.21875 C 160.214844 274.003906 160.214844 273.992188 160.203125 273.980469 C 160.179688 273.933594 160.128906 273.933594 160.09375 273.933594 C 159.964844 273.933594 159.964844 273.992188 159.964844 274.207031 L 159.964844 275.832031 C 159.964844 276.050781 159.964844 276.109375 160.082031 276.109375 C 160.140625 276.109375 160.15625 276.097656 160.359375 275.84375 C 160.417969 275.761719 160.417969 275.738281 160.597656 275.546875 C 161.050781 276.109375 161.695312 276.109375 161.898438 276.109375 C 163.15625 276.109375 163.777344 275.414062 163.777344 274.46875 C 163.777344 273.824219 163.382812 273.441406 163.273438 273.335938 C 162.84375 272.964844 162.519531 272.894531 161.734375 272.75 C 161.375 272.675781 160.5 272.511719 160.5 271.792969 C 160.5 271.421875 160.753906 270.871094 161.828125 270.871094 C 163.132812 270.871094 163.203125 271.984375 163.226562 272.355469 C 163.238281 272.449219 163.324219 272.449219 163.359375 272.449219 C 163.488281 272.449219 163.488281 272.390625 163.488281 272.175781 Z M 175.863281 267.847656 C 175.863281 267.632812 175.863281 267.574219 175.742188 267.574219 C 175.671875 267.574219 175.660156 267.597656 175.589844 267.714844 L 175.003906 268.660156 C 174.464844 267.992188 173.652344 267.574219 172.789062 267.574219 C 170.601562 267.574219 168.714844 269.460938 168.714844 271.898438 C 168.714844 274.375 170.628906 276.238281 172.789062 276.238281 C 174.753906 276.238281 175.863281 274.53125 175.863281 273.214844 C 175.863281 273.082031 175.863281 273.011719 175.730469 273.011719 C 175.613281 273.011719 175.601562 273.070312 175.601562 273.15625 C 175.492188 275.054688 174.105469 275.894531 172.945312 275.894531 C 172.109375 275.894531 169.824219 275.390625 169.824219 271.898438 C 169.824219 268.445312 172.074219 267.917969 172.933594 267.917969 C 174.191406 267.917969 175.289062 268.984375 175.527344 270.777344 C 175.550781 270.917969 175.550781 270.957031 175.695312 270.957031 C 175.863281 270.957031 175.863281 270.917969 175.863281 270.679688 Z M 187.144531 268.996094 C 187.335938 268.421875 187.683594 268.183594 188.28125 268.171875 L 188.28125 267.824219 L 185.972656 267.824219 L 185.972656 268.171875 C 186.703125 268.183594 186.917969 268.566406 186.917969 268.804688 C 186.917969 268.863281 186.882812 268.960938 186.859375 269.042969 L 185.039062 274.710938 L 183.105469 268.695312 C 183.09375 268.660156 183.066406 268.566406 183.066406 268.527344 C 183.066406 268.171875 183.703125 268.171875 183.988281 268.171875 L 183.988281 267.824219 L 181.085938 267.824219 L 181.085938 268.171875 C 181.71875 268.171875 181.882812 268.207031 182.015625 268.421875 C 182.101562 268.578125 182.183594 268.949219 182.339844 269.378906 L 180.628906 274.710938 L 178.714844 268.757812 C 178.65625 268.589844 178.65625 268.566406 178.65625 268.527344 C 178.65625 268.171875 179.265625 268.171875 179.578125 268.171875 L 179.578125 267.824219 L 176.671875 267.824219 L 176.671875 268.171875 C 177.316406 268.171875 177.546875 268.171875 177.6875 268.625 L 180.054688 276.011719 C 180.113281 276.191406 180.164062 276.238281 180.269531 276.238281 C 180.367188 276.238281 180.425781 276.203125 180.484375 276.023438 L 182.46875 269.820312 L 184.46875 276.023438 C 184.527344 276.203125 184.585938 276.238281 184.683594 276.238281 C 184.789062 276.238281 184.835938 276.191406 184.898438 276.011719 L 187.144531 268.996094 "/>
<path style="fill:none;stroke-width:5;stroke-linecap:round;stroke-linejoin:round;stroke:rgb(50%,50%,50%);stroke-opacity:1;stroke-dasharray:37.3187,37.3187;stroke-miterlimit:10;" d="M 256.210938 297.421875 L 18.710938 59.921875 " transform="matrix(0.1,0,0,-0.1,0,279)"/>
<path style="fill:none;stroke-width:5;stroke-linecap:round;stroke-linejoin:round;stroke:rgb(0%,0%,100%);stroke-opacity:1;stroke-miterlimit:10;" d="M 201.484375 958.671875 C -25.703125 723.476562 -59.570312 375.703125 137.460938 178.671875 C 349.335938 -33.203125 735.585938 21.953125 968.671875 297.421875 " transform="matrix(0.1,0,0,-0.1,0,279)"/>
<path style=" stroke:none;fill-rule:nonzero;fill:rgb(0%,0%,100%);fill-opacity:1;" d="M 25.621094 178.007812 C 23.210938 179.136719 20.894531 180.371094 18.675781 181.710938 L 21.601562 184.535156 C 22.8125 182.320312 24.152344 180.140625 25.621094 178.007812 "/>
<path style="fill:none;stroke-width:5;stroke-linecap:round;stroke-linejoin:round;stroke:rgb(0%,0%,100%);stroke-opacity:1;stroke-miterlimit:10;" d="M 256.210938 1009.921875 C 232.109375 998.632812 208.945312 986.289062 186.757812 972.890625 L 216.015625 944.648438 C 228.125 966.796875 241.523438 988.59375 256.210938 1009.921875 Z M 256.210938 1009.921875 " transform="matrix(0.1,0,0,-0.1,0,279)"/>
<path style="fill:none;stroke-width:5;stroke-linecap:round;stroke-linejoin:round;stroke:rgb(0%,0%,100%);stroke-opacity:1;stroke-miterlimit:10;" d="M 729.6875 847.382812 C 710.195312 1316.796875 505.664062 1496.875 256.210938 1247.421875 " transform="matrix(0.1,0,0,-0.1,0,279)"/>
<path style=" stroke:none;fill-rule:nonzero;fill:rgb(0%,0%,100%);fill-opacity:1;" d="M 73.121094 201.757812 C 73.816406 199.164062 74.441406 196.636719 74.992188 194.175781 L 70.953125 194.34375 C 71.707031 196.722656 72.429688 199.195312 73.121094 201.757812 "/>
<path style="fill:none;stroke-width:5;stroke-linecap:round;stroke-linejoin:round;stroke:rgb(0%,0%,100%);stroke-opacity:1;stroke-miterlimit:10;" d="M 731.210938 772.421875 C 738.164062 798.359375 744.414062 823.632812 749.921875 848.242188 L 709.53125 846.5625 C 717.070312 822.773438 724.296875 798.046875 731.210938 772.421875 Z M 731.210938 772.421875 " transform="matrix(0.1,0,0,-0.1,0,279)"/>
<path style="fill:none;stroke-width:5;stroke-linecap:round;stroke-linejoin:round;stroke:rgb(0%,0%,100%);stroke-opacity:1;stroke-miterlimit:10;" d="M 1494.0625 352.929688 C 1739.960938 654.804688 1468.320312 891.171875 849.921875 891.171875 " transform="matrix(0.1,0,0,-0.1,0,279)"/>
<path style=" stroke:none;fill-rule:nonzero;fill:rgb(0%,0%,100%);fill-opacity:1;" d="M 144.367188 249.257812 C 146.789062 247.871094 148.996094 246.449219 150.992188 245 L 147.839844 242.429688 C 146.871094 244.628906 145.714844 246.90625 144.367188 249.257812 "/>
<path style="fill:none;stroke-width:5;stroke-linecap:round;stroke-linejoin:round;stroke:rgb(0%,0%,100%);stroke-opacity:1;stroke-miterlimit:10;" d="M 1443.671875 297.421875 C 1467.890625 311.289062 1489.960938 325.507812 1509.921875 340 L 1478.398438 365.703125 C 1468.710938 343.710938 1457.148438 320.9375 1443.671875 297.421875 Z M 1443.671875 297.421875 " transform="matrix(0.1,0,0,-0.1,0,279)"/>
</g>
</svg>
