<?xml version="1.0" encoding="UTF-8"?>
<svg xmlns="http://www.w3.org/2000/svg" xmlns:xlink="http://www.w3.org/1999/xlink" width="277pt" height="275pt" viewBox="0 0 277 275" version="1.1">
<g id="surface1">
<path style="fill:none;stroke-width:5;stroke-linecap:round;stroke-linejoin:round;stroke:rgb(0%,0%,0%);stroke-opacity:1;stroke-miterlimit:10;" d="M 164.101562 163.59375 L 950.507812 950.039062 " transform="matrix(0.1,0,0,-0.1,0,275)"/>
<path style=" stroke:none;fill-rule:nonzero;fill:rgb(0%,0%,0%);fill-opacity:1;" d="M 11.105469 263.941406 L 17.832031 260.058594 L 14.988281 257.21875 L 11.105469 263.941406 "/>
<path style="fill:none;stroke-width:5;stroke-linecap:round;stroke-linejoin:round;stroke:rgb(0%,0%,0%);stroke-opacity:1;stroke-miterlimit:10;" d="M 111.054688 110.585938 L 178.320312 149.414062 L 149.882812 177.8125 Z M 111.054688 110.585938 " transform="matrix(0.1,0,0,-0.1,0,275)"/>
<path style=" stroke:none;fill-rule:nonzero;fill:rgb(0%,0%,0%);fill-opacity:1;" d="M 8.441406 266.847656 C 8.511719 266.765625 8.570312 266.695312 8.570312 266.574219 C 8.570312 266.488281 8.558594 266.476562 8.285156 266.476562 L 3.347656 266.476562 C 3.074219 266.476562 3.058594 266.488281 2.988281 266.707031 L 2.332031 268.855469 C 2.296875 268.976562 2.296875 269 2.296875 269.023438 C 2.296875 269.074219 2.332031 269.144531 2.414062 269.144531 C 2.511719 269.144531 2.535156 269.097656 2.582031 268.941406 C 3.023438 267.648438 3.609375 266.824219 5.5 266.824219 L 7.460938 266.824219 L 0.90625 274.238281 C 0.800781 274.367188 0.753906 274.417969 0.753906 274.546875 C 0.753906 274.644531 0.8125 274.644531 1.039062 274.644531 L 6.144531 274.644531 C 6.417969 274.644531 6.429688 274.632812 6.503906 274.417969 L 7.339844 271.773438 C 7.351562 271.738281 7.375 271.65625 7.375 271.605469 C 7.375 271.546875 7.328125 271.488281 7.257812 271.488281 C 7.160156 271.488281 7.148438 271.5 7.054688 271.796875 C 6.550781 273.339844 6.023438 274.273438 3.945312 274.273438 L 1.875 274.273438 L 8.441406 266.847656 "/>
<path style="fill:none;stroke-width:5;stroke-linecap:round;stroke-linejoin:round;stroke:rgb(0%,0%,0%);stroke-opacity:1;stroke-miterlimit:10;" d="M 950.507812 2553.90625 L 950.507812 950.039062 " transform="matrix(0.1,0,0,-0.1,0,275)"/>
<path style=" stroke:none;fill-rule:nonzero;fill:rgb(0%,0%,0%);fill-opacity:1;" d="M 95.050781 12.109375 L 93.042969 19.609375 L 97.0625 19.609375 L 95.050781 12.109375 "/>
<path style="fill:none;stroke-width:5;stroke-linecap:round;stroke-linejoin:round;stroke:rgb(0%,0%,0%);stroke-opacity:1;stroke-miterlimit:10;" d="M 950.507812 2628.90625 L 930.429688 2553.90625 L 970.625 2553.90625 Z M 950.507812 2628.90625 " transform="matrix(0.1,0,0,-0.1,0,275)"/>
<path style=" stroke:none;fill-rule:nonzero;fill:rgb(0%,0%,0%);fill-opacity:1;" d="M 97.417969 1.683594 L 97.695312 1.410156 C 98.21875 0.871094 98.664062 0.738281 99.082031 0.703125 C 99.210938 0.691406 99.320312 0.679688 99.320312 0.476562 C 99.320312 0.355469 99.199219 0.355469 99.175781 0.355469 L 97.191406 0.355469 C 97.109375 0.355469 96.976562 0.355469 96.976562 0.585938 C 96.976562 0.691406 97.097656 0.703125 97.132812 0.703125 C 97.492188 0.726562 97.492188 0.90625 97.492188 0.976562 C 97.492188 1.109375 97.394531 1.289062 97.15625 1.5625 L 94.3125 4.828125 L 92.960938 1.191406 C 92.886719 1.027344 92.886719 1.003906 92.886719 0.976562 C 92.886719 0.726562 93.378906 0.703125 93.523438 0.703125 C 93.664062 0.703125 93.796875 0.703125 93.796875 0.488281 C 93.796875 0.355469 93.6875 0.355469 93.617188 0.355469 C 93.414062 0.355469 93.175781 0.378906 92.972656 0.378906 L 91.644531 0.378906 C 91.429688 0.378906 91.203125 0.355469 91 0.355469 C 90.914062 0.355469 90.785156 0.355469 90.785156 0.585938 C 90.785156 0.703125 90.890625 0.703125 91.070312 0.703125 C 91.65625 0.703125 91.765625 0.8125 91.871094 1.085938 L 93.355469 5.066406 C 93.367188 5.101562 93.402344 5.234375 93.402344 5.269531 C 93.402344 5.304688 92.816406 7.660156 92.78125 7.78125 C 92.683594 8.101562 92.566406 8.164062 91.800781 8.175781 C 91.597656 8.175781 91.5 8.175781 91.5 8.402344 C 91.5 8.523438 91.632812 8.523438 91.667969 8.523438 C 91.882812 8.523438 92.136719 8.496094 92.363281 8.496094 L 93.773438 8.496094 C 93.988281 8.496094 94.238281 8.523438 94.453125 8.523438 C 94.539062 8.523438 94.679688 8.523438 94.679688 8.304688 C 94.679688 8.175781 94.597656 8.175781 94.394531 8.175781 C 93.652344 8.175781 93.652344 8.089844 93.652344 7.960938 C 93.652344 7.875 93.75 7.492188 93.808594 7.253906 L 94.238281 5.53125 C 94.3125 5.28125 94.3125 5.257812 94.417969 5.136719 L 97.417969 1.683594 "/>
<path style="fill:none;stroke-width:5;stroke-linecap:round;stroke-linejoin:round;stroke:rgb(0%,0%,0%);stroke-opacity:1;stroke-miterlimit:10;" d="M 2554.414062 950.039062 L 950.507812 950.039062 " transform="matrix(0.1,0,0,-0.1,0,275)"/>
<path style=" stroke:none;fill-rule:nonzero;fill:rgb(0%,0%,0%);fill-opacity:1;" d="M 262.941406 179.996094 L 255.441406 177.988281 L 255.441406 182.007812 L 262.941406 179.996094 "/>
<path style="fill:none;stroke-width:5;stroke-linecap:round;stroke-linejoin:round;stroke:rgb(0%,0%,0%);stroke-opacity:1;stroke-miterlimit:10;" d="M 2629.414062 950.039062 L 2554.414062 970.117188 L 2554.414062 929.921875 Z M 2629.414062 950.039062 " transform="matrix(0.1,0,0,-0.1,0,275)"/>
<path style=" stroke:none;fill-rule:nonzero;fill:rgb(0%,0%,0%);fill-opacity:1;" d="M 271.90625 179.226562 L 270.785156 176.609375 C 270.9375 176.320312 271.296875 176.273438 271.441406 176.261719 C 271.511719 176.261719 271.644531 176.25 271.644531 176.046875 C 271.644531 175.914062 271.535156 175.914062 271.464844 175.914062 C 271.261719 175.914062 271.023438 175.9375 270.820312 175.9375 L 270.125 175.9375 C 269.398438 175.9375 268.871094 175.914062 268.859375 175.914062 C 268.761719 175.914062 268.644531 175.914062 268.644531 176.140625 C 268.644531 176.261719 268.753906 176.261719 268.90625 176.261719 C 269.601562 176.261719 269.648438 176.382812 269.769531 176.667969 L 271.191406 179.992188 L 268.597656 182.765625 C 268.164062 183.230469 267.652344 183.683594 266.765625 183.734375 C 266.621094 183.746094 266.527344 183.746094 266.527344 183.960938 C 266.527344 183.996094 266.539062 184.082031 266.671875 184.082031 L 268.917969 184.082031 C 269.003906 184.082031 269.144531 184.082031 269.144531 183.863281 C 269.144531 183.746094 269.0625 183.734375 268.992188 183.734375 C 268.753906 183.710938 268.597656 183.578125 268.597656 183.386719 C 268.597656 183.183594 268.738281 183.039062 269.085938 182.679688 L 270.148438 181.523438 C 270.414062 181.246094 271.046875 180.554688 271.308594 180.289062 L 272.566406 183.230469 C 272.578125 183.253906 272.625 183.375 272.625 183.386719 C 272.625 183.492188 272.363281 183.710938 271.980469 183.734375 C 271.90625 183.734375 271.777344 183.746094 271.777344 183.960938 C 271.777344 184.082031 271.894531 184.082031 271.953125 184.082031 C 272.160156 184.082031 272.398438 184.054688 272.601562 184.054688 L 273.914062 184.054688 C 274.132812 184.054688 274.359375 184.082031 274.5625 184.082031 C 274.644531 184.082031 274.777344 184.082031 274.777344 183.851562 C 274.777344 183.734375 274.65625 183.734375 274.550781 183.734375 C 273.832031 183.722656 273.808594 183.660156 273.605469 183.21875 L 272.027344 179.511719 L 273.546875 177.886719 C 273.664062 177.769531 273.941406 177.46875 274.046875 177.347656 C 274.5625 176.8125 275.039062 176.320312 276.007812 176.261719 C 276.128906 176.25 276.246094 176.25 276.246094 176.046875 C 276.246094 175.914062 276.140625 175.914062 276.09375 175.914062 L 273.855469 175.914062 C 273.773438 175.914062 273.628906 175.914062 273.628906 176.128906 C 273.628906 176.25 273.714844 176.261719 273.785156 176.261719 C 273.976562 176.285156 274.179688 176.382812 274.179688 176.609375 L 274.167969 176.632812 C 274.15625 176.714844 274.132812 176.835938 274 176.976562 L 271.90625 179.226562 "/>
<path style="fill:none;stroke-width:5;stroke-linecap:round;stroke-linejoin:round;stroke:rgb(0%,0%,0%);stroke-opacity:1;stroke-miterlimit:10;" d="M 2293.632812 1957.34375 L 2293.632812 1957.34375 " transform="matrix(0.1,0,0,-0.1,0,275)"/>
<path style=" stroke:none;fill-rule:nonzero;fill:rgb(0%,0%,0%);fill-opacity:1;" d="M 125.609375 78.183594 C 126.792969 77.90625 127.714844 77.152344 127.714844 76.234375 C 127.714844 75.074219 126.363281 74.082031 124.640625 74.082031 L 121.066406 74.082031 L 121.066406 74.429688 L 121.308594 74.429688 C 122.167969 74.429688 122.203125 74.546875 122.203125 74.988281 L 122.203125 81.339844 C 122.203125 81.78125 122.167969 81.898438 121.308594 81.898438 L 121.066406 81.898438 L 121.066406 82.246094 L 124.28125 82.246094 L 124.28125 81.898438 L 124.042969 81.898438 C 123.183594 81.898438 123.148438 81.78125 123.148438 81.339844 L 123.148438 78.277344 L 124.535156 78.277344 C 125 78.277344 125.441406 78.410156 125.765625 78.742188 C 126.171875 79.199219 126.171875 79.449219 126.171875 80.273438 C 126.171875 81.21875 126.171875 81.53125 126.699219 82.042969 C 126.878906 82.222656 127.378906 82.496094 128.050781 82.496094 C 128.980469 82.496094 129.136719 81.457031 129.136719 81.207031 C 129.136719 81.136719 129.136719 81.027344 129.003906 81.027344 C 128.886719 81.027344 128.886719 81.097656 128.875 81.21875 C 128.8125 81.9375 128.46875 82.257812 128.085938 82.257812 C 127.535156 82.257812 127.414062 81.695312 127.320312 81.0625 C 127.308594 80.980469 127.234375 80.464844 127.199219 80.167969 C 127.117188 79.570312 127.070312 79.1875 126.710938 78.816406 C 126.578125 78.683594 126.269531 78.359375 125.609375 78.183594 Z M 124.488281 78.039062 L 123.148438 78.039062 L 123.148438 74.90625 C 123.148438 74.632812 123.148438 74.488281 123.398438 74.441406 C 123.507812 74.429688 123.863281 74.429688 124.105469 74.429688 C 125.070312 74.429688 126.601562 74.429688 126.601562 76.234375 C 126.601562 77.273438 126.039062 78.039062 124.488281 78.039062 Z M 136.300781 74.988281 C 136.300781 74.546875 136.339844 74.429688 137.199219 74.429688 L 137.4375 74.429688 L 137.4375 74.082031 L 134.199219 74.082031 L 134.199219 74.429688 L 134.4375 74.429688 C 135.296875 74.429688 135.335938 74.546875 135.335938 74.988281 L 135.335938 77.824219 L 131.757812 77.824219 L 131.757812 74.988281 C 131.757812 74.546875 131.796875 74.429688 132.65625 74.429688 L 132.894531 74.429688 L 132.894531 74.082031 L 129.65625 74.082031 L 129.65625 74.429688 L 129.894531 74.429688 C 130.753906 74.429688 130.789062 74.546875 130.789062 74.988281 L 130.789062 81.339844 C 130.789062 81.78125 130.753906 81.898438 129.894531 81.898438 L 129.65625 81.898438 L 129.65625 82.246094 L 132.894531 82.246094 L 132.894531 81.898438 L 132.65625 81.898438 C 131.796875 81.898438 131.757812 81.78125 131.757812 81.339844 L 131.757812 78.171875 L 135.335938 78.171875 L 135.335938 81.339844 C 135.335938 81.78125 135.296875 81.898438 134.4375 81.898438 L 134.199219 81.898438 L 134.199219 82.246094 L 137.4375 82.246094 L 137.4375 81.898438 L 137.199219 81.898438 C 136.339844 81.898438 136.300781 81.78125 136.300781 81.339844 Z M 140.453125 77.261719 C 139.84375 77.105469 139.304688 76.507812 139.304688 75.742188 C 139.304688 74.90625 139.972656 74.152344 140.90625 74.152344 C 142.867188 74.152344 143.128906 76.089844 143.203125 76.605469 C 143.226562 76.746094 143.226562 76.796875 143.34375 76.796875 C 143.476562 76.796875 143.476562 76.734375 143.476562 76.519531 L 143.476562 74.105469 C 143.476562 73.890625 143.476562 73.828125 143.355469 73.828125 C 143.320312 73.828125 143.273438 73.828125 143.1875 73.984375 L 142.796875 74.714844 C 142.222656 73.972656 141.433594 73.828125 140.90625 73.828125 C 139.578125 73.828125 138.609375 74.894531 138.609375 76.113281 C 138.609375 76.6875 138.8125 77.214844 139.257812 77.691406 C 139.675781 78.15625 140.09375 78.265625 140.941406 78.480469 C 141.359375 78.578125 142.019531 78.742188 142.1875 78.816406 C 142.746094 79.089844 143.117188 79.734375 143.117188 80.40625 C 143.117188 81.300781 142.484375 82.152344 141.492188 82.152344 C 140.953125 82.152344 140.214844 82.019531 139.628906 81.503906 C 138.933594 80.882812 138.886719 80.023438 138.875 79.628906 C 138.863281 79.53125 138.765625 79.53125 138.742188 79.53125 C 138.609375 79.53125 138.609375 79.59375 138.609375 79.808594 L 138.609375 82.222656 C 138.609375 82.4375 138.609375 82.496094 138.730469 82.496094 C 138.800781 82.496094 138.8125 82.472656 138.898438 82.328125 C 138.945312 82.234375 139.195312 81.792969 139.292969 81.613281 C 139.722656 82.089844 140.476562 82.496094 141.503906 82.496094 C 142.84375 82.496094 143.8125 81.363281 143.8125 80.046875 C 143.8125 79.316406 143.535156 78.78125 143.214844 78.386719 C 142.769531 77.847656 142.234375 77.714844 141.765625 77.597656 Z M 146.664062 77.667969 C 146.664062 77.34375 146.390625 77.09375 146.089844 77.09375 C 145.746094 77.09375 145.503906 77.367188 145.503906 77.667969 C 145.503906 78.027344 145.804688 78.253906 146.078125 78.253906 C 146.402344 78.253906 146.664062 78.003906 146.664062 77.667969 Z M 146.664062 81.660156 C 146.664062 81.339844 146.390625 81.085938 146.089844 81.085938 C 145.746094 81.085938 145.503906 81.363281 145.503906 81.660156 C 145.503906 82.019531 145.804688 82.246094 146.078125 82.246094 C 146.402344 82.246094 146.664062 81.996094 146.664062 81.660156 Z M 156.066406 74.894531 C 156.171875 74.453125 156.21875 74.429688 156.6875 74.429688 L 157.546875 74.429688 C 158.574219 74.429688 159.339844 74.738281 159.339844 75.671875 C 159.339844 76.28125 159.03125 78.039062 156.628906 78.039062 L 155.277344 78.039062 Z M 157.726562 78.183594 C 159.210938 77.859375 160.367188 76.902344 160.367188 75.875 C 160.367188 74.941406 159.425781 74.082031 157.761719 74.082031 L 154.523438 74.082031 C 154.285156 74.082031 154.175781 74.082031 154.175781 74.308594 C 154.175781 74.429688 154.257812 74.429688 154.488281 74.429688 C 155.203125 74.429688 155.203125 74.523438 155.203125 74.65625 C 155.203125 74.679688 155.203125 74.75 155.15625 74.929688 L 153.542969 81.363281 C 153.433594 81.78125 153.410156 81.898438 152.585938 81.898438 C 152.3125 81.898438 152.226562 81.898438 152.226562 82.128906 C 152.226562 82.246094 152.359375 82.246094 152.394531 82.246094 C 152.609375 82.246094 152.859375 82.222656 153.089844 82.222656 L 154.496094 82.222656 C 154.714844 82.222656 154.964844 82.246094 155.179688 82.246094 C 155.277344 82.246094 155.40625 82.246094 155.40625 82.019531 C 155.40625 81.898438 155.300781 81.898438 155.121094 81.898438 C 154.390625 81.898438 154.390625 81.804688 154.390625 81.683594 C 154.390625 81.671875 154.390625 81.589844 154.414062 81.492188 L 155.214844 78.277344 L 156.648438 78.277344 C 157.785156 78.277344 158.003906 78.996094 158.003906 79.390625 C 158.003906 79.570312 157.882812 80.035156 157.796875 80.347656 C 157.667969 80.894531 157.632812 81.027344 157.632812 81.253906 C 157.632812 82.105469 158.324219 82.496094 159.125 82.496094 C 160.09375 82.496094 160.511719 81.3125 160.511719 81.148438 C 160.511719 81.0625 160.453125 81.027344 160.378906 81.027344 C 160.285156 81.027344 160.261719 81.097656 160.238281 81.195312 C 159.949219 82.042969 159.460938 82.257812 159.160156 82.257812 C 158.863281 82.257812 158.671875 82.128906 158.671875 81.589844 C 158.671875 81.300781 158.8125 80.214844 158.828125 80.15625 C 158.886719 79.710938 158.886719 79.664062 158.886719 79.570312 C 158.886719 78.695312 158.179688 78.324219 157.726562 78.183594 Z M 163.277344 78.515625 L 162.144531 79.585938 L 162.304688 79.773438 L 163.277344 78.984375 L 164.25 79.773438 L 164.410156 79.589844 Z M 165.675781 81.128906 C 165.675781 80.882812 165.601562 80.523438 165.289062 80.523438 C 165.074219 80.523438 164.867188 80.722656 164.867188 80.945312 C 164.867188 81.066406 164.957031 81.136719 165.046875 81.21875 C 165.164062 81.335938 165.285156 81.542969 165.285156 81.839844 C 165.285156 82.371094 164.734375 83.503906 163.9375 83.503906 C 163.523438 83.503906 163.234375 83.257812 163.140625 82.875 C 163.265625 82.605469 163.433594 82.164062 163.433594 81.941406 C 163.433594 81.808594 163.371094 81.703125 163.21875 81.703125 C 162.859375 81.703125 162.8125 82.589844 162.8125 82.84375 C 162.535156 83.179688 162.207031 83.503906 161.746094 83.503906 C 161.234375 83.503906 160.996094 83.097656 160.996094 82.628906 C 160.996094 82.253906 161.097656 81.917969 161.257812 81.609375 C 161.488281 81.144531 161.800781 80.84375 161.800781 80.714844 C 161.800781 80.628906 161.730469 80.5625 161.640625 80.5625 C 161.488281 80.5625 161.371094 80.796875 161.28125 80.9375 C 160.941406 81.503906 160.691406 82.246094 160.691406 82.90625 C 160.691406 83.519531 160.925781 84.117188 161.625 84.117188 C 162.3125 84.117188 162.699219 83.570312 162.878906 83.34375 C 162.996094 83.785156 163.324219 84.128906 163.808594 84.128906 C 164.464844 84.128906 164.789062 83.703125 165.117188 83.152344 C 165.371094 82.730469 165.675781 81.632812 165.675781 81.128906 Z M 170.550781 85.152344 C 170.550781 85.117188 170.550781 85.09375 170.347656 84.890625 C 169.152344 83.683594 168.480469 81.710938 168.480469 79.269531 C 168.480469 76.949219 169.042969 74.953125 170.429688 73.542969 C 170.550781 73.4375 170.550781 73.410156 170.550781 73.375 C 170.550781 73.304688 170.492188 73.28125 170.441406 73.28125 C 170.289062 73.28125 169.308594 74.140625 168.722656 75.3125 C 168.113281 76.519531 167.835938 77.800781 167.835938 79.269531 C 167.835938 80.335938 168.003906 81.757812 168.625 83.035156 C 169.332031 84.472656 170.3125 85.246094 170.441406 85.246094 C 170.492188 85.246094 170.550781 85.222656 170.550781 85.152344 Z M 176.460938 76.234375 C 176.460938 75.015625 176.078125 73.828125 175.097656 73.828125 C 173.425781 73.828125 171.644531 77.332031 171.644531 79.964844 C 171.644531 80.511719 171.761719 82.367188 173.019531 82.367188 C 174.644531 82.367188 176.460938 78.945312 176.460938 76.234375 Z M 172.839844 77.917969 C 173.019531 77.214844 173.269531 76.210938 173.746094 75.359375 C 174.140625 74.644531 174.5625 74.070312 175.085938 74.070312 C 175.480469 74.070312 175.742188 74.402344 175.742188 75.550781 C 175.742188 75.980469 175.707031 76.578125 175.359375 77.917969 Z M 175.277344 78.277344 C 174.980469 79.449219 174.726562 80.203125 174.296875 80.957031 C 173.949219 81.566406 173.53125 82.128906 173.03125 82.128906 C 172.660156 82.128906 172.359375 81.839844 172.359375 80.65625 C 172.359375 79.878906 172.550781 79.066406 172.742188 78.277344 Z M 180.335938 79.269531 C 180.335938 78.359375 180.21875 76.878906 179.546875 75.492188 C 178.84375 74.058594 177.863281 73.28125 177.730469 73.28125 C 177.683594 73.28125 177.621094 73.304688 177.621094 73.375 C 177.621094 73.410156 177.621094 73.4375 177.824219 73.640625 C 179.019531 74.847656 179.691406 76.820312 179.691406 79.257812 C 179.691406 81.578125 179.128906 83.574219 177.742188 84.984375 C 177.621094 85.09375 177.621094 85.117188 177.621094 85.152344 C 177.621094 85.222656 177.683594 85.246094 177.730469 85.246094 C 177.886719 85.246094 178.867188 84.386719 179.453125 83.214844 C 180.0625 81.996094 180.335938 80.703125 180.335938 79.269531 Z M 187.445312 74.882812 C 187.445312 74.570312 187.195312 74.296875 186.859375 74.296875 C 186.550781 74.296875 186.285156 74.546875 186.285156 74.871094 C 186.285156 75.230469 186.574219 75.457031 186.859375 75.457031 C 187.230469 75.457031 187.445312 75.144531 187.445312 74.882812 Z M 185.796875 77.105469 L 185.796875 77.453125 C 186.5625 77.453125 186.667969 77.523438 186.667969 78.109375 L 186.667969 81.363281 C 186.667969 81.898438 186.535156 81.898438 185.761719 81.898438 L 185.761719 82.246094 L 188.246094 82.246094 L 188.246094 81.898438 C 187.46875 81.898438 187.421875 81.839844 187.421875 81.375 L 187.421875 76.976562 Z M 192.488281 77.191406 C 192.488281 76.976562 192.488281 76.914062 192.367188 76.914062 C 192.269531 76.914062 192.042969 77.179688 191.960938 77.285156 C 191.589844 76.988281 191.21875 76.914062 190.835938 76.914062 C 189.390625 76.914062 188.960938 77.703125 188.960938 78.359375 C 188.960938 78.492188 188.960938 78.910156 189.414062 79.328125 C 189.796875 79.664062 190.203125 79.746094 190.753906 79.855469 C 191.410156 79.988281 191.566406 80.023438 191.863281 80.261719 C 192.078125 80.441406 192.234375 80.703125 192.234375 81.039062 C 192.234375 81.554688 191.9375 82.128906 190.882812 82.128906 C 190.09375 82.128906 189.519531 81.671875 189.257812 80.476562 C 189.210938 80.261719 189.210938 80.25 189.199219 80.238281 C 189.175781 80.191406 189.128906 80.191406 189.089844 80.191406 C 188.960938 80.191406 188.960938 80.25 188.960938 80.464844 L 188.960938 82.089844 C 188.960938 82.308594 188.960938 82.367188 189.078125 82.367188 C 189.140625 82.367188 189.152344 82.355469 189.355469 82.105469 C 189.414062 82.019531 189.414062 81.996094 189.59375 81.804688 C 190.046875 82.367188 190.691406 82.367188 190.894531 82.367188 C 192.152344 82.367188 192.773438 81.671875 192.773438 80.730469 C 192.773438 80.082031 192.378906 79.699219 192.269531 79.59375 C 191.839844 79.222656 191.519531 79.148438 190.730469 79.007812 C 190.371094 78.933594 189.496094 78.769531 189.496094 78.050781 C 189.496094 77.679688 189.75 77.128906 190.824219 77.128906 C 192.128906 77.128906 192.199219 78.242188 192.222656 78.613281 C 192.234375 78.707031 192.320312 78.707031 192.355469 78.707031 C 192.488281 78.707031 192.488281 78.648438 192.488281 78.433594 Z M 204.960938 74.105469 C 204.960938 73.890625 204.960938 73.828125 204.839844 73.828125 C 204.769531 73.828125 204.757812 73.855469 204.683594 73.972656 L 204.097656 74.917969 C 203.5625 74.25 202.746094 73.828125 201.886719 73.828125 C 199.699219 73.828125 197.8125 75.71875 197.8125 78.15625 C 197.8125 80.632812 199.722656 82.496094 201.886719 82.496094 C 203.847656 82.496094 204.960938 80.789062 204.960938 79.472656 C 204.960938 79.34375 204.960938 79.269531 204.828125 79.269531 C 204.710938 79.269531 204.695312 79.328125 204.695312 79.414062 C 204.589844 81.3125 203.203125 82.152344 202.042969 82.152344 C 201.207031 82.152344 198.921875 81.648438 198.921875 78.15625 C 198.921875 74.703125 201.171875 74.175781 202.03125 74.175781 C 203.285156 74.175781 204.386719 75.242188 204.625 77.035156 C 204.648438 77.179688 204.648438 77.214844 204.792969 77.214844 C 204.960938 77.214844 204.960938 77.179688 204.960938 76.9375 Z M 213.359375 74.105469 C 213.359375 73.890625 213.359375 73.828125 213.242188 73.828125 C 213.167969 73.828125 213.15625 73.855469 213.085938 73.972656 L 212.5 74.917969 C 211.960938 74.25 211.148438 73.828125 210.289062 73.828125 C 208.101562 73.828125 206.210938 75.71875 206.210938 78.15625 C 206.210938 80.632812 208.125 82.496094 210.289062 82.496094 C 212.246094 82.496094 213.359375 80.789062 213.359375 79.472656 C 213.359375 79.34375 213.359375 79.269531 213.230469 79.269531 C 213.109375 79.269531 213.097656 79.328125 213.097656 79.414062 C 212.988281 81.3125 211.601562 82.152344 210.441406 82.152344 C 209.605469 82.152344 207.324219 81.648438 207.324219 78.15625 C 207.324219 74.703125 209.570312 74.175781 210.429688 74.175781 C 211.6875 74.175781 212.785156 75.242188 213.023438 77.035156 C 213.050781 77.179688 213.050781 77.214844 213.191406 77.214844 C 213.359375 77.214844 213.359375 77.179688 213.359375 76.9375 Z M 224.640625 75.253906 C 224.832031 74.679688 225.179688 74.441406 225.777344 74.429688 L 225.777344 74.082031 L 223.46875 74.082031 L 223.46875 74.429688 C 224.199219 74.441406 224.414062 74.824219 224.414062 75.0625 C 224.414062 75.121094 224.378906 75.21875 224.355469 75.300781 L 222.535156 80.96875 L 220.601562 74.953125 C 220.589844 74.917969 220.5625 74.824219 220.5625 74.785156 C 220.5625 74.429688 221.199219 74.429688 221.484375 74.429688 L 221.484375 74.082031 L 218.578125 74.082031 L 218.578125 74.429688 C 219.214844 74.429688 219.382812 74.464844 219.511719 74.679688 C 219.597656 74.835938 219.679688 75.203125 219.835938 75.636719 L 218.125 80.96875 L 216.214844 75.015625 C 216.152344 74.847656 216.152344 74.824219 216.152344 74.785156 C 216.152344 74.429688 216.761719 74.429688 217.074219 74.429688 L 217.074219 74.082031 L 214.167969 74.082031 L 214.167969 74.429688 C 214.8125 74.429688 215.039062 74.429688 215.183594 74.882812 L 217.550781 82.269531 C 217.613281 82.449219 217.660156 82.496094 217.765625 82.496094 C 217.863281 82.496094 217.921875 82.460938 217.980469 82.28125 L 219.96875 76.078125 L 221.964844 82.28125 C 222.023438 82.460938 222.082031 82.496094 222.179688 82.496094 C 222.285156 82.496094 222.335938 82.449219 222.394531 82.269531 L 224.640625 75.253906 "/>
<path style="fill:none;stroke-width:5;stroke-linecap:round;stroke-linejoin:round;stroke:rgb(0%,0%,100%);stroke-opacity:1;stroke-miterlimit:10;" d="M 1025.234375 1448.203125 C 1267.96875 1412.109375 1454.179688 1202.8125 1454.179688 950.039062 " transform="matrix(0.1,0,0,-0.1,0,275)"/>
<path style=" stroke:none;fill-rule:nonzero;fill:rgb(0%,0%,100%);fill-opacity:1;" d="M 95.050781 129.632812 C 97.542969 130.285156 99.941406 131.117188 102.238281 132.105469 L 102.816406 128.222656 C 100.234375 128.484375 97.640625 128.949219 95.050781 129.632812 "/>
<path style="fill:none;stroke-width:5;stroke-linecap:round;stroke-linejoin:round;stroke:rgb(0%,0%,100%);stroke-opacity:1;stroke-miterlimit:10;" d="M 950.507812 1453.671875 C 975.429688 1447.148438 999.414062 1438.828125 1022.382812 1428.945312 L 1028.164062 1467.773438 C 1002.34375 1465.15625 976.40625 1460.507812 950.507812 1453.671875 Z M 950.507812 1453.671875 " transform="matrix(0.1,0,0,-0.1,0,275)"/>
<path style="fill:none;stroke-width:5;stroke-linecap:round;stroke-linejoin:round;stroke:rgb(0%,0%,100%);stroke-opacity:1;stroke-miterlimit:10;" d="M 616.71875 689.21875 C 634.882812 1043.945312 777.421875 1448.476562 950.507812 1621.5625 " transform="matrix(0.1,0,0,-0.1,0,275)"/>
<path style=" stroke:none;fill-rule:nonzero;fill:rgb(0%,0%,100%);fill-opacity:1;" d="M 61.472656 213.574219 C 62.125 211.125 62.855469 208.65625 63.65625 206.179688 L 59.671875 205.976562 C 60.214844 208.558594 60.8125 211.09375 61.472656 213.574219 "/>
<path style="fill:none;stroke-width:5;stroke-linecap:round;stroke-linejoin:round;stroke:rgb(0%,0%,100%);stroke-opacity:1;stroke-miterlimit:10;" d="M 614.726562 614.257812 C 621.25 638.75 628.554688 663.4375 636.5625 688.203125 L 596.71875 690.234375 C 602.148438 664.414062 608.125 639.0625 614.726562 614.257812 Z M 614.726562 614.257812 " transform="matrix(0.1,0,0,-0.1,0,275)"/>
<path style="fill:none;stroke-width:5;stroke-linecap:round;stroke-linejoin:round;stroke:rgb(0%,0%,100%);stroke-opacity:1;stroke-miterlimit:10;" d="M 1734.101562 900.039062 C 1476.445312 691.796875 960.585938 530.3125 530.78125 530.3125 " transform="matrix(0.1,0,0,-0.1,0,275)"/>
<path style=" stroke:none;fill-rule:nonzero;fill:rgb(0%,0%,100%);fill-opacity:1;" d="M 178.996094 179.996094 C 176.886719 181.222656 174.605469 182.382812 172.171875 183.464844 L 174.660156 186.542969 C 176.289062 184.34375 177.738281 182.160156 178.996094 179.996094 "/>
<path style="fill:none;stroke-width:5;stroke-linecap:round;stroke-linejoin:round;stroke:rgb(0%,0%,100%);stroke-opacity:1;stroke-miterlimit:10;" d="M 1789.960938 950.039062 C 1768.867188 937.773438 1746.054688 926.171875 1721.71875 915.351562 L 1746.601562 884.570312 C 1762.890625 906.5625 1777.382812 928.398438 1789.960938 950.039062 Z M 1789.960938 950.039062 " transform="matrix(0.1,0,0,-0.1,0,275)"/>
</g>
</svg>
