<?xml version="1.0" encoding="UTF-8"?>
<svg xmlns="http://www.w3.org/2000/svg" xmlns:xlink="http://www.w3.org/1999/xlink" width="277pt" height="275pt" viewBox="0 0 277 275" version="1.1">
<g id="surface1">
<path style="fill:none;stroke-width:5;stroke-linecap:round;stroke-linejoin:round;stroke:rgb(0%,0%,0%);stroke-opacity:1;stroke-miterlimit:10;" d="M 164.101562 163.59375 L 950.507812 950.039062 " transform="matrix(0.1,0,0,-0.1,0,275)"/>
<path style=" stroke:none;fill-rule:nonzero;fill:rgb(0%,0%,0%);fill-opacity:1;" d="M 11.105469 263.941406 L 17.832031 260.058594 L 14.988281 257.21875 L 11.105469 263.941406 "/>
<path style="fill:none;stroke-width:5;stroke-linecap:round;stroke-linejoin:round;stroke:rgb(0%,0%,0%);stroke-opacity:1;stroke-miterlimit:10;" d="M 111.054688 110.585938 L 178.320312 149.414062 L 149.882812 177.8125 Z M 111.054688 110.585938 " transform="matrix(0.1,0,0,-0.1,0,275)"/>
<path style=" stroke:none;fill-rule:nonzero;fill:rgb(0%,0%,0%);fill-opacity:1;" d="M 8.441406 266.847656 C 8.511719 266.765625 8.570312 266.695312 8.570312 266.574219 C 8.570312 266.488281 8.558594 266.476562 8.285156 266.476562 L 3.347656 266.476562 C 3.074219 266.476562 3.058594 266.488281 2.988281 266.707031 L 2.332031 268.855469 C 2.296875 268.976562 2.296875 269 2.296875 269.023438 C 2.296875 269.074219 2.332031 269.144531 2.414062 269.144531 C 2.511719 269.144531 2.535156 269.097656 2.582031 268.941406 C 3.023438 267.648438 3.609375 266.824219 5.5 266.824219 L 7.460938 266.824219 L 0.90625 274.238281 C 0.800781 274.367188 0.753906 274.417969 0.753906 274.546875 C 0.753906 274.644531 0.8125 274.644531 1.039062 274.644531 L 6.144531 274.644531 C 6.417969 274.644531 6.429688 274.632812 6.503906 274.417969 L 7.339844 271.773438 C 7.351562 271.738281 7.375 271.65625 7.375 271.605469 C 7.375 271.546875 7.328125 271.488281 7.257812 271.488281 C 7.160156 271.488281 7.148438 271.5 7.054688 271.796875 C 6.550781 273.339844 6.023438 274.273438 3.945312 274.273438 L 1.875 274.273438 L 8.441406 266.847656 "/>
<path style="fill:none;stroke-width:5;stroke-linecap:round;stroke-linejoin:round;stroke:rgb(0%,0%,0%);stroke-opacity:1;stroke-miterlimit:10;" d="M 950.507812 2553.90625 L 950.507812 950.039062 " transform="matrix(0.1,0,0,-0.1,0,275)"/>
<path style=" stroke:none;fill-rule:nonzero;fill:rgb(0%,0%,0%);fill-opacity:1;" d="M 95.050781 12.109375 L 93.042969 19.609375 L 97.0625 19.609375 L 95.050781 12.109375 "/>
<path style="fill:none;stroke-width:5;stroke-linecap:round;stroke-linejoin:round;stroke:rgb(0%,0%,0%);stroke-opacity:1;stroke-miterlimit:10;" d="M 950.507812 2628.90625 L 930.429688 2553.90625 L 970.625 2553.90625 Z M 950.507812 2628.90625 " transform="matrix(0.1,0,0,-0.1,0,275)"/>
<path style=" stroke:none;fill-rule:nonzero;fill:rgb(0%,0%,0%);fill-opacity:1;" d="M 97.417969 1.683594 L 97.695312 1.410156 C 98.21875 0.871094 98.664062 0.738281 99.082031 0.703125 C 99.210938 0.691406 99.320312 0.679688 99.320312 0.476562 C 99.320312 0.355469 99.199219 0.355469 99.175781 0.355469 L 97.191406 0.355469 C 97.109375 0.355469 96.976562 0.355469 96.976562 0.585938 C 96.976562 0.691406 97.097656 0.703125 97.132812 0.703125 C 97.492188 0.726562 97.492188 0.90625 97.492188 0.976562 C 97.492188 1.109375 97.394531 1.289062 97.15625 1.5625 L 94.3125 4.828125 L 92.960938 1.191406 C 92.886719 1.027344 92.886719 1.003906 92.886719 0.976562 C 92.886719 0.726562 93.378906 0.703125 93.523438 0.703125 C 93.664062 0.703125 93.796875 0.703125 93.796875 0.488281 C 93.796875 0.355469 93.6875 0.355469 93.617188 0.355469 C 93.414062 0.355469 93.175781 0.378906 92.972656 0.378906 L 91.644531 0.378906 C 91.429688 0.378906 91.203125 0.355469 91 0.355469 C 90.914062 0.355469 90.785156 0.355469 90.785156 0.585938 C 90.785156 0.703125 90.890625 0.703125 91.070312 0.703125 C 91.65625 0.703125 91.765625 0.8125 91.871094 1.085938 L 93.355469 5.066406 C 93.367188 5.101562 93.402344 5.234375 93.402344 5.269531 C 93.402344 5.304688 92.816406 7.660156 92.78125 7.78125 C 92.683594 8.101562 92.566406 8.164062 91.800781 8.175781 C 91.597656 8.175781 91.5 8.175781 91.5 8.402344 C 91.5 8.523438 91.632812 8.523438 91.667969 8.523438 C 91.882812 8.523438 92.136719 8.496094 92.363281 8.496094 L 93.773438 8.496094 C 93.988281 8.496094 94.238281 8.523438 94.453125 8.523438 C 94.539062 8.523438 94.679688 8.523438 94.679688 8.304688 C 94.679688 8.175781 94.597656 8.175781 94.394531 8.175781 C 93.652344 8.175781 93.652344 8.089844 93.652344 7.960938 C 93.652344 7.875 93.75 7.492188 93.808594 7.253906 L 94.238281 5.53125 C 94.3125 5.28125 94.3125 5.257812 94.417969 5.136719 L 97.417969 1.683594 "/>
<path style="fill:none;stroke-width:5;stroke-linecap:round;stroke-linejoin:round;stroke:rgb(0%,0%,0%);stroke-opacity:1;stroke-miterlimit:10;" d="M 2554.414062 950.039062 L 950.507812 950.039062 " transform="matrix(0.1,0,0,-0.1,0,275)"/>
<path style=" stroke:none;fill-rule:nonzero;fill:rgb(0%,0%,0%);fill-opacity:1;" d="M 262.941406 179.996094 L 255.441406 177.988281 L 255.441406 182.007812 L 262.941406 179.996094 "/>
<path style="fill:none;stroke-width:5;stroke-linecap:round;stroke-linejoin:round;stroke:rgb(0%,0%,0%);stroke-opacity:1;stroke-miterlimit:10;" d="M 2629.414062 950.039062 L 2554.414062 970.117188 L 2554.414062 929.921875 Z M 2629.414062 950.039062 " transform="matrix(0.1,0,0,-0.1,0,275)"/>
<path style=" stroke:none;fill-rule:nonzero;fill:rgb(0%,0%,0%);fill-opacity:1;" d="M 271.90625 179.226562 L 270.785156 176.609375 C 270.9375 176.320312 271.296875 176.273438 271.441406 176.261719 C 271.511719 176.261719 271.644531 176.25 271.644531 176.046875 C 271.644531 175.914062 271.535156 175.914062 271.464844 175.914062 C 271.261719 175.914062 271.023438 175.9375 270.820312 175.9375 L 270.125 175.9375 C 269.398438 175.9375 268.871094 175.914062 268.859375 175.914062 C 268.761719 175.914062 268.644531 175.914062 268.644531 176.140625 C 268.644531 176.261719 268.753906 176.261719 268.90625 176.261719 C 269.601562 176.261719 269.648438 176.382812 269.769531 176.667969 L 271.191406 179.992188 L 268.597656 182.765625 C 268.164062 183.230469 267.652344 183.683594 266.765625 183.734375 C 266.621094 183.746094 266.527344 183.746094 266.527344 183.960938 C 266.527344 183.996094 266.539062 184.082031 266.671875 184.082031 L 268.917969 184.082031 C 269.003906 184.082031 269.144531 184.082031 269.144531 183.863281 C 269.144531 183.746094 269.0625 183.734375 268.992188 183.734375 C 268.753906 183.710938 268.597656 183.578125 268.597656 183.386719 C 268.597656 183.183594 268.738281 183.039062 269.085938 182.679688 L 270.148438 181.523438 C 270.414062 181.246094 271.046875 180.554688 271.308594 180.289062 L 272.566406 183.230469 C 272.578125 183.253906 272.625 183.375 272.625 183.386719 C 272.625 183.492188 272.363281 183.710938 271.980469 183.734375 C 271.90625 183.734375 271.777344 183.746094 271.777344 183.960938 C 271.777344 184.082031 271.894531 184.082031 271.953125 184.082031 C 272.160156 184.082031 272.398438 184.054688 272.601562 184.054688 L 273.914062 184.054688 C 274.132812 184.054688 274.359375 184.082031 274.5625 184.082031 C 274.644531 184.082031 274.777344 184.082031 274.777344 183.851562 C 274.777344 183.734375 274.65625 183.734375 274.550781 183.734375 C 273.832031 183.722656 273.808594 183.660156 273.605469 183.21875 L 272.027344 179.511719 L 273.546875 177.886719 C 273.664062 177.769531 273.941406 177.46875 274.046875 177.347656 C 274.5625 176.8125 275.039062 176.320312 276.007812 176.261719 C 276.128906 176.25 276.246094 176.25 276.246094 176.046875 C 276.246094 175.914062 276.140625 175.914062 276.09375 175.914062 L 273.855469 175.914062 C 273.773438 175.914062 273.628906 175.914062 273.628906 176.128906 C 273.628906 176.25 273.714844 176.261719 273.785156 176.261719 C 273.976562 176.285156 274.179688 176.382812 274.179688 176.609375 L 274.167969 176.632812 C 274.15625 176.714844 274.132812 176.835938 274 176.976562 L 271.90625 179.226562 "/>
<path style="fill:none;stroke-width:5;stroke-linecap:round;stroke-linejoin:round;stroke:rgb(100%,50%,0%);stroke-opacity:1;stroke-dasharray:117.98,78.653;stroke-miterlimit:10;" d="M 950.507812 950.039062 L 1975.507812 1746.015625 " transform="matrix(0.1,0,0,-0.1,0,275)"/>
<path style=" stroke:none;fill-rule:nonzero;fill:rgb(100%,50%,0%);fill-opacity:1;" d="M 148.578125 154.78125 C 148.5625 154.867188 148.527344 154.972656 148.527344 155.074219 C 148.527344 155.332031 148.734375 155.503906 148.992188 155.503906 C 149.25 155.503906 149.492188 155.332031 149.59375 155.09375 C 149.664062 154.9375 150.144531 152.871094 150.695312 150.753906 C 151.039062 151.613281 151.679688 151.976562 152.351562 151.976562 C 154.296875 151.976562 156.5 149.566406 156.5 146.964844 C 156.5 145.125 155.378906 144.210938 154.191406 144.210938 C 152.675781 144.210938 150.835938 145.777344 150.265625 148.066406 Z M 152.332031 151.632812 C 151.160156 151.632812 150.871094 150.269531 150.871094 150.066406 C 150.871094 149.960938 151.300781 148.324219 151.351562 148.066406 C 152.230469 144.640625 153.914062 144.554688 154.175781 144.554688 C 154.949219 144.554688 155.378906 145.261719 155.378906 146.277344 C 155.378906 147.15625 154.914062 148.859375 154.621094 149.582031 C 154.105469 150.769531 153.210938 151.632812 152.332031 151.632812 "/>
<path style="fill:none;stroke-width:5;stroke-linecap:round;stroke-linejoin:round;stroke:rgb(100%,0%,0%);stroke-opacity:1;stroke-dasharray:40.1472,40.1472;stroke-miterlimit:10;" d="M 950.507812 950.039062 L 1975.507812 397.851562 " transform="matrix(0.1,0,0,-0.1,0,275)"/>
<path style=" stroke:none;fill-rule:nonzero;fill:rgb(100%,0%,0%);fill-opacity:1;" d="M 144.839844 212.628906 C 144.304688 212.734375 144.03125 213.113281 144.03125 213.492188 C 144.03125 213.90625 144.359375 214.042969 144.597656 214.042969 C 145.082031 214.042969 145.476562 213.628906 145.476562 213.113281 C 145.476562 212.5625 144.941406 212.078125 144.082031 212.078125 C 143.394531 212.078125 142.601562 212.390625 141.878906 213.441406 C 141.757812 212.527344 141.070312 212.078125 140.382812 212.078125 C 139.710938 212.078125 139.363281 212.597656 139.160156 212.972656 C 138.867188 213.59375 138.609375 214.628906 138.609375 214.714844 C 138.609375 214.78125 138.675781 214.867188 138.796875 214.867188 C 138.933594 214.867188 138.953125 214.851562 139.054688 214.457031 C 139.3125 213.421875 139.640625 212.421875 140.328125 212.421875 C 140.742188 212.421875 140.863281 212.714844 140.863281 213.214844 C 140.863281 213.59375 140.691406 214.265625 140.570312 214.800781 L 140.089844 216.660156 C 140.019531 216.984375 139.828125 217.761719 139.742188 218.070312 C 139.621094 218.519531 139.433594 219.328125 139.433594 219.414062 C 139.433594 219.65625 139.621094 219.84375 139.882812 219.84375 C 140.070312 219.84375 140.398438 219.722656 140.503906 219.378906 C 140.554688 219.242188 141.191406 216.640625 141.292969 216.246094 C 141.378906 215.867188 141.484375 215.507812 141.570312 215.125 C 141.636719 214.886719 141.707031 214.609375 141.757812 214.386719 C 141.808594 214.230469 142.273438 213.386719 142.703125 213.007812 C 142.910156 212.820312 143.359375 212.421875 144.066406 212.421875 C 144.339844 212.421875 144.617188 212.476562 144.839844 212.628906 "/>
<path style="fill:none;stroke-width:5;stroke-linecap:round;stroke-linejoin:round;stroke:rgb(100%,0%,0%);stroke-opacity:1;stroke-miterlimit:10;" d="M 1874.179688 452.421875 L 1874.179688 642.8125 L 1975.507812 588.203125 " transform="matrix(0.1,0,0,-0.1,0,275)"/>
<path style="fill:none;stroke-width:5;stroke-linecap:round;stroke-linejoin:round;stroke:rgb(100%,0%,0%);stroke-opacity:1;stroke-dasharray:40.8534,40.8534;stroke-miterlimit:10;" d="M 1975.507812 397.851562 L 1975.507812 1746.015625 " transform="matrix(0.1,0,0,-0.1,0,275)"/>
<path style=" stroke:none;fill-rule:nonzero;fill:rgb(100%,0%,0%);fill-opacity:1;" d="M 206.695312 171.773438 C 206.230469 172.429688 205.558594 173.015625 204.714844 173.015625 C 204.511719 173.015625 203.683594 172.980469 203.425781 172.1875 C 203.476562 172.203125 203.5625 172.203125 203.597656 172.203125 C 204.113281 172.203125 204.457031 171.757812 204.457031 171.363281 C 204.457031 170.964844 204.132812 170.828125 203.871094 170.828125 C 203.597656 170.828125 202.996094 171.035156 202.996094 171.878906 C 202.996094 172.757812 203.734375 173.359375 204.714844 173.359375 C 206.4375 173.359375 208.175781 171.773438 208.660156 169.863281 L 210.347656 163.148438 C 210.363281 163.0625 210.398438 162.960938 210.398438 162.855469 C 210.398438 162.597656 210.191406 162.425781 209.933594 162.425781 C 209.777344 162.425781 209.414062 162.496094 209.277344 163.011719 L 208.003906 168.074219 C 207.917969 168.382812 207.917969 168.417969 207.78125 168.605469 C 207.4375 169.089844 206.867188 169.675781 206.042969 169.675781 C 205.078125 169.675781 204.992188 168.726562 204.992188 168.261719 C 204.992188 167.28125 205.457031 165.957031 205.921875 164.71875 C 206.109375 164.21875 206.214844 163.976562 206.214844 163.632812 C 206.214844 162.910156 205.699219 162.253906 204.855469 162.253906 C 203.269531 162.253906 202.632812 164.75 202.632812 164.890625 C 202.632812 164.957031 202.703125 165.042969 202.824219 165.042969 C 202.976562 165.042969 202.996094 164.976562 203.0625 164.734375 C 203.476562 163.289062 204.132812 162.597656 204.800781 162.597656 C 204.957031 162.597656 205.25 162.597656 205.25 163.167969 C 205.25 163.613281 205.0625 164.113281 204.800781 164.769531 C 203.960938 167.023438 203.960938 167.59375 203.960938 168.003906 C 203.960938 169.640625 205.128906 170.019531 205.988281 170.019531 C 206.488281 170.019531 207.109375 169.863281 207.710938 169.226562 L 207.730469 169.242188 C 207.472656 170.261719 207.296875 170.933594 206.695312 171.773438 "/>
<path style="fill:none;stroke-width:10;stroke-linecap:round;stroke-linejoin:round;stroke:rgb(50%,0%,0%);stroke-opacity:1;stroke-dasharray:0,30.0244;stroke-miterlimit:10;" d="M 1975.507812 397.851562 L 2527.695312 950.039062 " transform="matrix(0.1,0,0,-0.1,0,275)"/>
<path style="fill:none;stroke-width:5;stroke-linecap:round;stroke-linejoin:round;stroke:rgb(50%,0%,0%);stroke-opacity:1;stroke-miterlimit:10;" d="M 2432.539062 854.84375 L 2242.148438 854.84375 L 2337.34375 950.039062 " transform="matrix(0.1,0,0,-0.1,0,275)"/>
<path style="fill:none;stroke-width:5;stroke-linecap:round;stroke-linejoin:round;stroke:rgb(100%,0%,0%);stroke-opacity:1;stroke-dasharray:40.1472,40.1472;stroke-miterlimit:10;" d="M 1975.507812 1746.015625 L 950.507812 2298.203125 " transform="matrix(0.1,0,0,-0.1,0,275)"/>
<path style="fill:none;stroke-width:5;stroke-linecap:round;stroke-linejoin:round;stroke:rgb(100%,0%,0%);stroke-opacity:1;stroke-miterlimit:10;" d="M 1051.875 2243.59375 L 1051.875 2053.242188 L 950.507812 2107.8125 " transform="matrix(0.1,0,0,-0.1,0,275)"/>
<path style="fill:none;stroke-width:5;stroke-linecap:round;stroke-linejoin:round;stroke:rgb(0%,0%,100%);stroke-opacity:1;stroke-miterlimit:10;" d="M 1286.914062 836.601562 C 1355.46875 870.703125 1413.398438 909.21875 1454.179688 950.039062 " transform="matrix(0.1,0,0,-0.1,0,275)"/>
<path style=" stroke:none;fill-rule:nonzero;fill:rgb(0%,0%,100%);fill-opacity:1;" d="M 121.867188 194.445312 C 124.53125 194.09375 127.113281 193.667969 129.601562 193.160156 L 127.796875 189.53125 C 125.933594 191.191406 123.953125 192.832031 121.867188 194.445312 "/>
<path style="fill:none;stroke-width:5;stroke-linecap:round;stroke-linejoin:round;stroke:rgb(0%,0%,100%);stroke-opacity:1;stroke-miterlimit:10;" d="M 1218.671875 805.546875 C 1245.3125 809.0625 1271.132812 813.320312 1296.015625 818.398438 L 1277.96875 854.6875 C 1259.335938 838.085938 1239.53125 821.679688 1218.671875 805.546875 Z M 1218.671875 805.546875 " transform="matrix(0.1,0,0,-0.1,0,275)"/>
<path style=" stroke:none;fill-rule:nonzero;fill:rgb(0%,0%,100%);fill-opacity:1;" d="M 149.742188 179.996094 C 149.742188 179.84375 149.621094 179.84375 149.566406 179.84375 C 149.414062 179.84375 149.394531 179.878906 149.328125 180.167969 L 148.398438 183.871094 C 148.347656 184.09375 148.328125 184.113281 148.3125 184.128906 C 148.296875 184.164062 148.175781 184.179688 148.140625 184.179688 C 145.316406 184.421875 143.148438 186.746094 143.148438 188.898438 C 143.148438 190.757812 144.574219 191.894531 146.367188 191.996094 C 146.230469 192.53125 146.109375 193.082031 145.96875 193.613281 C 145.730469 194.527344 145.59375 195.09375 145.59375 195.164062 C 145.59375 195.199219 145.59375 195.300781 145.765625 195.300781 C 145.816406 195.300781 145.882812 195.300781 145.917969 195.234375 C 145.953125 195.199219 146.054688 194.785156 146.125 194.5625 L 146.761719 191.996094 C 149.707031 191.84375 151.945312 189.429688 151.945312 187.261719 C 151.945312 185.523438 150.636719 184.285156 148.726562 184.164062 Z M 148.621094 184.507812 C 149.757812 184.578125 150.894531 185.214844 150.894531 186.902344 C 150.894531 188.847656 149.535156 191.429688 146.847656 191.636719 Z M 146.453125 191.652344 C 145.609375 191.601562 144.195312 191.152344 144.195312 189.257812 C 144.195312 187.089844 145.765625 184.679688 148.242188 184.527344 L 146.453125 191.652344 "/>
<path style="fill:none;stroke-width:5;stroke-linecap:round;stroke-linejoin:round;stroke:rgb(0%,0%,100%);stroke-opacity:1;stroke-miterlimit:10;" d="M 1219.140625 1248.4375 C 1153.632812 1423.789062 1057.578125 1563.90625 950.507812 1621.5625 " transform="matrix(0.1,0,0,-0.1,0,275)"/>
<path style=" stroke:none;fill-rule:nonzero;fill:rgb(0%,0%,100%);fill-opacity:1;" d="M 124.339844 157.253906 C 124.242188 154.609375 124.066406 152.003906 123.816406 149.445312 L 120.027344 150.863281 C 121.503906 152.917969 122.945312 155.050781 124.339844 157.253906 "/>
<path style="fill:none;stroke-width:5;stroke-linecap:round;stroke-linejoin:round;stroke:rgb(0%,0%,100%);stroke-opacity:1;stroke-miterlimit:10;" d="M 1243.398438 1177.460938 C 1242.421875 1203.90625 1240.664062 1229.960938 1238.164062 1255.546875 L 1200.273438 1241.367188 C 1215.039062 1220.820312 1229.453125 1199.492188 1243.398438 1177.460938 Z M 1243.398438 1177.460938 " transform="matrix(0.1,0,0,-0.1,0,275)"/>
<path style=" stroke:none;fill-rule:nonzero;fill:rgb(0%,0%,100%);fill-opacity:1;" d="M 122.09375 116.886719 C 122.09375 115.132812 121.542969 113.425781 120.132812 113.425781 C 117.722656 113.425781 115.15625 118.472656 115.15625 122.257812 C 115.15625 123.050781 115.328125 125.71875 117.136719 125.71875 C 119.476562 125.71875 122.09375 120.796875 122.09375 116.886719 Z M 116.878906 119.3125 C 117.136719 118.296875 117.496094 116.851562 118.183594 115.628906 C 118.753906 114.597656 119.355469 113.769531 120.113281 113.769531 C 120.683594 113.769531 121.058594 114.253906 121.058594 115.90625 C 121.058594 116.523438 121.007812 117.386719 120.507812 119.3125 Z M 120.390625 119.828125 C 119.960938 121.519531 119.597656 122.601562 118.976562 123.6875 C 118.476562 124.566406 117.875 125.375 117.152344 125.375 C 116.617188 125.375 116.1875 124.960938 116.1875 123.257812 C 116.1875 122.136719 116.464844 120.96875 116.738281 119.828125 L 120.390625 119.828125 "/>
<path style="fill:none;stroke-width:45;stroke-linecap:round;stroke-linejoin:round;stroke:rgb(0%,0%,0%);stroke-opacity:1;stroke-miterlimit:10;" d="M 1975.507812 1746.015625 L 1975.507812 1746.015625 " transform="matrix(0.1,0,0,-0.1,0,275)"/>
<path style=" stroke:none;fill-rule:nonzero;fill:rgb(0%,0%,0%);fill-opacity:1;" d="M 206.921875 99.21875 L 209.8125 99.21875 C 212.1875 99.21875 214.5625 97.464844 214.5625 95.5 C 214.5625 94.15625 213.425781 92.9375 211.257812 92.9375 L 205.9375 92.9375 C 205.613281 92.9375 205.457031 92.9375 205.457031 93.261719 C 205.457031 93.433594 205.613281 93.433594 205.871094 93.433594 C 206.921875 93.433594 206.921875 93.574219 206.921875 93.761719 C 206.921875 93.796875 206.921875 93.898438 206.851562 94.15625 L 204.527344 103.421875 C 204.371094 104.023438 204.339844 104.195312 203.132812 104.195312 C 202.804688 104.195312 202.632812 104.195312 202.632812 104.503906 C 202.632812 104.695312 202.789062 104.695312 202.890625 104.695312 L 206.921875 104.695312 C 207.058594 104.695312 207.246094 104.695312 207.246094 104.367188 C 207.246094 104.195312 207.09375 104.195312 206.835938 104.195312 C 205.800781 104.195312 205.785156 104.074219 205.785156 103.902344 C 205.785156 103.816406 205.800781 103.695312 205.816406 103.609375 Z M 208.160156 94.105469 C 208.3125 93.46875 208.382812 93.433594 209.054688 93.433594 L 210.757812 93.433594 C 212.050781 93.433594 213.117188 93.847656 213.117188 95.140625 C 213.117188 95.585938 212.894531 97.050781 212.101562 97.84375 C 211.808594 98.152344 210.984375 98.808594 209.414062 98.808594 L 206.988281 98.808594 Z M 220.390625 108.894531 C 220.390625 108.878906 220.390625 108.84375 220.339844 108.789062 C 219.546875 107.980469 217.429688 105.777344 217.429688 100.40625 C 217.429688 95.035156 219.515625 92.851562 220.359375 91.988281 C 220.359375 91.972656 220.390625 91.9375 220.390625 91.886719 C 220.390625 91.835938 220.339844 91.800781 220.269531 91.800781 C 220.082031 91.800781 218.617188 93.074219 217.773438 94.96875 C 216.914062 96.878906 216.671875 98.738281 216.671875 100.390625 C 216.671875 101.628906 216.792969 103.730469 217.828125 105.949219 C 218.652344 107.742188 220.066406 108.996094 220.269531 108.996094 C 220.359375 108.996094 220.390625 108.964844 220.390625 108.894531 Z M 221.757812 107.671875 C 221.742188 107.757812 221.707031 107.863281 221.707031 107.964844 C 221.707031 108.222656 221.914062 108.394531 222.171875 108.394531 C 222.429688 108.394531 222.671875 108.222656 222.773438 107.980469 C 222.84375 107.828125 223.324219 105.761719 223.875 103.644531 C 224.21875 104.503906 224.855469 104.867188 225.527344 104.867188 C 227.472656 104.867188 229.675781 102.457031 229.675781 99.855469 C 229.675781 98.015625 228.558594 97.101562 227.371094 97.101562 C 225.855469 97.101562 224.011719 98.667969 223.445312 100.957031 Z M 225.511719 104.523438 C 224.339844 104.523438 224.046875 103.160156 224.046875 102.953125 C 224.046875 102.851562 224.476562 101.21875 224.53125 100.957031 C 225.40625 97.53125 227.09375 97.445312 227.351562 97.445312 C 228.128906 97.445312 228.558594 98.152344 228.558594 99.167969 C 228.558594 100.046875 228.09375 101.75 227.800781 102.472656 C 227.285156 103.660156 226.390625 104.523438 225.511719 104.523438 Z M 233.28125 104.761719 C 233.28125 103.765625 232.953125 103.023438 232.246094 103.023438 C 231.695312 103.023438 231.421875 103.472656 231.421875 103.851562 C 231.421875 104.230469 231.679688 104.695312 232.265625 104.695312 C 232.488281 104.695312 232.679688 104.625 232.832031 104.46875 C 232.867188 104.4375 232.886719 104.4375 232.902344 104.4375 C 232.9375 104.4375 232.9375 104.675781 232.9375 104.761719 C 232.9375 105.332031 232.832031 106.449219 231.835938 107.570312 C 231.644531 107.777344 231.644531 107.808594 231.644531 107.84375 C 231.644531 107.929688 231.730469 108.015625 231.816406 108.015625 C 231.953125 108.015625 233.28125 106.742188 233.28125 104.761719 Z M 245.050781 96.035156 C 245.050781 94.277344 244.5 92.574219 243.089844 92.574219 C 240.679688 92.574219 238.113281 97.617188 238.113281 101.40625 C 238.113281 102.199219 238.285156 104.867188 240.09375 104.867188 C 242.433594 104.867188 245.050781 99.941406 245.050781 96.035156 Z M 239.835938 98.460938 C 240.09375 97.445312 240.453125 96 241.144531 94.777344 C 241.710938 93.746094 242.3125 92.917969 243.070312 92.917969 C 243.640625 92.917969 244.019531 93.402344 244.019531 95.054688 C 244.019531 95.671875 243.964844 96.535156 243.46875 98.460938 Z M 243.347656 98.980469 C 242.914062 100.664062 242.554688 101.75 241.933594 102.835938 C 241.433594 103.714844 240.832031 104.523438 240.109375 104.523438 C 239.574219 104.523438 239.144531 104.109375 239.144531 102.402344 C 239.144531 101.285156 239.421875 100.113281 239.695312 98.980469 Z M 249.082031 104.761719 C 249.082031 103.765625 248.753906 103.023438 248.046875 103.023438 C 247.496094 103.023438 247.222656 103.472656 247.222656 103.851562 C 247.222656 104.230469 247.480469 104.695312 248.066406 104.695312 C 248.289062 104.695312 248.480469 104.625 248.632812 104.46875 C 248.667969 104.4375 248.683594 104.4375 248.703125 104.4375 C 248.738281 104.4375 248.738281 104.675781 248.738281 104.761719 C 248.738281 105.332031 248.632812 106.449219 247.636719 107.570312 C 247.445312 107.777344 247.445312 107.808594 247.445312 107.84375 C 247.445312 107.929688 247.53125 108.015625 247.617188 108.015625 C 247.753906 108.015625 249.082031 106.742188 249.082031 104.761719 Z M 260.726562 92.902344 C 260.726562 92.746094 260.605469 92.746094 260.554688 92.746094 C 260.398438 92.746094 260.382812 92.78125 260.3125 93.074219 L 259.382812 96.773438 C 259.332031 97 259.316406 97.015625 259.296875 97.03125 C 259.28125 97.066406 259.160156 97.085938 259.125 97.085938 C 256.300781 97.324219 254.132812 99.648438 254.132812 101.800781 C 254.132812 103.660156 255.5625 104.796875 257.351562 104.902344 C 257.214844 105.433594 257.09375 105.984375 256.957031 106.519531 C 256.714844 107.429688 256.578125 108 256.578125 108.066406 C 256.578125 108.101562 256.578125 108.207031 256.75 108.207031 C 256.800781 108.207031 256.871094 108.207031 256.90625 108.136719 C 256.9375 108.101562 257.042969 107.6875 257.113281 107.464844 L 257.746094 104.902344 C 260.691406 104.746094 262.929688 102.335938 262.929688 100.164062 C 262.929688 98.429688 261.621094 97.1875 259.710938 97.066406 Z M 259.609375 97.410156 C 260.742188 97.480469 261.878906 98.117188 261.878906 99.804688 C 261.878906 101.75 260.519531 104.332031 257.835938 104.539062 Z M 257.4375 104.554688 C 256.59375 104.503906 255.183594 104.058594 255.183594 102.164062 C 255.183594 99.992188 256.75 97.585938 259.230469 97.429688 Z M 267.753906 100.40625 C 267.753906 99.167969 267.632812 97.066406 266.597656 94.847656 C 265.773438 93.058594 264.359375 91.800781 264.152344 91.800781 C 264.101562 91.800781 264.03125 91.816406 264.03125 91.902344 C 264.03125 91.9375 264.050781 91.953125 264.066406 91.988281 C 264.894531 92.851562 266.996094 95.035156 266.996094 100.390625 C 266.996094 105.761719 264.910156 107.949219 264.066406 108.808594 C 264.050781 108.84375 264.03125 108.859375 264.03125 108.894531 C 264.03125 108.980469 264.101562 108.996094 264.152344 108.996094 C 264.34375 108.996094 265.808594 107.722656 266.648438 105.828125 C 267.511719 103.921875 267.753906 102.058594 267.753906 100.40625 "/>
</g>
</svg>
